P3
64 64
255
141
144
145
147
150
151
147
150
151
144
147
148
143
146
147
141
144
145
144
147
148
149
152
153
144
147
148
123
125
126
99
99
99
121
123
124
144
147
148
145
148
149
147
150
151
144
147
148
148
151
152
144
147
148
147
150
151
143
146
147
147
150
151
141
144
145
147
150
151
143
146
147
141
144
145
143
146
147
146
149
150
141
144
145
152
155
156
144
147
148
121
123
124
102
102
102
120
122
123
140
143
144
147
150
151
148
151
152
147
150
151
142
145
146
145
148
149
147
150
151
147
150
151
147
150
151
148
151
152
145
148
149
147
150
151
151
154
155
144
147
148
148
151
152
144
147
148
143
146
147
147
150
151
144
147
148
120
122
123
102
102
102
123
125
126
145
148
149
144
147
148
145
148
149
150
153
154
145
148
149
145
148
149
144
147
148
147
150
151
143
146
147
145
148
149
148
151
152
150
153
154
147
150
151
147
150
151
144
147
148
146
149
150
147
150
151
142
145
146
121
124
124
104
104
104
123
125
126
141
144
145
149
152
153
147
150
151
148
151
152
147
150
151
148
151
152
146
149
150
145
148
149
151
154
155
147
150
151
149
152
153
147
150
151
147
150
151
139
142
143
150
153
154
150
153
154
141
144
145
145
148
149
121
123
124
108
108
108
122
124
125
144
147
148
147
150
151
143
146
147
140
143
144
147
150
151
148
151
152
142
145
146
142
145
146
148
151
152
139
142
143
145
148
149
147
150
151
146
149
150
140
143
144
146
149
150
151
154
155
150
153
154
147
150
151
141
144
145
118
120
121
95
95
95
126
128
129
141
144
145
146
149
150
142
145
146
145
148
149
147
150
151
149
152
153
147
150
151
141
144
145
147
150
151
151
154
155
145
148
149
147
150
151
145
148
149
149
152
153
147
150
151
146
149
150
138
141
142
144
147
148
123
125
126
109
109
109
122
124
125
142
145
146
147
150
151
146
149
150
145
148
149
140
143
144
140
143
144
144
147
148
145
148
149
149
152
153
142
145
146
146
149
150
150
153
154
141
144
145
147
150
151
145
148
149
149
152
153
144
147
148
144
147
148
124
126
127
102
102
102
121
123
124
137
140
141
144
147
148
147
150
151
145
148
149
150
153
154
148
151
152
145
148
149
147
150
151
147
150
151
139
142
143
145
148
149
145
148
149
142
145
146
140
143
144
147
150
151
144
147
148
148
151
152
144
147
148
144
147
148
123
125
126
99
99
99
126
128
129
144
147
148
148
151
152
147
150
151
147
150
151
146
149
150
147
150
151
144
147
148
147
150
151
146
149
150
147
150
151
147
150
151
139
142
143
143
146
147
144
147
148
147
150
151
148
151
152
149
152
153
144
147
148
123
125
126
97
97
97
120
122
123
142
145
146
146
149
150
151
154
155
149
152
153
149
152
153
148
151
152
143
146
147
141
144
145
141
144
145
147
150
151
142
145
146
152
155
156
147
150
151
147
150
151
140
143
144
147
150
151
146
149
150
144
147
148
125
127
128
102
102
102
121
124
124
144
147
148
147
150
151
144
147
148
147
150
151
147
150
151
149
152
153
140
143
144
141
144
145
144
147
148
148
151
152
150
153
154
147
150
151
143
146
147
150
153
154
147
150
151
147
150
151
146
149
150
147
150
151
141
144
145
124
126
127
103
103
103
118
121
121
142
145
146
144
147
148
142
145
146
151
154
155
146
149
150
147
150
151
147
150
151
145
148
149
144
147
148
147
150
151
148
151
152
143
146
147
147
150
151
150
153
154
147
150
151
145
148
149
147
150
151
140
143
144
121
123
124
95
95
95
124
127
127
143
146
147
147
150
151
145
148
149
147
150
151
149
152
153
146
149
150
149
152
153
141
144
145
147
150
151
147
150
151
141
144
145
151
154
155
145
148
149
147
150
151
147
150
151
141
144
145
145
148
149
141
144
145
123
125
126
106
106
106
121
123
124
138
141
142
147
150
151
145
148
149
147
150
151
143
146
147
143
146
147
149
152
153
147
150
151
146
149
150
145
148
149
148
151
152
145
148
149
144
147
148
147
150
151
144
147
148
147
150
151
147
150
151
147
150
151
147
150
151
124
126
127
105
105
105
123
125
126
143
146
147
147
150
151
143
146
147
140
143
144
150
153
154
150
153
154
141
144
145
147
150
151
147
150
151
144
147
148
141
144
145
144
147
148
147
150
151
144
147
148
145
148
149
142
145
146
147
150
151
138
141
142
118
120
121
100
100
100
117
119
120
141
143
144
146
149
150
143
146
147
142
145
146
139
142
143
144
147
148
143
146
147
138
141
142
145
148
149
136
139
140
147
150
151
138
141
142
144
147
148
143
146
147
142
145
146
145
148
149
144
147
148
141
143
144
116
118
119
107
107
107
120
122
123
141
143
144
144
147
148
143
146
147
144
147
148
144
147
148
144
147
148
140
143
144
140
143
144
147
150
151
146
149
150
144
147
148
144
147
148
138
141
142
138
141
142
139
142
143
145
148
149
147
150
151
140
143
144
138
141
142
117
119
120
102
102
102
115
118
118
140
143
143
144
147
148
143
146
147
141
144
145
143
146
147
144
147
148
140
143
144
146
149
150
139
142
143
119
121
122
117
119
120
124
127
127
125
127
128
124
126
127
118
120
121
120
122
123
122
124
125
119
121
122
105
106
107
97
97
97
108
109
110
116
118
119
118
120
121
121
124
124
123
125
126
124
127
127
123
125
126
124
127
127
123
125
126
122
124
125
115
117
118
122
124
125
122
124
125
121
124
124
123
125
126
121
123
124
117
119
120
123
125
126
117
119
120
105
106
107
109
109
109
104
106
106
117
119
120
121
124
124
118
120
121
118
120
121
120
122
123
121
124
124
123
125
126
124
126
127
121
123
124
120
122
123
122
124
125
124
126
127
118
120
121
127
129
130
118
121
121
119
121
122
118
121
121
123
125
126
117
119
120
106
108
108
103
103
103
103
105
105
120
122
123
123
125
126
122
124
125
122
124
125
126
128
129
122
124
125
124
126
127
121
123
124
127
129
130
106
106
106
104
104
104
100
100
100
99
99
99
99
99
99
101
101
101
107
107
107
100
100
100
91
91
91
107
107
107
102
102
102
96
96
96
95
95
95
101
101
101
99
99
99
95
95
95
97
97
97
101
101
101
104
104
104
106
106
106
93
93
93
108
108
108
95
95
95
110
110
110
99
99
99
102
102
102
110
110
110
94
94
94
97
97
97
94
94
94
97
97
97
104
104
104
105
105
105
99
99
99
105
105
105
104
104
104
101
101
101
104
104
104
95
95
95
93
93
93
99
99
99
104
104
104
107
107
107
100
100
100
102
102
102
108
108
108
103
103
103
109
109
109
103
103
103
104
104
104
104
104
104
104
104
104
109
109
109
91
91
91
98
98
98
105
105
105
99
99
99
105
105
105
97
97
97
104
104
104
102
102
102
101
101
101
107
107
107
98
98
98
107
107
107
103
104
105
120
122
123
122
124
125
120
122
123
124
127
127
122
124
125
123
125
126
122
124
125
119
121
122
118
120
121
122
124
125
123
125
126
120
122
123
123
125
126
123
125
126
123
125
126
121
123
124
122
124
125
118
120
121
104
106
106
100
100
100
101
103
103
120
122
123
116
118
119
123
125
126
120
122
123
124
127
127
121
124
124
122
124
125
119
120
120
121
123
124
121
123
124
123
125
126
121
123
124
125
127
128
123
125
126
123
125
126
123
125
126
121
123
124
118
120
121
100
102
102
105
105
105
105
106
107
120
122
123
119
121
122
123
125
126
123
125
126
118
121
121
123
125
126
124
127
127
121
124
124
120
123
123
122
124
125
120
122
123
123
125
126
123
125
126
123
125
126
120
122
123
123
125
126
124
127
127
118
120
121
124
127
127
121
123
124
108
108
108
116
118
119
138
141
142
141
144
145
145
148
149
144
147
148
142
145
146
146
149
150
142
145
146
144
147
148
141
144
145
144
147
148
143
146
147
144
147
148
144
147
148
142
145
146
144
147
148
144
147
148
145
148
149
137
140
141
121
123
123
104
104
104
120
122
123
139
142
143
141
144
145
140
143
144
142
145
146
144
147
148
140
143
144
143
146
147
135
138
139
146
149
150
144
147
148
141
144
145
142
145
146
143
146
147
140
143
144
143
146
147
144
147
148
140
143
144
137
140
141
120
122
123
98
98
98
119
121
122
138
141
142
144
147
148
137
140
141
143
146
147
144
147
148
144
147
148
136
139
140
137
140
141
139
142
143
137
140
141
138
141
142
144
147
148
140
143
144
147
150
151
138
141
142
144
147
148
144
147
148
143
146
147
143
146
147
140
143
144
91
91
91
122
125
125
137
140
141
146
149
150
151
154
155
147
150
151
142
145
146
147
150
151
145
148
149
147
150
151
143
146
147
147
150
151
143
146
147
147
150
151
148
151
152
147
150
151
148
151
152
141
144
145
146
149
150
140
143
144
123
125
126
109
109
109
122
124
125
144
147
148
147
150
151
143
146
147
147
150
151
144
147
148
139
142
143
149
152
153
147
150
151
146
149
150
143
146
147
147
150
151
146
149
150
147
150
151
144
147
148
147
150
151
140
143
144
148
151
152
148
151
152
117
119
120
108
108
108
117
119
120
137
140
141
147
150
151
149
152
153
146
149
150
146
149
150
148
151
152
149
152
153
146
149
150
147
150
151
149
152
153
146
149
150
147
150
151
147
150
151
143
146
147
147
150
151
145
148
149
147
150
151
142
145
146
146
149
150
147
150
151
100
100
100
115
117
118
143
146
147
145
148
149
147
150
151
148
151
152
145
148
149
143
146
147
143
146
147
147
150
151
148
151
152
145
148
149
144
147
148
149
152
153
143
146
147
143
146
147
148
151
152
146
149
150
147
150
151
144
147
148
122
124
125
98
98
98
124
126
127
139
142
143
144
147
148
153
156
157
149
152
153
144
147
148
148
151
152
147
150
151
149
152
153
144
147
148
146
149
150
149
152
153
145
148
149
147
150
151
139
142
143
143
146
147
146
149
150
147
150
151
145
148
149
122
124
125
106
106
106
118
120
121
141
144
145
148
151
152
143
146
147
147
150
151
149
152
153
149
152
153
141
144
145
140
143
144
146
149
150
143
146
147
143
146
147
139
142
143
147
150
151
149
152
153
147
150
151
140
143
144
143
146
147
146
149
150
145
148
149
143
146
147
101
101
101
112
114
115
143
146
147
141
144
145
147
150
151
147
150
151
147
150
151
152
155
156
145
148
149
141
144
145
145
148
149
144
147
148
147
150
151
145
148
149
146
149
150
145
148
149
147
150
151
147
150
151
147
150
151
139
142
143
123
125
126
97
97
97
119
121
122
135
138
139
143
146
147
147
150
151
147
150
151
147
150
151
145
148
149
151
154
155
147
150
151
147
150
151
144
147
148
149
152
153
141
144
145
147
150
151
147
150
151
143
146
147
143
146
147
147
150
151
144
147
148
121
123
124
100
100
100
121
123
124
142
145
146
147
150
151
148
151
152
143
146
147
141
144
145
147
150
151
143
146
147
147
150
151
145
148
149
146
149
150
147
150
151
149
152
153
147
150
151
149
152
153
147
150
151
144
147
148
147
150
151
147
150
151
143
146
147
147
150
151
104
104
104
118
120
121
142
144
145
147
150
151
141
144
145
145
148
149
137
140
141
145
148
149
144
147
148
143
146
147
144
147
148
140
143
144
140
143
144
142
145
146
146
149
150
143
146
147
145
148
149
145
148
149
143
146
147
141
143
144
119
121
122
99
99
99
118
121
121
134
137
138
141
144
145
141
144
145
137
140
141
138
141
142
141
144
145
142
145
146
144
147
148
144
147
148
143
146
147
144
147
148
140
143
144
144
147
148
140
143
144
136
139
140
141
144
145
143
146
147
141
143
144
116
118
119
102
102
102
118
120
121
137
139
139
137
140
141
144
147
148
143
146
147
143
146
147
142
145
146
143
146
147
143
146
147
146
149
150
145
148
149
141
144
145
144
147
148
142
145
146
144
147
148
143
146
147
147
150
151
137
140
141
136
139
140
145
148
149
138
141
142
99
99
99
100
102
103
118
120
121
123
125
126
122
124
125
121
123
124
121
124
124
123
125
126
123
125
126
124
126
127
118
120
121
122
124
125
120
122
123
124
126
127
124
126
127
122
124
125
124
127
127
124
127
127
125
127
128
119
121
122
104
106
106
102
102
102
101
103
103
116
118
119
120
122
123
121
124
124
117
119
120
124
127
127
123
125
126
121
123
124
119
121
122
120
123
123
120
122
123
120
122
123
121
123
124
123
125
126
121
124
124
123
125
126
120
122
123
123
125
126
119
121
122
102
104
105
100
100
100
103
105
106
120
122
123
123
125
126
122
124
125
127
129
130
118
121
121
123
125
126
124
126
127
118
121
121
124
126
127
117
119
120
120
122
123
122
124
125
121
124
124
123
125
126
124
126
127
122
124
125
124
126
127
122
124
125
124
126
127
121
123
124
100
100
100
100
100
100
100
100
100
103
103
103
102
102
102
97
97
97
98
98
98
96
96
96
108
108
108
107
107
107
105
105
105
104
104
104
102
102
102
106
106
106
99
99
99
97
97
97
94
94
94
101
101
101
101
101
101
104
104
104
105
105
105
98
98
98
107
107
107
105
105
105
106
106
106
96
96
96
95
95
95
102
102
102
107
107
107
101
101
101
98
98
98
110
110
110
94
94
94
100
100
100
108
108
108
101
101
101
101
101
101
105
105
105
101
101
101
95
95
95
96
96
96
100
100
100
98
98
98
101
101
101
103
103
103
94
94
94
104
104
104
104
104
104
100
100
100
106
106
106
92
92
92
100
100
100
102
102
102
106
106
106
92
92
92
95
95
95
105
105
105
104
104
104
100
100
100
105
105
105
100
100
100
104
104
104
99
99
99
98
98
98
118
120
121
121
123
124
123
125
126
118
120
121
120
122
123
123
125
126
121
123
124
122
124
125
121
123
124
106
108
108
104
104
104
103
105
106
118
120
121
123
125
126
122
124
125
119
121
122
123
125
126
121
124
124
123
125
126
122
124
125
122
124
125
120
123
123
126
128
129
120
122
123
122
124
125
121
123
124
123
125
126
124
126
127
124
126
127
115
118
118
107
109
109
104
104
104
103
105
105
117
119
120
123
125
126
119
121
122
118
121
121
123
125
126
123
125
126
124
126
127
123
125
126
120
122
123
115
117
118
120
122
123
117
119
120
123
125
126
121
123
124
121
124
124
119
121
122
121
124
124
127
129
130
115
117
118
103
105
106
93
93
93
101
103
103
120
122
123
127
129
130
121
123
124
121
124
124
124
127
127
123
125
126
120
122
123
118
121
121
124
127
127
143
146
147
142
145
146
141
144
145
143
146
147
145
148
149
138
141
142
144
147
148
142
145
146
141
143
144
119
121
122
103
103
103
120
122
123
138
141
142
146
149
150
142
145
146
144
147
148
147
150
151
144
147
148
142
145
146
140
143
144
138
141
142
141
144
145
140
143
144
145
148
149
142
145
146
142
145
146
144
147
148
144
147
148
142
145
146
141
143
144
120
122
123
95
95
95
120
122
123
137
140
141
139
142
143
139
142
143
141
144
145
139
142
143
141
144
145
141
144
145
138
141
142
142
145
146
144
147
148
147
150
151
144
147
148
144
147
148
143
146
147
145
148
149
143
146
147
145
148
149
144
147
148
142
144
145
124
126
127
103
103
103
117
119
120
141
143
144
140
143
144
138
141
142
139
142
143
138
141
142
143
146
147
145
148
149
143
146
147
141
144
145
145
148
149
147
150
151
146
149
150
151
154
155
146
149
150
139
142
143
144
147
148
146
149
150
141
144
145
120
122
123
105
105
105
124
127
127
141
144
145
146
149
150
144
147
148
150
153
154
147
150
151
146
149
150
140
143
144
149
152
153
144
147
148
143
146
147
141
144
145
145
148
149
143
146
147
140
143
144
139
142
143
145
148
149
147
150
151
142
145
146
122
124
125
99
99
99
122
124
125
144
147
148
142
145
146
145
148
149
145
148
149
144
147
148
146
149
150
139
142
143
147
150
151
147
150
151
147
150
151
148
151
152
147
150
151
147
150
151
147
150
151
143
146
147
147
150
151
147
150
151
148
151
152
145
148
149
123
125
126
105
105
105
124
126
127
143
146
147
145
148
149
146
149
150
141
144
145
148
151
152
144
147
148
149
152
153
147
150
151
147
150
151
139
142
143
146
149
150
142
145
146
147
150
151
143
146
147
152
155
156
147
150
151
145
148
149
145
148
149
123
125
126
94
94
94
122
124
125
144
147
148
143
146
147
147
150
151
145
148
149
144
147
148
151
154
155
146
149
150
146
149
150
147
150
151
147
150
151
143
146
147
143
146
147
141
144
145
143
146
147
147
150
151
145
148
149
147
150
151
143
146
147
120
122
123
107
107
107
121
123
124
146
149
150
146
149
150
140
143
144
147
150
151
148
151
152
147
150
151
148
151
152
147
150
151
148
151
152
147
150
151
144
147
148
147
150
151
143
146
147
139
142
143
147
150
151
147
150
151
142
145
146
149
152
153
146
149
150
121
124
124
100
100
100
118
121
121
144
147
148
150
153
154
147
150
151
148
151
152
147
150
151
145
148
149
151
154
155
148
151
152
146
149
150
145
148
149
147
150
151
141
144
145
148
151
152
148
151
152
147
150
151
146
149
150
147
150
151
142
145
146
121
123
124
107
107
107
118
121
121
141
144
145
144
147
148
143
146
147
142
145
146
144
147
148
151
154
155
147
150
151
147
150
151
150
153
154
140
143
144
147
150
151
144
147
148
145
148
149
146
149
150
143
146
147
146
149
150
147
150
151
137
140
141
123
125
126
101
101
101
124
127
127
146
149
150
147
150
151
143
146
147
147
150
151
146
149
150
148
151
152
147
150
151
144
147
148
147
150
151
145
148
149
145
148
149
147
150
151
142
145
146
145
148
149
144
147
148
147
150
151
149
152
153
143
146
147
144
147
148
121
123
124
105
105
105
123
125
126
138
141
142
146
149
150
141
144
145
146
149
150
146
149
150
143
146
147
147
150
151
146
149
150
139
142
143
144
147
148
144
147
148
143
146
147
144
147
148
139
142
143
141
144
145
145
148
149
145
148
149
139
142
143
118
121
121
97
97
97
114
116
117
141
143
144
145
148
149
142
145
146
143
146
147
144
147
148
143
146
147
142
145
146
143
146
147
144
147
148
144
147
148
144
147
148
138
141
142
145
148
149
138
141
142
143
146
147
144
147
148
141
144
145
140
143
143
119
121
122
106
106
106
121
123
123
142
144
145
135
138
139
146
149
150
144
147
148
141
144
145
141
144
145
142
145
146
142
145
146
144
147
148
139
142
143
143
146
147
143
146
147
144
147
148
142
145
146
144
147
148
141
144
145
144
147
148
147
150
151
141
143
144
118
121
121
109
109
109
118
120
121
137
140
141
139
142
143
145
148
149
144
147
148
142
145
146
142
145
146
149
152
153
142
145
146
146
149
150
124
127
127
124
126
127
119
121
122
122
124
125
126
128
129
122
124
125
124
127
127
122
124
125
120
122
123
105
107
108
98
98
98
103
105
105
120
122
123
122
124
125
120
122
123
121
124
124
124
126
127
120
122
123
126
128
129
123
125
126
124
126
127
120
123
123
122
124
125
118
120
121
123
125
126
123
125
126
123
125
126
121
124
124
123
125
126
116
118
119
103
105
105
96
96
96
106
108
108
118
120
121
121
124
124
125
127
128
117
119
120
121
124
124
123
125
126
124
127
127
125
127
128
120
122
123
122
124
125
117
120
120
121
124
124
123
125
126
121
124
124
124
127
127
121
124
124
121
123
124
123
125
126
118
121
121
101
103
103
98
98
98
105
107
108
121
123
123
123
125
126
120
122
123
119
121
122
126
128
129
123
125
126
124
126
127
120
122
123
123
125
126
102
102
102
99
99
99
105
105
105
96
96
96
97
97
97
105
105
105
96
96
96
98
98
98
104
104
104
104
104
104
96
96
96
102
102
102
99
99
99
100
100
100
105
105
105
98
98
98
102
102
102
103
103
103
103
103
103
100
100
100
109
109
109
91
91
91
102
102
102
104
104
104
106
106
106
97
97
97
103
103
103
111
111
111
109
109
109
104
104
104
99
99
99
106
106
106
99
99
99
96
96
96
108
108
108
93
93
93
108
108
108
108
108
108
101
101
101
102
102
102
102
102
102
98
98
98
106
106
106
95
95
95
100
100
100
105
105
105
103
103
103
105
105
105
98
98
98
101
101
101
92
92
92
102
102
102
99
99
99
96
96
96
98
98
98
97
97
97
104
104
104
101
101
101
101
101
101
100
100
100
108
108
108
98
98
98
101
101
101
99
99
99
119
121
122
120
122
123
123
125
126
120
122
123
125
127
128
124
126
127
121
123
124
119
121
122
123
125
126
115
117
118
118
120
120
122
124
125
120
122
123
125
127
128
121
123
124
125
127
128
121
123
124
123
125
126
123
125
126
119
121
122
103
105
106
98
98
98
105
106
107
119
121
122
123
125
126
123
125
126
123
125
126
121
123
124
122
124
125
124
126
127
122
124
125
120
122
123
122
124
125
121
123
124
121
123
124
120
122
123
122
124
125
118
121
121
124
126
127
127
129
130
119
121
122
102
104
105
100
100
100
102
104
105
118
120
121
126
128
129
123
125
126
123
125
126
124
126
127
118
120
121
119
121
122
122
124
125
120
122
123
122
124
125
120
122
123
122
124
125
121
124
124
121
124
124
119
121
122
123
125
126
121
124
124
117
119
120
103
104
105
103
103
103
144
147
148
143
146
147
145
148
149
147
150
151
143
146
147
139
142
143
143
146
147
144
147
148
146
149
150
144
147
148
147
150
151
139
142
143
144
147
148
147
150
151
144
147
148
146
149
150
140
143
144
144
147
148
145
148
149
133
136
137
120
122
123
99
99
99
120
122
123
141
143
144
144
147
148
142
145
146
143
146
147
143
146
147
144
147
148
146
149
150
141
144
145
144
147
148
143
146
147
141
144
145
144
147
148
140
143
144
142
145
146
144
147
148
142
145
146
145
148
149
140
143
143
119
121
122
102
102
102
117
119
120
134
137
138
147
150
151
143
146
147
142
145
146
146
149
150
138
141
142
144
147
148
138
141
142
139
142
143
144
147
148
144
147
148
144
147
148
138
141
142
142
145
146
143
146
147
148
151
152
142
145
146
138
141
142
111
113
114
99
99
99
146
149
150
142
145
146
147
150
151
147
150
151
143
146
147
146
149
150
147
150
151
147
150
151
148
151
152
141
144
145
139
142
143
147
150
151
145
148
149
144
147
148
148
151
152
147
150
151
144
147
148
146
149
150
145
148
149
142
145
146
123
125
126
108
108
108
123
125
126
144
147
148
148
151
152
147
150
151
148
151
152
142
145
146
147
150
151
143
146
147
146
149
150
145
148
149
144
147
148
147
150
151
152
155
156
146
149
150
139
142
143
146
149
150
151
154
155
142
145
146
144
147
148
118
121
121
97
97
97
123
125
126
137
140
141
147
150
151
147
150
151
148
151
152
149
152
153
147
150
151
147
150
151
147
150
151
147
150
151
146
149
150
143
146
147
143
146
147
146
149
150
145
148
149
144
147
148
149
152
153
147
150
151
145
148
149
117
119
120
104
104
104
147
150
151
147
150
151
142
145
146
145
148
149
147
150
151
144
147
148
141
144
145
146
149
150
147
150
151
139
142
143
148
151
152
150
153
154
145
148
149
147
150
151
144
147
148
144
147
148
147
150
151
146
149
150
148
151
152
148
151
152
118
121
121
103
103
103
125
127
128
142
145
146
145
148
149
146
149
150
148
151
152
145
148
149
147
150
151
151
154
155
149
152
153
144
147
148
144
147
148
140
143
144
147
150
151
142
145
146
149
152
153
147
150
151
145
148
149
143
146
147
142
145
146
120
122
123
97
97
97
124
127
127
144
147
148
145
148
149
147
150
151
145
148
149
147
150
151
145
148
149
143
146
147
150
153
154
148
151
152
143
146
147
147
150
151
145
148
149
141
144
145
149
152
153
148
151
152
144
147
148
143
146
147
141
144
145
119
122
122
105
105
105
146
149
150
145
148
149
147
150
151
146
149
150
151
154
155
146
149
150
146
149
150
147
150
151
147
150
151
146
149
150
144
147
148
148
151
152
143
146
147
147
150
151
140
143
144
150
153
154
147
150
151
149
152
153
152
155
156
144
147
148
122
124
125
96
96
96
123
125
126
144
147
148
147
150
151
145
148
149
144
147
148
145
148
149
147
150
151
142
145
146
147
150
151
146
149
150
145
148
149
141
144
145
146
149
150
150
153
154
150
153
154
147
150
151
148
151
152
144
147
148
141
144
145
123
125
126
101
101
101
123
125
126
144
147
148
147
150
151
151
154
155
145
148
149
147
150
151
145
148
149
141
144
145
147
150
151
144
147
148
146
149
150
147
150
151
146
149
150
147
150
151
147
150
151
149
152
153
141
144
145
147
150
151
144
147
148
120
122
123
97
97
97
144
147
148
143
146
147
144
147
148
144
147
148
141
144
145
143
146
147
144
147
148
138
141
142
137
140
141
144
147
148
137
140
141
138
141
142
145
148
149
144
147
148
142
145
146
144
147
148
141
144
145
144
147
148
145
148
149
139
142
143
121
123
123
95
95
95
115
118
118
141
143
144
144
147
148
138
141
142
144
147
148
142
145
146
144
147
148
142
145
146
140
143
144
139
142
143
138
141
142
148
151
152
144
147
148
144
147
148
140
143
144
142
145
146
141
144
145
146
149
150
136
139
140
115
118
118
108
108
108
120
122
123
140
143
143
146
149
150
146
149
150
142
145
146
141
144
145
143
146
147
144
147
148
140
143
144
144
147
148
144
147
148
143
146
147
144
147
148
144
147
148
143
146
147
143
146
147
144
147
148
146
149
150
143
146
147
116
118
119
99
99
99
124
127
127
120
122
123
121
124
124
121
124
124
118
121
121
122
124
125
124
126
127
123
125
126
123
125
126
122
124
125
120
122
123
119
121
122
124
127
127
118
121
121
123
125
126
123
125
126
125
127
128
118
120
121
119
121
122
123
125
126
105
106
107
98
98
98
105
106
107
121
123
123
118
120
121
121
123
124
124
126
127
121
123
124
121
124
124
120
122
123
123
125
126
119
121
122
120
123
123
116
118
119
121
123
124
123
125
126
123
125
126
118
121
121
117
119
120
121
124
124
120
122
123
106
108
109
103
103
103
105
106
107
120
122
123
123
125
126
120
122
123
118
120
121
123
125
126
120
122
123
124
127
127
122
124
125
123
126
126
120
123
123
121
123
124
125
127
128
123
125
126
121
123
124
121
123
124
124
126
127
121
124
124
116
118
119
103
104
105
102
102
102
98
98
98
94
94
94
92
92
92
102
102
102
106
106
106
102
102
102
110
110
110
108
108
108
103
103
103
99
99
99
104
104
104
99
99
99
96
96
96
103
103
103
99
99
99
99
99
99
107
107
107
100
100
100
101
101
101
111
111
111
104
104
104
106
106
106
100
100
100
102
102
102
92
92
92
99
99
99
98
98
98
104
104
104
94
94
94
104
104
104
96
96
96
101
101
101
104
104
104
107
107
107
110
110
110
98
98
98
101
101
101
104
104
104
103
103
103
102
102
102
107
107
107
100
100
100
107
107
107
95
95
95
98
98
98
94
94
94
99
99
99
93
93
93
95
95
95
104
104
104
99
99
99
92
92
92
106
106
106
101
101
101
101
101
101
104
104
104
100
100
100
97
97
97
108
108
108
106
106
106
106
106
106
104
104
104
95
95
95
103
103
103
124
127
127
117
119
120
117
119
120
123
125
126
122
124
125
123
125
126
124
126
127
123
125
126
120
122
123
105
107
108
109
109
109
105
106
107
120
122
123
121
123
124
122
124
125
122
124
125
123
125
126
121
124
124
123
125
126
123
125
126
121
123
124
120
123
123
122
124
125
121
123
124
126
128
129
121
124
124
123
125
126
121
123
124
123
125
126
122
124
125
120
122
123
101
103
103
104
104
104
103
105
105
117
119
120
124
127
127
123
125
126
124
126
127
117
119
120
123
125
126
123
125
126
120
122
123
118
120
121
122
124
125
118
120
121
121
123
124
119
121
122
122
124
125
119
121
122
123
125
126
119
121
122
120
122
123
101
103
103
103
103
103
102
103
104
120
122
123
124
127
127
127
129
130
122
124
125
122
124
125
123
125
126
127
129
130
116
118
119
121
123
124
143
146
147
142
145
146
146
149
150
141
144
145
139
142
143
146
149
150
142
145
146
143
146
147
135
138
139
123
125
126
108
108
108
121
123
124
140
143
143
145
148
149
139
142
143
138
141
142
141
144
145
145
148
149
136
139
140
144
147
148
144
147
148
143
146
147
144
147
148
146
149
150
142
145
146
138
141
142
143
146
147
140
143
144
142
145
146
139
142
143
136
139
140
118
121
121
106
106
106
121
123
123
141
143
144
139
142
143
137
140
141
141
144
145
142
145
146
143
146
147
144
147
148
140
143
144
142
145
146
144
147
148
135
138
139
146
149
150
139
142
143
144
147
148
142
145
146
137
140
141
142
145
146
143
145
146
120
122
123
108
108
108
118
121
121
144
147
148
144
147
148
143
146
147
140
143
144
140
143
144
143
146
147
144
147
148
142
145
146
144
147
148
145
148
149
139
142
143
153
156
157
143
146
147
142
145
146
144
147
148
147
150
151
146
149
150
142
145
146
123
125
126
101
101
101
123
125
126
138
141
142
147
150
151
147
150
151
144
147
148
148
151
152
145
148
149
145
148
149
147
150
151
147
150
151
143
146
147
148
151
152
147
150
151
145
148
149
147
150
151
146
149
150
144
147
148
147
150
151
151
154
155
144
147
148
124
126
127
98
98
98
123
125
126
144
147
148
147
150
151
145
148
149
149
152
153
147
150
151
144
147
148
147
150
151
145
148
149
149
152
153
142
145
146
148
151
152
148
151
152
147
150
151
146
149
150
145
148
149
148
151
152
143
146
147
141
144
145
120
122
123
102
102
102
121
123
124
136
139
140
140
143
144
142
145
146
147
150
151
147
150
151
147
150
151
140
143
144
147
150
151
147
150
151
147
150
151
150
153
154
144
147
148
145
148
149
146
149
150
149
152
153
149
152
153
147
150
151
148
151
152
124
126
127
97
97
97
121
123
124
140
143
144
144
147
148
148
151
152
146
149
150
147
150
151
146
149
150
145
148
149
147
150
151
147
150
151
147
150
151
147
150
151
145
148
149
147
150
151
147
150
151
147
150
151
148
151
152
150
153
154
145
148
149
141
144
145
122
124
125
96
96
96
123
125
126
146
149
150
146
149
150
147
150
151
147
150
151
148
151
152
146
149
150
143
146
147
150
153
154
147
150
151
147
150
151
143
146
147
147
150
151
141
144
145
144
147
148
151
154
155
141
144
145
142
145
146
143
146
147
118
120
121
104
104
104
121
123
124
145
148
149
145
148
149
147
150
151
147
150
151
145
148
149
147
150
151
145
148
149
150
153
154
147
150
151
145
148
149
147
150
151
147
150
151
140
143
144
139
142
143
147
150
151
146
149
150
147
150
151
144
147
148
124
127
127
96
96
96
121
123
123
140
143
144
147
150
151
146
149
150
147
150
151
143
146
147
147
150
151
152
155
156
147
150
151
143
146
147
144
147
148
145
147
147
147
150
151
142
145
146
147
150
151
144
147
148
148
151
152
144
147
148
140
143
144
145
148
149
118
120
121
103
103
103
125
127
128
136
139
140
151
154
155
144
147
148
147
150
151
147
150
151
147
150
151
147
150
151
148
151
152
147
150
151
147
150
151
147
150
151
147
150
151
147
150
151
146
149
150
149
152
153
151
154
155
148
151
152
139
142
143
123
125
126
100
100
100
121
123
124
145
148
149
147
150
151
148
151
152
146
149
150
149
152
153
147
150
151
146
149
150
147
150
151
147
150
151
144
147
148
143
146
147
144
147
148
142
145
146
144
147
148
143
146
147
146
149
150
141
144
145
147
150
151
121
123
124
102
102
102
120
122
123
141
143
144
140
143
144
136
139
140
142
145
146
141
144
145
144
147
148
146
149
150
143
146
147
144
147
148
141
144
145
144
147
148
140
143
144
144
147
148
144
147
148
143
146
147
144
147
148
144
147
148
148
151
152
139
142
143
124
126
127
96
96
96
120
122
123
143
145
146
147
150
151
142
145
146
142
145
146
138
141
142
144
147
148
144
147
148
146
149
150
145
148
149
140
143
144
148
151
152
144
147
148
144
147
148
144
147
148
146
149
150
140
143
144
146
149
150
139
142
143
116
118
119
93
93
93
118
121
121
139
142
143
141
144
145
144
147
148
141
144
145
140
143
144
143
146
147
143
146
147
142
145
146
144
147
148
123
125
126
127
129
130
123
125
126
120
122
123
125
127
128
121
123
124
123
125
126
123
125
126
120
122
123
102
104
105
102
102
102
105
106
107
117
119
120
124
126
127
124
126
127
123
125
126
121
123
124
123
125
126
123
125
126
120
123
123
121
123
124
121
123
124
120
122
123
121
124
124
123
125
126
124
127
127
123
125
126
124
127
127
121
123
124
121
124
124
121
123
123
103
105
105
96
96
96
105
106
107
116
118
119
118
121
121
120
122
123
124
126
127
121
123
124
124
126
127
119
121
122
123
125
126
120
123
123
123
125
126
121
123
124
121
124
124
125
127
128
122
124
125
122
124
125
124
127
127
124
127
127
115
118
118
105
106
107
96
96
96
102
104
105
118
120
121
120
122
123
120
122
123
121
124
124
123
125
126
119
121
122
123
125
126
122
124
125
120
123
123
100
100
100
91
91
91
95
95
95
100
100
100
103
103
103
98
98
98
109
109
109
103
103
103
103
103
103
104
104
104
98
98
98
100
100
100
94
94
94
97
97
97
102
102
102
97
97
97
95
95
95
102
102
102
111
111
111
98
98
98
101
101
101
93
93
93
101
101
101
100
100
100
95
95
95
109
109
109
103
103
103
96
96
96
108
108
108
105
105
105
96
96
96
101
101
101
98
98
98
93
93
93
104
104
104
96
96
96
104
104
104
97
97
97
96
96
96
107
107
107
98
98
98
101
101
101
102
102
102
98
98
98
101
101
101
101
101
101
103
103
103
98
98
98
102
102
102
108
108
108
96
96
96
102
102
102
98
98
98
98
98
98
108
108
108
108
108
108
98
98
98
99
99
99
99
99
99
103
103
103
102
102
102
101
101
101
99
99
99
100
100
100
123
125
126
121
123
124
122
124
125
123
125
126
123
125
126
121
123
124
123
125
126
123
125
126
123
125
126
122
124
125
117
119
120
122
124
125
123
125
126
121
123
124
121
123
124
121
124
124
120
122
123
124
126
127
119
121
122
103
105
106
105
105
105
105
107
108
118
120
121
125
127
128
120
122
123
118
121
121
123
125
126
124
126
127
121
124
124
122
124
125
122
124
125
116
118
119
118
120
121
120
123
123
124
126
127
124
126
127
121
123
124
123
125
126
122
124
125
121
124
124
120
122
123
103
105
106
98
98
98
105
106
107
115
117
118
119
121
122
122
124
125
118
120
121
126
128
129
119
121
122
122
124
125
118
120
121
123
126
126
120
122
123
121
123
124
123
125
126
121
124
124
118
120
121
121
124
124
123
125
126
125
127
128
123
125
126
99
101
102
103
103
103
143
146
147
139
142
143
147
150
151
144
147
148
143
146
147
143
146
147
140
143
144
144
147
148
144
147
148
141
144
145
141
144
145
144
147
148
144
147
148
144
147
148
144
147
148
144
147
148
143
146
147
144
147
148
141
143
144
114
116
117
109
109
109
121
123
124
139
142
143
147
150
151
140
143
144
142
145
146
139
142
143
144
147
148
140
143
144
143
146
147
142
145
146
144
147
148
144
147
148
137
140
141
144
147
148
142
145
146
142
145
146
143
146
147
144
147
148
147
150
151
139
142
143
120
122
123
107
107
107
120
122
123
139
142
143
140
143
144
144
147
148
143
146
147
147
150
151
141
144
145
146
149
150
145
148
149
142
145
146
138
141
142
140
143
144
144
147
148
143
146
147
148
151
152
142
145
146
144
147
148
145
148
149
143
145
146
115
117
118
109
109
109
151
154
155
141
144
145
143
146
147
146
149
150
147
150
151
145
148
149
146
149
150
147
150
151
146
149
150
147
150
151
147
150
151
144
147
148
147
150
151
148
151
152
145
148
149
144
147
148
145
148
149
147
150
151
143
146
147
122
124
125
104
104
104
123
125
126
144
147
148
140
143
144
142
145
146
145
148
149
147
150
151
146
149
150
147
150
151
154
157
158
144
147
148
140
143
144
140
143
144
140
143
144
147
150
151
146
149
150
152
155
156
143
146
147
147
150
151
147
150
151
143
146
147
120
122
123
103
103
103
125
127
128
141
144
145
145
148
149
142
145
146
147
150
151
147
150
151
147
150
151
146
149
150
148
151
152
147
150
151
144
147
148
150
153
154
147
150
151
143
146
147
147
150
151
142
145
146
147
150
151
141
144
145
144
147
148
119
121
122
101
101
101
147
150
151
147
150
151
140
143
144
147
150
151
142
145
146
146
149
150
148
151
152
144
147
148
147
150
151
146
149
150
148
151
152
144
147
148
147
150
151
147
150
151
148
151
152
146
149
150
148
151
152
150
153
154
144
147
148
123
125
126
100
100
100
124
126
127
143
146
147
144
147
148
147
150
151
143
146
147
143
146
147
147
150
151
141
144
145
146
149
150
147
150
151
149
152
153
150
153
154
145
148
149
144
147
148
147
150
151
147
150
151
147
150
151
152
155
156
146
149
150
144
147
148
119
121
122
99
99
99
123
125
126
144
147
148
149
152
153
147
150
151
147
150
151
147
150
151
147
150
151
151
154
155
143
146
147
143
146
147
147
150
151
140
143
144
145
148
149
147
150
151
145
148
149
144
147
148
147
150
151
141
144
145
140
143
144
118
120
121
99
99
99
147
150
151
144
147
148
150
153
154
146
149
150
148
151
152
144
147
148
147
150
151
141
144
145
140
143
144
147
150
151
144
147
148
147
150
151
147
150
151
151
154
155
147
150
151
147
150
151
147
150
151
147
150
151
143
146
147
121
123
124
94
94
94
123
125
126
139
142
143
146
149
150
147
150
151
147
150
151
147
150
151
145
148
149
145
148
149
148
151
152
147
150
151
147
150
151
147
150
151
148
151
152
149
152
153
143
146
147
145
148
149
146
149
150
147
150
151
151
154
155
146
149
150
121
124
124
91
91
91
123
125
126
143
146
147
148
151
152
151
154
155
147
150
151
149
152
153
146
149
150
146
149
150
147
150
151
143
146
147
149
152
153
139
142
143
150
153
154
143
146
147
145
148
149
143
146
147
151
154
155
146
149
150
145
148
149
116
117
117
97
97
97
143
146
147
144
147
148
144
147
148
136
139
140
140
143
144
142
145
146
142
145
146
144
147
148
142
145
146
144
147
148
144
147
148
146
149
150
147
150
151
141
144
145
144
147
148
144
147
148
141
144
145
144
147
148
139
142
143
116
118
119
103
103
103
120
122
123
134
137
138
143
146
147
144
147
148
144
147
148
144
147
148
137
140
141
144
147
148
144
147
148
144
147
148
138
141
142
144
147
148
144
147
148
140
143
144
144
147
148
141
144
145
144
147
148
144
147
148
147
150
151
138
141
142
115
117
118
98
98
98
121
123
123
136
139
140
141
144
145
146
149
150
143
146
147
150
153
153
138
141
142
140
143
144
143
146
147
143
146
147
144
147
148
143
146
147
138
140
140
144
147
148
141
144
145
144
147
148
143
146
147
144
147
148
139
142
143
116
118
119
97
97
97
123
125
126
122
124
125
122
124
125
122
124
125
122
124
125
121
124
124
125
127
128
123
125
126
119
121
122
127
129
130
118
120
120
123
125
126
120
122
123
121
123
124
123
125
126
121
123
124
123
125
126
123
125
126
118
121
121
105
106
107
97
97
97
104
106
106
120
122
123
123
125
126
123
125
126
125
127
128
119
121
122
122
124
125
121
123
124
123
125
126
121
124
124
122
124
125
117
119
120
115
117
118
124
127
127
120
122
123
121
123
124
123
125
126
122
124
125
121
124
124
121
123
124
105
107
108
97
97
97
106
108
108
118
120
121
125
127
128
120
122
123
118
121
121
121
122
122
124
126
127
120
122
123
123
125
126
122
124
125
123
125
126
120
123
123
121
123
124
120
122
123
122
124
125
126
128
129
119
121
122
121
123
124
120
122
123
99
100
101
96
96
96
108
108
108
105
105
105
109
109
109
99
99
99
104
104
104
103
103
103
97
97
97
92
92
92
97
97
97
102
102
102
97
97
97
97
97
97
99
99
99
98
98
98
98
98
98
103
103
103
98
98
98
92
92
92
108
108
108
103
103
103
100
100
100
109
109
109
98
98
98
99
99
99
106
106
106
101
101
101
98
98
98
105
105
105
102
102
102
98
98
98
99
99
99
109
109
109
92
92
92
95
95
95
102
102
102
99
99
99
102
102
102
100
100
100
109
109
109
107
107
107
104
104
104
101
101
101
93
93
93
97
97
97
100
100
100
96
96
96
104
104
104
102
102
102
97
97
97
99
99
99
101
101
101
97
97
97
102
102
102
102
102
102
99
99
99
100
100
100
94
94
94
98
98
98
101
101
101
97
97
97
93
93
93
94
94
94
108
108
108
99
99
99
117
119
120
123
125
126
123
125
126
121
123
124
123
125
126
123
125
126
123
125
126
118
121
121
115
118
118
103
105
105
101
101
101
103
105
106
120
122
123
123
125
126
123
125
126
122
124
125
123
125
126
122
124
125
123
125
126
119
121
122
120
123
123
120
123
123
125
127
128
127
130
130
121
124
124
125
127
128
126
128
129
118
121
121
118
121
121
121
123
124
120
122
123
105
107
108
105
105
105
105
106
107
120
122
123
123
125
126
122
124
125
123
125
126
124
126
127
120
122
123
118
120
121
123
125
126
120
123
123
120
123
123
119
121
121
124
126
127
124
126
127
121
123
124
121
123
124
121
124
124
118
121
121
120
122
123
100
102
103
100
100
100
105
106
107
117
119
120
118
120
121
120
122
123
122
124
125
123
125
126
124
127
127
124
127
127
123
125
126
118
120
121
144
147
148
144
147
148
144
147
148
141
144
145
144
147
148
144
147
148
144
147
148
145
148
149
139
142
143
121
123
123
99
99
99
119
121
122
140
143
143
138
141
142
144
147
148
140
143
144
144
147
148
140
143
144
144
147
148
140
143
144
144
147
148
140
143
144
144
147
148
140
143
144
140
143
144
144
147
148
141
144
145
140
143
144
143
146
147
144
147
148
141
143
144
117
119
120
103
103
103
121
123
124
134
137
138
144
147
148
141
144
145
138
141
142
142
145
146
144
147
148
143
146
147
148
151
152
144
147
148
144
147
148
143
146
147
151
153
154
144
147
148
144
147
148
137
140
141
140
143
144
144
147
148
141
143
144
122
124
125
104
104
104
118
120
121
141
143
144
144
147
148
137
140
141
141
144
145
142
145
146
144
147
148
139
142
143
145
148
149
139
142
143
141
144
145
145
148
149
140
143
144
145
148
149
147
150
151
147
150
151
144
147
148
142
145
146
144
147
148
118
121
121
108
108
108
119
121
122
147
150
151
145
148
149
143
146
147
143
146
147
149
152
153
143
146
147
146
149
150
147
150
151
148
151
152
147
150
151
146
149
150
147
150
151
145
148
149
147
150
151
143
146
147
144
147
148
147
150
151
150
153
154
143
146
147
121
123
124
99
99
99
119
121
122
146
149
150
142
145
146
147
150
151
151
154
155
145
148
149
147
150
151
143
146
147
147
150
151
147
150
151
147
150
151
146
149
150
147
150
151
148
151
152
147
150
151
147
150
151
148
151
152
140
143
144
142
145
146
123
125
126
108
108
108
118
121
121
146
149
150
148
151
152
147
150
151
147
150
151
143
146
147
145
148
149
143
146
147
143
146
147
142
145
146
148
151
152
147
150
151
146
149
150
147
150
151
144
147
148
147
150
151
145
148
149
146
149
150
142
145
146
123
125
126
94
94
94
124
127
127
144
147
148
144
147
148
141
144
145
142
145
146
142
145
146
141
144
145
147
150
151
146
149
150
151
154
155
142
145
146
146
149
150
147
150
151
142
145
146
149
152
153
147
150
151
147
150
151
142
145
146
147
150
151
143
146
147
124
127
127
100
100
100
123
125
126
138
141
142
145
148
149
138
141
142
148
151
152
146
149
150
147
150
151
143
146
147
152
155
156
143
146
147
147
150
151
146
149
150
147
150
151
147
150
151
140
143
144
147
150
151
147
150
151
140
143
144
143
146
147
121
123
124
96
96
96
121
124
124
142
145
146
147
150
151
147
150
151
146
149
150
149
152
153
141
144
145
145
148
149
150
153
154
147
150
151
146
149
150
149
152
153
143
146
147
138
141
142
145
148
149
147
150
151
144
147
148
151
154
155
141
144
145
121
123
124
103
103
103
124
126
127
144
147
148
151
154
155
141
144
145
145
148
149
143
146
147
140
143
144
147
150
151
146
149
150
147
150
151
147
150
151
149
152
153
139
142
143
144
147
148
145
148
149
142
145
146
146
149
150
147
150
151
149
152
153
144
147
148
123
125
126
100
100
100
123
125
126
145
148
149
147
150
151
146
149
150
143
146
147
148
151
152
144
147
148
144
147
148
148
151
152
140
143
144
146
149
150
145
148
149
150
153
154
147
150
151
144
147
148
150
153
154
147
150
151
141
144
145
142
145
146
123
125
126
92
92
92
123
125
126
141
144
145
147
150
151
147
150
151
143
146
147
147
150
151
145
148
149
144
147
148
150
153
154
145
148
149
144
147
148
143
146
147
144
147
148
142
145
146
145
148
149
144
147
148
139
142
143
142
145
146
142
144
145
121
123
123
100
100
100
120
122
123
141
143
144
144
147
148
141
144
145
141
144
145
144
147
148
149
152
153
144
147
148
141
144
145
143
146
147
144
147
148
143
146
147
144
147
148
140
143
144
144
147
148
137
140
141
143
146
147
149
152
153
142
145
146
141
143
144
118
121
121
102
102
102
117
119
120
141
143
144
142
145
146
137
140
141
140
143
144
140
143
144
144
147
148
140
143
144
144
147
148
146
149
150
145
148
149
143
146
147
149
152
153
143
146
147
144
147
148
142
145
146
139
142
143
147
150
151
137
140
141
119
121
122
109
109
109
121
123
123
140
143
143
138
141
142
148
151
152
137
140
141
139
142
143
142
145
146
138
141
142
146
149
150
140
143
144
123
125
126
123
125
126
123
125
126
120
122
123
122
124
125
121
124
124
123
125
126
121
124
124
120
122
123
106
108
108
96
96
96
105
107
108
120
122
123
122
124
125
123
125
126
121
124
124
117
119
120
122
124
125
122
124
125
121
123
124
118
120
120
118
120
121
121
123
124
121
123
124
120
122
123
123
125
126
123
125
126
118
120
121
120
122
123
120
122
123
122
124
125
103
105
105
95
95
95
102
104
105
117
119
120
122
124
125
119
121
122
123
125
126
123
125
126
125
127
128
120
122
123
122
124
125
122
124
125
122
124
125
121
124
124
124
126
127
123
125
126
121
124
124
123
125
126
121
123
124
118
121
121
119
121
122
106
108
108
108
108
108
105
106
107
118
120
121
118
121
121
123
125
126
117
119
120
123
125
126
116
118
119
118
121
121
119
121
122
120
123
123
97
97
97
109
109
109
96
96
96
92
92
92
101
101
101
101
101
101
100
100
100
109
109
109
101
101
101
102
102
102
102
102
102
102
102
102
105
105
105
103
103
103
102
102
102
97
97
97
100
100
100
93
93
93
97
97
97
105
105
105
96
96
96
103
103
103
109
109
109
109
109
109
105
105
105
103
103
103
100
100
100
93
93
93
105
105
105
98
98
98
105
105
105
109
109
109
102
102
102
103
103
103
109
109
109
95
95
95
99
99
99
96
96
96
101
101
101
96
96
96
103
103
103
110
110
110
96
96
96
108
108
108
96
96
96
101
101
101
97
97
97
99
99
99
100
100
100
102
102
102
108
108
108
103
103
103
104
104
104
106
106
106
98
98
98
102
102
102
102
102
102
101
101
101
101
101
101
103
103
103
97
97
97
100
100
100
100
100
100
111
111
111
124
126
127
122
124
125
118
121
121
123
125
126
123
125
126
119
121
122
123
125
126
121
123
124
122
124
125
120
123
123
118
120
120
123
125
126
122
124
125
118
121
121
123
125
126
124
126
127
126
128
129
121
123
124
118
120
121
102
104
105
102
102
102
101
103
103
118
121
121
121
124
124
119
121
122
121
124
124
122
124
125
124
126
127
118
120
121
123
125
126
121
124
124
124
126
127
121
123
124
123
125
126
124
127
127
122
124
125
118
121
121
123
125
126
121
124
124
122
124
125
116
118
119
105
106
107
96
96
96
105
106
107
119
121
122
123
125
126
121
124
124
121
123
124
122
124
125
123
125
126
118
121
121
123
125
126
123
126
126
118
120
121
122
124
125
124
126
127
121
124
124
122
124
125
123
125
126
122
124
125
118
121
121
121
123
123
103
104
105
99
99
99
144
147
148
147
150
151
141
144
145
140
143
144
142
145
146
144
147
148
147
150
151
142
145
146
140
143
144
138
141
142
142
145
146
144
147
148
144
147
148
143
146
147
145
148
149
143
146
147
138
141
142
142
145
146
137
140
141
117
119
120
111
111
111
122
124
125
138
141
142
138
141
142
142
145
146
139
142
143
150
153
153
141
144
145
142
145
146
139
142
143
147
150
151
144
147
148
144
147
148
144
147
148
143
146
147
141
144
145
142
145
146
144
147
148
139
142
143
142
145
146
144
147
148
117
119
120
101
101
101
121
123
124
134
137
138
144
147
148
144
147
148
144
147
148
142
145
146
145
148
149
145
148
149
144
147
148
147
150
151
141
144
145
144
147
148
146
149
150
143
146
147
143
146
147
144
147
148
139
142
143
141
144
145
141
143
144
119
121
122
102
102
102
141
144
145
146
149
150
148
151
152
147
150
151
147
150
151
149
152
153
144
147
148
147
150
151
149
152
153
150
153
154
142
145
146
146
149
150
141
144
145
141
144
145
149
152
153
140
143
144
147
150
151
148
151
152
145
148
149
120
122
123
93
93
93
126
128
129
140
143
144
145
148
149
151
154
155
144
147
148
146
149
150
148
151
152
141
144
145
147
150
151
150
153
154
145
148
149
146
149
150
144
147
148
144
147
148
147
150
151
144
147
148
147
150
151
144
147
148
142
145
146
146
149
150
121
123
124
104
104
104
120
122
123
145
148
149
147
150
151
147
150
151
141
144
145
147
150
151
144
147
148
139
142
143
142
145
146
146
149
150
150
153
154
146
149
150
146
149
150
147
150
151
147
150
151
146
149
150
147
150
151
145
148
149
145
148
149
117
119
120
99
99
99
147
150
151
142
145
146
144
147
148
147
150
151
145
148
149
152
155
156
147
150
151
147
150
151
147
150
151
147
150
151
144
147
148
145
148
149
143
146
147
147
150
151
143
146
147
147
150
151
144
147
148
144
147
148
144
147
148
119
121
122
99
99
99
123
125
126
140
143
144
146
149
150
147
150
151
148
151
152
144
147
148
150
153
154
147
150
151
146
149
150
146
149
150
154
157
158
147
150
151
142
145
146
145
148
149
139
142
143
144
147
148
147
150
151
142
145
146
147
150
151
141
144
145
124
126
127
103
103
103
121
124
124
141
144
145
143
146
147
143
146
147
147
150
151
140
143
144
144
147
148
147
150
151
150
153
154
147
150
151
145
148
149
147
150
151
146
149
150
150
153
154
145
148
149
147
150
151
144
147
148
147
150
151
141
144
145
118
120
121
97
97
97
148
151
152
148
151
152
147
150
151
146
149
150
145
148
149
148
151
152
149
152
153
147
150
151
142
145
146
148
151
152
145
148
149
147
150
151
148
151
152
142
145
146
147
150
151
147
150
151
147
150
151
151
154
155
144
147
148
123
125
126
98
98
98
121
123
124
147
150
151
148
151
152
147
150
151
147
150
151
147
150
151
149
152
153
148
151
152
144
147
148
149
152
153
146
149
150
143
146
147
145
148
149
143
146
147
147
150
151
147
150
151
144
147
148
147
150
151
147
150
151
141
144
145
123
125
126
109
109
109
124
127
127
145
148
149
147
150
151
144
147
148
147
150
151
147
150
151
145
148
149
146
149
150
147
150
151
139
142
143
147
150
151
148
151
152
143
146
147
145
148
149
147
150
151
151
154
155
145
148
149
148
151
152
144
147
148
117
119
119
107
107
107
142
145
146
146
149
150
143
146
147
140
143
144
142
145
146
144
147
148
148
151
152
141
144
145
144
147
148
142
145
146
137
140
141
144
147
148
144
147
148
144
147
148
142
145
146
144
147
148
141
144
145
145
148
149
141
143
144
120
122
123
110
110
110
121
123
123
143
146
147
141
144
145
142
145
146
140
143
144
144
147
148
147
150
151
146
149
150
149
152
153
142
145
146
145
148
149
148
151
152
145
148
149
143
146
147
146
149
150
141
144
145
137
140
141
142
145
146
144
147
148
138
141
142
122
124
125
107
107
107
120
122
123
141
143
144
142
145
146
146
149
150
140
143
144
144
147
148
145
148
149
144
147
148
139
142
143
142
145
146
142
145
146
139
142
143
144
147
148
142
145
146
140
143
144
148
151
152
142
145
146
137
140
141
142
144
145
117
119
119
101
101
101
117
119
120
119
121
122
117
119
119
119
121
122
119
121
122
118
120
121
117
119
119
115
117
118
119
121
122
119
121
122
119
121
122
117
119
120
118
120
121
119
121
122
119
121
122
117
119
120
119
121
122
119
121
122
115
117
118
101
103
104
107
107
107
102
104
104
113
115
116
118
120
121
118
120
121
121
123
124
116
118
119
116
118
119
119
121
122
118
120
121
117
119
119
117
119
119
119
121
122
119
122
122
119
122
122
119
122
122
117
119
120
114
117
117
120
122
123
119
121
122
116
118
119
99
101
101
98
98
98
100
101
102
116
118
118
119
121
122
113
115
116
119
121
122
117
119
120
117
119
119
119
121
122
119
121
122
116
118
119
119
121
122
119
121
122
119
122
122
120
122
123
118
120
121
119
121
122
119
121
122
117
119
120
116
118
119
98
100
100
98
98
98
97
97
97
98
98
98
98
98
98
97
97
97
97
97
97
102
102
102
105
105
105
105
105
105
102
102
102
97
97
97
102
102
102
100
100
100
99
99
99
107
107
107
104
104
104
106
106
106
107
107
107
91
91
91
103
103
103
99
99
99
102
102
102
98
98
98
109
109
109
107
107
107
100
100
100
103
103
103
97
97
97
107
107
107
109
109
109
102
102
102
97
97
97
98
98
98
102
102
102
104
104
104
97
97
97
106
106
106
111
111
111
93
93
93
104
104
104
96
96
96
97
97
97
102
102
102
94
94
94
99
99
99
107
107
107
107
107
107
104
104
104
103
103
103
93
93
93
102
102
102
108
108
108
102
102
102
103
103
103
111
111
111
107
107
107
101
101
101
96
96
96
104
104
104
103
103
103
103
103
103
101
101
101
100
100
100
99
99
99
99
99
99
