P3
64 64
255
201
89
59
206
100
68
206
106
66
198
105
68
197
98
67
199
90
61
199
101
67
212
100
66
204
100
65
165
83
64
99
99
99
162
86
63
205
100
64
201
99
67
205
98
69
203
99
63
208
98
68
200
94
66
209
95
65
199
97
65
200
105
72
197
95
63
201
98
71
198
97
66
194
93
66
195
99
69
202
96
68
196
95
64
213
98
71
196
100
71
162
83
62
102
102
102
163
82
60
192
97
67
207
100
67
207
98
69
205
96
67
199
95
63
202
101
66
210
105
64
205
104
69
211
94
63
207
101
69
201
99
67
203
105
71
209
102
73
200
101
66
211
96
65
198
96
68
195
105
69
209
101
63
200
99
69
164
81
59
102
102
102
165
85
64
200
101
71
199
95
67
204
97
64
209
107
71
200
102
68
204
97
64
200
101
66
203
100
69
197
98
67
201
92
67
208
104
68
210
99
70
203
99
71
205
103
67
197
99
69
203
102
67
203
96
71
199
98
64
162
85
64
104
104
104
169
84
61
191
98
70
210
105
68
208
103
66
210
100
66
202
103
72
205
102
71
203
96
67
197
98
71
211
101
71
202
102
72
208
106
70
205
98
69
203
100
69
193
89
61
211
102
69
208
101
72
198
91
62
205
98
66
163
86
61
108
108
108
165
82
63
202
97
65
203
99
71
197
95
67
193
95
65
210
102
64
203
104
73
194
92
68
200
94
62
210
100
66
198
91
58
200
93
68
204
101
70
202
100
68
199
92
59
202
93
68
206
110
76
210
99
70
211
101
63
193
95
68
160
80
58
95
95
95
172
90
64
193
94
68
202
93
68
195
97
67
208
99
60
205
98
69
211
98
67
201
102
71
194
93
66
205
96
67
210
108
72
200
96
68
210
95
64
203
97
65
208
103
70
203
104
69
202
96
68
193
90
59
205
98
64
165
83
64
109
109
109
165
87
63
201
95
62
210
102
64
201
100
69
201
95
67
194
98
64
199
92
59
202
96
64
201
95
67
210
102
68
199
98
63
203
96
67
206
105
74
198
94
62
206
94
68
201
99
67
206
107
72
197
99
69
200
95
67
165
90
67
102
102
102
163
83
61
193
88
60
201
100
65
199
106
73
197
104
71
208
104
72
210
100
66
201
102
67
211
94
63
205
104
69
195
90
61
206
96
62
201
92
67
196
100
66
196
87
62
200
100
74
202
100
64
205
96
71
198
102
68
200
106
69
167
88
64
99
99
99
170
91
67
197
100
71
210
103
66
210
95
64
206
100
68
202
103
68
205
96
67
203
96
63
201
101
71
202
96
68
205
101
69
205
101
69
196
97
58
198
100
66
203
99
63
204
99
70
207
98
69
210
101
68
201
96
68
167
84
62
97
97
97
165
83
58
194
101
69
203
96
67
210
101
72
206
107
72
210
102
68
211
99
65
199
97
65
194
96
66
196
95
64
205
96
67
198
93
64
211
105
73
209
94
63
207
100
67
194
98
64
206
97
68
203
96
67
205
100
64
168
93
67
102
102
102
165
80
61
198
100
71
205
96
67
202
96
64
203
99
71
208
96
66
208
106
70
197
96
61
198
97
62
200
94
66
205
106
71
208
107
72
204
100
68
197
101
67
209
107
71
201
97
73
205
104
69
202
96
68
205
98
69
195
97
66
165
86
67
103
103
103
162
80
58
198
99
65
204
92
62
198
96
64
210
108
72
206
94
64
206
104
68
204
95
70
202
95
66
200
101
66
205
99
67
203
98
73
197
98
67
201
99
71
206
105
74
205
103
67
200
99
68
205
101
69
195
95
64
164
83
60
95
95
95
172
85
61
194
99
71
199
106
73
206
92
62
209
102
65
205
104
73
202
100
68
210
102
68
196
95
64
207
102
65
207
103
67
193
97
67
210
104
72
199
97
69
207
103
67
199
106
73
197
92
63
204
97
64
196
93
65
168
89
61
106
106
106
163
88
61
188
96
67
210
102
64
201
99
67
205
103
67
199
97
65
200
99
64
210
102
68
206
104
68
209
92
61
203
97
65
207
105
69
206
99
62
200
94
66
210
95
64
197
99
69
206
100
68
199
100
73
204
101
70
204
101
71
167
86
65
105
105
105
165
86
66
192
103
72
202
100
72
194
105
70
199
95
59
205
105
75
208
104
72
197
95
63
202
99
72
206
97
68
199
98
68
193
95
68
205
100
64
207
103
68
200
95
67
203
99
68
203
98
60
200
98
74
188
99
67
159
81
60
100
100
100
159
85
59
197
90
65
205
97
68
195
98
70
198
99
65
196
90
61
201
98
68
199
100
66
189
98
66
203
99
68
190
89
61
205
104
70
192
91
63
200
97
69
198
100
67
196
103
67
200
98
71
202
100
65
190
99
71
158
82
58
107
107
107
162
86
63
193
97
68
200
97
69
196
96
69
198
102
69
203
95
66
200
99
69
197
91
62
192
94
67
201
100
73
205
99
68
202
98
67
198
102
69
188
96
67
188
93
67
194
94
63
205
101
66
201
109
73
198
93
61
186
91
69
158
85
60
102
102
102
160
77
55
193
99
66
200
102
69
198
100
67
195
90
66
194
97
71
198
98
69
194
96
65
205
100
68
197
96
60
160
90
62
156
86
61
172
90
62
172
84
64
165
90
67
162
79
57
164
81
59
165
82
63
160
82
62
139
75
58
97
97
97
143
78
60
160
83
56
162
82
57
162
85
64
167
89
62
171
86
63
171
89
60
169
86
64
165
89
66
171
89
58
157
80
56
169
90
59
165
86
62
165
90
60
169
84
61
166
84
58
159
83
56
168
85
62
158
85
60
138
79
59
109
109
109
138
76
57
157
83
60
165
83
60
159
83
60
161
84
57
162
85
60
162
89
64
168
85
63
168
91
64
163
83
62
160
85
63
165
86
62
168
89
64
162
81
56
170
87
68
162
80
58
161
84
60
162
83
58
168
87
63
158
80
60
139
79
61
103
103
103
136
73
57
162
88
63
167
90
64
164
89
64
165
84
63
170
91
67
165
87
63
172
86
60
164
87
60
173
86
65
106
106
106
104
104
104
100
100
100
99
99
99
99
99
99
101
101
101
107
107
107
100
100
100
91
91
91
107
107
107
102
102
102
96
96
96
95
95
95
101
101
101
99
99
99
95
95
95
97
97
97
101
101
101
104
104
104
106
106
106
93
93
93
108
108
108
95
95
95
110
110
110
99
99
99
102
102
102
110
110
110
94
94
94
97
97
97
94
94
94
97
97
97
104
104
104
105
105
105
99
99
99
105
105
105
104
104
104
101
101
101
104
104
104
95
95
95
93
93
93
99
99
99
104
104
104
107
107
107
100
100
100
102
102
102
108
108
108
103
103
103
109
109
109
103
103
103
104
104
104
104
104
104
104
104
104
109
109
109
91
91
91
98
98
98
105
105
105
99
99
99
105
105
105
97
97
97
104
104
104
102
102
102
101
101
101
107
107
107
98
98
98
107
107
107
137
73
57
163
90
62
162
86
66
162
85
61
171
93
63
162
88
65
166
91
64
167
88
60
163
85
58
161
83
59
165
85
63
169
89
61
163
84
60
167
90
64
164
86
65
164
90
65
165
84
60
166
86
61
161
82
58
137
75
58
100
100
100
132
75
58
164
85
61
157
83
57
166
86
64
162
87
61
169
86
64
169
86
57
165
89
62
156
85
63
164
83
64
163
86
62
167
84
62
163
83
61
173
91
62
164
86
65
170
89
60
169
86
60
163
86
61
159
86
60
132
73
55
105
105
105
137
76
60
165
82
60
159
88
63
167
90
64
168
89
61
160
86
60
172
84
57
171
86
63
164
83
62
162
86
62
166
85
63
164
89
59
167
86
64
168
87
62
166
86
64
163
86
60
168
87
62
169
92
64
160
85
58
169
92
64
163
86
61
108
108
108
159
84
57
185
97
70
200
90
61
197
97
73
200
99
69
199
96
64
205
97
68
196
103
67
201
93
68
193
94
68
200
97
69
202
96
63
196
102
71
197
98
71
196
103
67
202
94
65
196
96
72
203
99
68
193
91
61
162
85
64
104
104
104
166
87
59
189
97
68
196
98
65
194
92
65
201
95
62
205
98
64
195
98
64
196
104
69
188
96
59
201
101
71
195
106
71
198
95
63
194
98
69
196
98
69
195
92
64
196
101
69
200
98
67
196
91
63
192
89
62
160
87
65
98
98
98
162
82
60
187
93
68
201
98
68
191
86
62
197
95
68
199
100
70
200
97
69
190
92
61
194
91
59
193
92
64
188
91
65
188
93
67
201
102
68
194
92
65
205
95
70
189
95
66
195
98
71
196
102
71
202
98
63
201
93
64
195
92
64
91
91
91
165
88
65
188
94
65
202
93
68
211
104
71
206
99
66
195
100
67
210
95
64
206
92
62
209
90
63
201
92
63
203
94
69
197
98
67
210
92
64
210
100
66
206
100
68
207
105
69
199
93
61
202
100
68
197
100
62
165
87
66
109
109
109
164
89
64
199
101
68
201
97
73
199
97
65
207
100
67
199
95
67
196
89
60
205
104
73
210
98
64
206
101
64
200
93
64
202
109
72
209
92
61
202
104
70
203
99
63
205
104
69
196
97
62
208
98
68
206
105
71
159
79
57
108
108
108
159
83
56
191
90
62
207
95
65
208
106
70
201
97
69
205
95
65
210
103
66
211
104
67
207
93
63
208
94
64
205
107
73
198
99
72
203
105
71
204
99
70
198
97
66
204
105
70
203
97
65
205
103
67
202
93
60
203
99
67
199
97
73
100
100
100
155
86
60
199
98
66
202
95
66
199
106
73
207
98
69
204
94
64
202
91
62
198
97
66
208
94
64
203
104
73
202
98
66
200
94
66
208
103
70
196
101
68
202
95
62
208
101
68
202
96
68
200
104
74
203
95
66
168
85
59
98
98
98
165
88
67
197
89
60
198
102
68
210
111
76
208
99
70
198
99
68
208
104
68
203
97
69
208
102
70
202
93
64
203
96
67
208
99
70
203
104
65
205
101
69
196
95
60
202
95
62
202
100
68
203
99
71
202
103
69
168
79
59
106
106
106
160
83
58
197
95
64
207
105
69
200
93
64
202
102
72
210
102
68
210
105
68
196
95
64
198
92
60
201
103
69
196
101
68
195
102
69
193
92
61
205
100
67
205
110
73
209
102
65
199
92
59
199
93
65
202
96
68
203
97
65
201
98
63
101
101
101
154
75
55
198
101
67
197
95
63
201
98
71
209
102
65
206
99
66
213
98
71
200
99
68
196
98
64
201
99
67
205
92
61
200
97
74
202
101
66
204
102
66
202
95
66
205
103
67
208
96
66
204
99
70
193
95
64
167
90
64
97
97
97
161
84
60
188
96
59
199
93
65
207
103
67
207
103
67
204
95
70
199
103
69
211
107
71
204
105
70
200
102
72
197
99
69
204
105
74
198
94
62
209
95
65
202
98
70
198
91
66
200
93
64
209
95
65
203
101
66
167
86
57
100
100
100
161
86
64
196
98
67
203
104
69
210
103
66
200
96
64
198
97
62
204
97
68
198
94
66
211
94
63
200
96
68
201
94
69
204
98
70
207
106
71
204
101
70
205
110
73
212
101
62
201
94
65
206
97
68
207
106
67
199
97
65
208
96
66
104
104
104
156
87
66
195
102
70
201
106
73
193
100
68
203
99
68
189
97
64
202
103
69
200
98
67
192
98
72
200
98
67
195
98
64
193
93
66
198
96
65
205
97
68
198
100
67
200
98
71
202
97
69
194
97
71
196
94
66
160
80
62
99
99
99
159
85
61
188
87
60
192
95
69
196
93
65
188
94
65
192
94
63
195
99
66
194
98
69
199
103
70
200
95
67
197
98
68
200
101
67
198
90
61
195
95
71
192
97
67
193
87
58
196
96
65
201
93
64
188
103
73
159
81
57
102
102
102
159
81
60
183
95
68
189
97
64
200
99
69
192
100
72
197
95
68
197
99
66
196
96
69
195
101
70
203
100
70
198
105
72
194
91
67
198
96
69
196
100
67
198
98
71
197
95
68
201
106
73
193
92
60
190
92
61
202
99
69
193
90
62
99
99
99
131
75
58
159
83
60
164
91
65
165
86
62
162
81
63
162
85
64
164
89
67
169
87
61
168
92
65
160
81
60
165
86
64
161
83
62
167
89
65
167
89
65
165
87
63
171
89
63
171
91
63
172
89
64
161
87
61
137
80
58
102
102
102
134
74
55
155
79
61
159
89
64
161
88
65
160
81
57
171
91
63
168
87
62
162
89
63
159
87
62
166
88
60
161
80
62
161
83
62
165
86
59
172
86
59
166
83
60
171
89
60
163
82
60
167
90
64
159
88
63
136
76
56
100
100
100
138
75
56
160
82
63
170
84
60
165
89
62
171
92
67
162
79
57
170
86
60
169
83
63
161
86
59
165
90
68
160
81
57
164
83
59
166
86
61
166
87
60
167
84
62
168
86
64
165
89
62
167
92
65
164
87
64
168
88
64
164
87
60
100
100
100
100
100
100
100
100
100
103
103
103
102
102
102
97
97
97
98
98
98
96
96
96
108
108
108
107
107
107
105
105
105
104
104
104
102
102
102
106
106
106
99
99
99
97
97
97
94
94
94
101
101
101
101
101
101
104
104
104
105
105
105
98
98
98
107
107
107
105
105
105
106
106
106
96
96
96
95
95
95
102
102
102
107
107
107
101
101
101
98
98
98
110
110
110
94
94
94
100
100
100
108
108
108
101
101
101
101
101
101
105
105
105
101
101
101
95
95
95
96
96
96
100
100
100
98
98
98
101
101
101
103
103
103
94
94
94
104
104
104
104
104
104
100
100
100
106
106
106
92
92
92
100
100
100
102
102
102
106
106
106
92
92
92
95
95
95
105
105
105
104
104
104
100
100
100
105
105
105
100
100
100
104
104
104
99
99
99
98
98
98
162
79
57
165
83
61
162
89
67
162
82
57
160
86
63
167
88
64
163
86
61
165
89
62
165
90
63
142
78
58
104
104
104
135
77
59
161
88
58
165
84
66
162
90
65
165
85
57
168
89
62
166
83
60
165
89
65
162
88
65
165
90
64
163
88
62
169
93
67
162
85
60
162
90
65
164
87
60
167
87
62
169
88
63
167
87
65
156
82
58
141
80
61
104
104
104
136
76
57
158
85
60
168
86
61
165
82
57
161
83
59
168
85
62
171
86
60
165
92
67
167
89
62
159
86
64
158
77
54
160
88
62
159
78
57
165
87
64
163
80
61
164
83
62
162
82
60
166
85
60
169
92
69
157
80
56
138
75
56
93
93
93
134
70
55
160
82
65
172
89
66
164
85
60
164
86
62
168
92
65
166
85
63
163
86
60
161
83
59
168
89
66
199
106
68
199
93
64
198
98
63
197
92
68
205
98
66
192
94
63
200
97
69
198
90
65
201
91
62
158
84
64
103
103
103
162
83
62
190
98
65
206
102
67
201
95
62
200
102
69
201
98
73
198
98
69
201
91
62
192
97
67
196
92
59
192
95
69
197
90
62
198
97
72
198
93
65
197
99
66
200
101
67
200
97
69
199
98
64
193
96
70
162
88
63
95
95
95
158
85
66
191
87
63
194
91
63
196
93
61
191
96
70
190
96
67
195
99
66
193
100
68
188
96
67
198
96
65
198
102
69
201
106
73
199
104
68
196
100
71
197
101
68
205
98
66
201
93
64
203
99
68
204
95
65
195
100
70
167
93
66
103
103
103
156
86
61
197
91
64
196
91
63
196
88
59
195
93
62
191
97
64
193
103
71
202
99
69
194
99
71
195
99
66
202
101
66
204
102
70
198
105
72
212
104
70
202
100
68
193
92
61
200
101
66
206
94
64
198
95
63
162
85
60
105
105
105
168
89
66
198
91
63
198
102
72
197
99
69
208
107
72
209
94
63
203
102
67
196
94
62
210
105
68
201
97
65
197
101
67
196
95
64
202
101
66
199
93
65
201
94
57
195
88
59
204
94
64
206
100
68
199
96
64
162
88
65
99
99
99
162
89
66
195
98
73
198
96
64
204
100
64
201
102
67
200
98
66
203
102
67
197
91
59
204
98
70
209
102
65
211
98
63
205
100
71
205
104
69
202
102
72
200
102
72
195
93
69
208
96
66
209
99
65
208
94
68
203
97
68
166
87
63
105
105
105
169
90
63
201
93
64
203
101
65
206
94
64
200
93
60
205
106
71
196
94
70
206
103
72
204
105
70
204
105
70
196
95
60
203
102
67
199
92
63
206
100
68
201
95
63
210
103
74
204
102
70
202
95
66
203
97
68
167
88
64
94
94
94
168
82
59
197
98
71
199
97
65
206
100
68
201
95
67
200
94
66
213
100
69
203
96
67
200
103
70
203
99
71
203
100
69
202
95
62
201
95
63
200
90
60
197
98
67
206
100
68
199
100
69
208
101
64
197
95
68
162
87
61
107
107
107
162
89
63
201
101
71
203
102
67
200
88
58
208
98
64
210
100
66
205
101
69
208
107
68
209
95
65
205
105
71
209
99
65
200
98
66
200
103
74
202
95
62
198
94
58
203
102
71
200
94
74
198
93
64
207
103
71
207
101
65
165
86
61
100
100
100
162
77
57
202
98
67
211
99
69
203
100
69
211
103
65
211
94
63
202
101
66
207
109
75
205
102
71
205
95
65
206
96
62
204
102
70
201
96
59
210
107
66
210
100
66
203
102
71
203
102
67
200
102
72
199
90
64
162
81
62
107
107
107
160
81
60
196
96
65
200
98
66
197
104
67
201
94
61
201
97
65
207
100
75
205
95
69
206
100
68
208
104
72
200
88
58
206
100
68
204
92
62
204
100
64
202
103
68
202
95
62
206
98
64
204
103
68
188
94
65
168
86
61
101
101
101
171
91
63
203
107
70
201
98
71
199
93
65
205
100
67
205
101
65
205
100
71
203
100
69
204
99
62
210
91
64
204
103
64
203
94
65
209
96
65
195
94
67
203
94
65
202
93
64
210
100
62
208
99
70
202
92
62
197
98
71
164
85
60
105
105
105
168
84
61
196
91
59
206
101
64
197
98
63
202
103
68
201
103
69
198
91
66
211
101
63
203
96
67
195
99
61
196
98
71
197
104
71
194
105
71
198
96
69
192
92
65
196
98
65
200
95
71
205
95
66
193
94
64
157
85
63
97
97
97
156
79
56
194
102
69
198
102
72
198
90
65
201
96
64
195
103
71
196
93
69
198
93
65
196
93
69
196
97
71
200
98
67
198
100
71
191
91
64
205
98
66
192
97
63
198
95
67
195
100
71
199
98
62
192
97
67
162
82
60
106
106
106
162
88
64
196
102
68
187
87
60
207
102
66
197
101
71
195
99
66
195
97
66
198
96
65
191
97
71
204
100
65
197
93
60
195
98
70
198
98
67
195
103
71
199
98
64
200
99
69
195
90
66
200
102
69
204
101
71
194
98
69
160
84
60
109
109
109
161
82
58
187
91
66
191
92
66
203
93
68
203
98
66
199
89
64
197
99
66
205
104
73
198
96
65
206
99
67
168
92
65
168
91
64
164
80
57
163
85
64
172
92
65
167
88
60
169
89
64
162
84
66
162
86
63
139
80
60
98
98
98
134
76
59
161
87
64
166
83
61
162
83
61
166
87
60
167
84
65
162
87
60
168
89
68
167
88
64
171
87
62
164
84
62
168
83
61
159
86
60
169
84
61
167
89
62
168
83
61
164
89
62
167
86
62
160
80
56
138
73
55
96
96
96
142
82
58
161
88
58
164
86
62
172
86
63
158
82
59
165
80
60
167
90
64
171
91
63
169
95
66
165
83
58
170
88
59
162
83
56
162
85
64
170
89
60
165
88
61
169
86
64
165
83
61
162
83
62
168
87
63
161
81
60
135
71
54
98
98
98
143
78
56
165
84
62
169
87
61
165
83
57
165
85
57
171
90
66
169
82
61
168
91
64
161
85
62
168
87
62
102
102
102
99
99
99
105
105
105
96
96
96
97
97
97
105
105
105
96
96
96
98
98
98
104
104
104
104
104
104
96
96
96
102
102
102
99
99
99
100
100
100
105
105
105
98
98
98
102
102
102
103
103
103
103
103
103
100
100
100
109
109
109
91
91
91
102
102
102
104
104
104
106
106
106
97
97
97
103
103
103
111
111
111
109
109
109
104
104
104
99
99
99
106
106
106
99
99
99
96
96
96
108
108
108
93
93
93
108
108
108
108
108
108
101
101
101
102
102
102
102
102
102
98
98
98
106
106
106
95
95
95
100
100
100
105
105
105
103
103
103
105
105
105
98
98
98
101
101
101
92
92
92
102
102
102
99
99
99
96
96
96
98
98
98
97
97
97
104
104
104
101
101
101
101
101
101
100
100
100
108
108
108
98
98
98
101
101
101
99
99
99
163
80
58
165
80
57
166
88
64
161
86
62
172
86
63
167
91
65
167
81
57
162
83
59
168
89
61
156
82
56
161
84
57
162
85
65
161
86
62
172
84
64
163
86
61
168
93
67
165
82
59
165
87
64
171
89
60
159
83
63
140
76
53
98
98
98
136
83
62
160
80
62
165
86
66
164
89
65
164
89
65
166
86
58
168
85
60
169
86
63
164
89
63
161
81
62
165
89
62
162
86
62
163
88
61
162
80
61
162
91
66
164
84
56
171
89
61
172
89
66
161
85
61
135
75
56
100
100
100
133
78
58
157
87
62
170
91
67
171
83
60
168
87
62
171
89
61
162
79
57
164
83
57
164
85
64
164
81
59
164
86
65
162
85
61
170
86
57
164
83
62
162
87
64
165
79
57
166
89
63
164
91
62
159
79
58
137
77
56
103
103
103
203
101
66
198
100
67
205
101
66
201
106
73
195
98
70
194
91
63
197
101
68
199
98
68
205
103
68
203
99
64
204
98
71
189
94
68
201
100
66
206
104
69
200
97
69
206
99
67
191
99
68
203
98
66
203
99
68
187
89
59
161
81
63
99
99
99
159
88
66
194
100
67
201
98
68
203
91
60
198
100
67
197
101
68
194
105
74
205
106
68
199
95
62
203
95
66
201
99
64
196
93
65
199
99
70
195
92
64
198
96
65
201
98
66
199
93
64
200
98
71
198
100
61
162
86
60
102
102
102
155
87
63
184
91
64
204
98
71
198
95
67
192
97
71
201
101
71
191
97
64
203
101
66
193
96
62
197
89
60
200
97
69
200
102
69
197
98
71
196
91
59
199
90
64
194
102
71
205
102
71
199
93
64
191
97
64
150
77
55
99
99
99
202
103
68
199
98
63
205
104
69
206
102
66
197
101
67
203
102
67
203
105
71
209
96
65
205
100
71
194
96
66
193
97
63
205
101
69
201
95
67
201
94
65
205
99
71
207
103
67
200
91
66
203
96
67
196
98
72
197
94
66
164
88
65
108
108
108
168
83
63
200
101
67
208
98
68
201
104
71
208
94
68
194
101
68
206
97
68
202
92
62
203
96
67
203
97
65
201
94
65
203
105
71
214
107
70
203
102
67
198
88
58
201
97
69
210
108
72
199
98
63
202
98
67
160
86
60
97
97
97
167
87
62
193
88
60
200
102
72
201
101
71
205
99
71
210
95
68
203
104
69
203
97
69
205
103
67
203
100
69
202
106
68
195
96
69
194
102
70
203
102
67
203
101
65
198
99
68
210
98
68
205
104
69
202
97
69
159
78
59
104
104
104
206
99
66
201
99
71
199
98
63
203
94
65
205
103
67
203
99
63
196
95
64
201
100
69
209
102
65
193
92
61
205
105
71
211
106
69
198
100
70
205
107
69
200
94
66
198
99
68
202
99
72
198
102
72
205
99
71
205
106
71
162
85
58
103
103
103
172
91
63
192
105
71
199
97
69
203
96
67
203
107
73
203
101
65
204
105
70
210
101
72
213
93
65
204
99
62
201
97
65
199
92
59
204
103
68
200
94
62
208
103
70
202
102
72
203
97
65
195
105
69
193
98
70
161
86
62
97
97
97
171
86
63
198
98
69
203
97
65
206
99
66
199
106
69
207
103
67
197
98
71
195
96
69
208
101
72
208
107
68
197
101
67
210
102
64
206
99
62
193
91
67
205
107
73
205
97
71
200
94
66
200
96
64
190
96
71
164
85
60
105
105
105
201
103
69
202
98
66
206
100
68
202
93
68
207
106
75
208
89
62
201
103
69
203
104
69
205
98
69
205
95
65
199
101
67
210
103
66
194
99
70
206
100
68
196
91
62
213
98
67
207
102
65
212
104
66
212
105
72
194
96
72
165
89
63
96
96
96
167
86
62
196
98
71
205
101
69
203
97
65
200
98
66
199
103
69
204
97
68
195
91
67
205
93
67
197
102
73
196
104
72
198
97
62
202
96
68
211
99
69
209
107
71
208
98
64
211
99
65
202
90
64
192
98
69
165
89
66
101
101
101
166
86
64
197
100
71
205
101
69
210
108
72
203
91
65
205
96
67
202
95
66
197
98
63
203
104
69
200
101
66
206
91
64
206
92
66
207
97
63
205
101
69
200
105
72
208
106
70
194
99
66
203
104
69
199
94
70
164
86
61
97
97
97
196
102
71
196
101
69
195
105
73
200
101
67
191
96
70
201
99
64
197
104
71
192
94
63
192
89
61
200
97
69
191
96
62
196
95
59
198
102
72
192
102
74
196
103
67
201
98
68
198
98
63
199
98
68
200
104
71
193
91
64
162
88
64
95
95
95
158
76
57
196
90
66
199
94
70
194
92
61
197
100
71
200
95
63
207
93
62
194
101
69
197
90
62
193
92
64
189
98
66
205
106
71
205
98
64
204
100
65
193
96
66
200
95
63
196
96
65
205
97
68
191
94
61
156
79
58
108
108
108
164
82
61
197
90
62
205
103
68
207
101
65
192
105
71
196
98
65
196
96
69
199
103
70
195
92
64
196
101
72
202
96
67
203
95
62
204
96
63
200
99
69
197
98
68
197
101
68
204
98
65
205
97
68
198
103
70
155
84
61
99
99
99
168
89
65
162
82
60
165
86
61
168
86
58
162
82
57
168
83
60
167
89
65
165
84
65
168
87
63
168
85
59
161
85
62
163
85
58
171
86
63
162
79
57
167
84
62
167
84
62
169
90
66
162
79
57
161
86
60
167
90
64
140
78
56
98
98
98
139
76
57
161
88
66
162
79
57
165
84
59
167
86
65
163
86
61
165
88
61
162
87
60
168
87
62
161
84
60
164
88
62
158
81
57
161
84
64
166
86
64
168
86
61
160
83
60
160
79
57
162
85
64
162
84
63
143
78
58
103
103
103
139
79
59
164
85
61
171
86
60
162
82
60
160
77
58
164
89
67
162
83
61
169
92
64
165
89
62
169
85
62
160
89
65
163
86
62
169
95
66
165
91
65
165
86
59
162
86
63
167
92
65
164
86
62
156
85
60
135
76
58
102
102
102
98
98
98
94
94
94
92
92
92
102
102
102
106
106
106
102
102
102
110
110
110
108
108
108
103
103
103
99
99
99
104
104
104
99
99
99
96
96
96
103
103
103
99
99
99
99
99
99
107
107
107
100
100
100
101
101
101
111
111
111
104
104
104
106
106
106
100
100
100
102
102
102
92
92
92
99
99
99
98
98
98
104
104
104
94
94
94
104
104
104
96
96
96
101
101
101
104
104
104
107
107
107
110
110
110
98
98
98
101
101
101
104
104
104
103
103
103
102
102
102
107
107
107
100
100
100
107
107
107
95
95
95
98
98
98
94
94
94
99
99
99
93
93
93
95
95
95
104
104
104
99
99
99
92
92
92
106
106
106
101
101
101
101
101
101
104
104
104
100
100
100
97
97
97
108
108
108
106
106
106
106
106
106
104
104
104
95
95
95
103
103
103
166
89
67
157
80
60
159
79
57
170
89
60
169
82
58
166
86
64
171
84
61
167
88
64
164
85
61
140
79
58
109
109
109
140
77
58
161
87
64
159
85
65
165
86
62
170
84
57
169
87
61
164
83
62
168
84
62
167
88
64
168
81
58
164
83
62
168
89
61
165
86
59
172
92
64
168
84
58
167
86
64
166
81
58
168
85
62
165
87
63
163
85
62
135
72
55
104
104
104
135
78
58
156
82
61
171
86
63
169
84
61
167
89
65
160
79
55
167
86
62
165
88
64
165
80
58
158
89
62
166
83
61
160
80
58
161
84
64
159
86
63
165
87
63
162
79
60
168
84
62
165
79
57
164
88
61
134
72
55
103
103
103
133
75
57
161
89
64
168
92
65
170
89
68
164
89
64
167
83
60
167
86
64
170
95
68
159
83
56
166
87
62
201
96
64
194
98
69
206
99
67
191
101
70
191
96
66
200
102
72
196
100
67
194
97
71
184
93
65
165
89
66
108
108
108
166
89
62
188
96
71
206
101
65
194
94
63
192
94
63
201
97
60
202
100
69
191
94
60
202
100
65
195
103
71
196
98
69
201
94
66
200
102
72
196
103
67
193
93
62
194
99
71
196
91
63
194
101
69
197
96
60
189
95
63
161
83
60
106
106
106
165
88
62
200
91
63
194
94
63
191
93
62
196
90
65
197
99
66
200
97
65
201
94
66
193
96
66
197
99
66
200
99
69
187
87
60
207
105
66
192
92
65
201
102
68
201
91
62
188
97
65
198
99
65
196
100
70
163
81
62
108
108
108
160
84
60
196
97
74
204
95
65
199
97
66
195
92
64
194
92
65
195
101
70
198
98
69
196
94
67
202
102
67
201
92
67
196
95
60
210
111
76
202
95
62
196
93
66
204
92
62
203
96
71
205
105
65
198
93
65
170
86
60
101
101
101
167
87
62
193
93
62
206
96
66
204
105
70
201
97
65
208
104
68
206
99
62
201
92
67
199
97
73
199
100
73
202
98
62
207
105
69
206
97
68
206
96
62
210
102
64
206
101
64
201
94
65
199
106
73
213
106
69
200
97
69
169
83
63
98
98
98
165
89
66
199
97
70
205
96
67
199
100
69
210
98
68
204
105
70
200
101
66
206
106
66
200
96
68
205
104
73
200
94
62
208
94
68
207
105
69
205
103
67
202
103
68
202
95
66
203
107
73
194
99
70
195
93
66
162
82
60
102
102
102
162
86
63
190
85
61
193
89
65
198
93
64
202
101
70
204
102
70
202
106
72
196
91
62
205
98
69
207
93
67
203
97
69
209
103
71
201
94
65
199
103
69
202
103
68
208
103
70
212
100
66
212
94
62
204
103
72
165
92
67
97
97
97
164
83
60
195
95
64
196
100
70
208
104
68
203
102
67
205
101
69
200
100
70
202
98
66
206
100
68
204
98
70
205
101
69
205
104
69
198
94
70
206
100
68
205
98
69
206
92
66
205
106
71
210
99
70
201
95
67
196
93
65
165
84
62
96
96
96
169
80
60
200
102
72
203
96
67
205
100
67
201
103
73
205
102
71
207
93
63
200
96
64
209
103
71
204
95
70
205
101
69
199
100
65
203
100
69
201
96
59
196
103
70
209
105
73
199
90
61
202
97
60
193
103
71
162
79
57
104
104
104
164
83
60
200
100
71
203
97
65
204
102
70
209
102
65
208
92
60
204
101
70
201
99
67
210
99
70
201
98
71
201
102
67
205
101
69
208
94
64
196
97
62
196
89
60
205
98
69
205
95
65
206
106
66
201
100
66
167
90
67
96
96
96
158
88
67
197
90
62
207
103
67
209
96
61
201
101
71
198
100
66
205
103
67
212
102
72
209
90
63
200
99
64
201
94
65
193
101
73
206
100
68
198
99
64
207
98
65
200
91
66
205
103
71
203
99
63
194
98
64
200
103
71
160
80
58
103
103
103
169
90
66
190
90
59
211
97
71
201
94
65
207
100
67
207
100
67
210
99
64
209
99
65
207
101
69
205
101
69
204
100
68
204
99
70
205
101
69
207
103
67
206
101
64
210
98
68
210
108
72
208
101
68
194
97
63
165
92
64
100
100
100
165
82
59
206
95
65
203
105
71
205
106
71
203
96
67
210
105
68
202
104
70
202
100
68
207
103
67
201
99
71
205
100
64
200
99
65
202
91
65
193
96
70
203
97
64
198
100
67
203
100
70
191
98
70
201
102
75
167
88
60
102
102
102
164
88
61
195
98
68
194
96
65
188
92
63
201
91
62
195
90
66
202
98
67
205
103
68
198
98
67
200
99
69
199
91
62
202
100
65
193
93
66
201
102
68
199
99
70
198
100
67
200
95
67
204
98
65
204
103
72
193
98
64
167
93
67
96
96
96
159
89
65
197
103
69
207
103
68
196
103
67
195
95
68
191
97
64
201
98
68
195
96
73
201
96
71
202
97
69
195
92
64
202
98
74
197
97
70
200
99
69
203
101
66
203
101
70
195
92
64
201
101
71
191
99
66
160
80
56
93
93
93
161
86
60
189
94
68
192
98
69
197
98
71
195
93
66
195
95
64
199
94
66
194
102
71
195
95
68
201
98
68
169
86
60
172
93
66
167
86
64
163
86
60
169
88
66
163
86
61
172
80
59
165
89
66
163
90
60
134
76
58
102
102
102
142
76
56
158
85
60
167
86
65
168
86
64
169
86
60
165
86
59
165
87
64
168
85
63
161
84
63
164
87
64
164
86
62
165
80
57
165
85
60
168
83
61
172
85
61
168
84
61
169
89
64
163
80
61
162
87
64
161
83
66
138
76
55
96
96
96
138
77
59
155
81
61
161
81
59
165
83
58
168
88
64
165
82
59
167
86
65
162
86
59
168
85
62
165
83
61
168
87
62
165
86
59
165
88
61
171
86
64
165
86
62
165
89
62
169
89
64
172
82
61
156
82
58
139
76
57
96
96
96
133
76
59
159
88
60
164
86
59
160
86
63
162
89
64
174
84
57
165
85
57
167
88
64
168
83
60
162
92
64
100
100
100
91
91
91
95
95
95
100
100
100
103
103
103
98
98
98
109
109
109
103
103
103
103
103
103
104
104
104
98
98
98
100
100
100
94
94
94
97
97
97
102
102
102
97
97
97
95
95
95
102
102
102
111
111
111
98
98
98
101
101
101
93
93
93
101
101
101
100
100
100
95
95
95
109
109
109
103
103
103
96
96
96
108
108
108
105
105
105
96
96
96
101
101
101
98
98
98
93
93
93
104
104
104
96
96
96
104
104
104
97
97
97
96
96
96
107
107
107
98
98
98
101
101
101
102
102
102
98
98
98
101
101
101
101
101
101
103
103
103
98
98
98
102
102
102
108
108
108
96
96
96
102
102
102
98
98
98
98
98
98
108
108
108
108
108
108
98
98
98
99
99
99
99
99
99
103
103
103
102
102
102
101
101
101
99
99
99
100
100
100
168
92
61
164
85
60
162
91
66
165
89
65
167
83
64
162
83
63
168
90
63
167
84
62
166
86
64
163
86
65
161
80
56
163
88
65
166
86
64
164
83
60
163
86
61
166
87
60
160
88
63
168
86
64
158
82
64
138
75
56
105
105
105
142
75
56
160
80
59
172
89
63
159
84
64
158
87
62
165
91
65
168
86
64
166
85
60
165
87
63
165
89
62
156
79
59
159
82
61
162
86
62
168
86
64
167
91
65
162
89
63
169
80
60
162
86
66
164
91
62
165
82
60
136
74
58
98
98
98
136
78
62
158
79
55
160
87
61
166
86
61
160
80
58
174
89
63
159
88
63
168
85
59
159
86
60
169
90
62
161
90
62
168
86
58
167
88
64
164
89
62
159
86
60
161
90
65
169
89
61
171
89
64
164
88
67
130
75
56
103
103
103
197
101
68
194
94
63
206
101
69
201
98
68
196
98
69
198
100
67
195
95
64
201
104
66
204
93
63
193
94
68
194
99
67
200
95
67
197
98
71
205
98
64
198
96
69
202
100
65
204
101
61
200
97
69
195
97
67
154
78
58
109
109
109
167
84
61
193
91
64
205
98
70
192
97
67
198
102
65
197
96
60
200
102
69
195
92
64
197
98
68
197
97
66
205
98
64
200
95
67
193
95
60
199
99
70
198
96
65
194
98
69
202
96
63
200
101
67
200
110
74
191
90
66
160
88
63
107
107
107
162
82
61
192
89
65
196
97
63
200
99
69
202
92
63
206
98
69
200
97
61
206
99
67
203
93
68
199
96
64
192
94
63
195
98
64
200
101
67
197
101
68
207
102
70
197
99
66
201
104
66
205
95
66
199
95
67
156
77
59
109
109
109
210
108
72
194
90
66
200
99
64
203
102
67
206
92
66
204
100
64
198
105
72
203
104
69
205
101
65
205
98
69
202
106
72
200
98
66
205
103
67
207
105
69
204
100
64
201
94
65
197
104
71
200
106
74
197
101
68
167
83
60
104
104
104
169
87
61
198
98
69
199
89
59
201
91
61
203
94
65
205
106
67
203
99
67
204
105
70
213
108
75
201
100
65
198
96
60
199
95
59
200
88
58
205
103
67
201
103
69
212
105
72
198
100
66
204
105
70
211
101
63
198
95
67
163
86
60
103
103
103
167
89
68
200
97
61
198
100
70
199
98
63
204
95
70
200
101
74
203
100
69
201
103
69
205
99
71
205
104
69
203
96
63
213
98
67
205
101
69
197
101
67
207
97
67
202
93
60
207
102
65
197
98
63
200
97
69
163
82
60
101
101
101
202
104
70
211
101
63
194
91
64
205
101
69
202
97
60
197
99
73
207
101
69
203
96
63
208
100
66
207
97
63
203
104
73
200
91
66
205
103
67
203
94
69
210
103
66
199
101
71
210
103
66
213
101
67
197
98
71
167
88
64
100
100
100
168
86
64
195
101
70
199
95
67
205
103
67
196
95
68
202
92
62
205
100
67
194
90
66
199
104
71
205
101
69
206
100
72
213
101
67
201
99
67
202
100
64
204
103
68
205
100
67
201
99
71
212
108
72
202
96
68
197
98
71
165
79
57
99
99
99
168
87
63
200
99
69
206
100
72
205
104
69
206
97
68
204
97
68
203
104
69
210
104
72
197
101
67
200
99
64
206
100
68
199
92
59
203
94
65
204
102
70
201
99
67
200
94
66
210
99
64
196
98
64
198
90
61
156
86
64
99
99
99
207
93
67
197
99
69
206
102
74
202
93
68
205
102
71
200
104
66
203
94
69
201
89
59
196
94
62
207
93
67
200
98
66
204
98
70
206
107
68
213
106
69
206
107
68
206
99
66
205
101
69
206
99
66
197
101
68
165
84
60
94
94
94
166
86
64
197
89
60
198
99
72
202
106
72
205
96
67
204
99
70
200
102
68
205
93
63
205
105
71
205
98
69
201
105
71
211
96
61
205
100
71
212
100
66
200
99
64
200
99
68
206
98
64
210
99
64
209
105
73
205
103
68
165
88
61
91
91
91
165
85
64
203
88
62
205
100
71
209
102
73
204
103
68
207
103
71
203
92
67
207
97
63
205
98
69
200
99
64
211
101
67
195
96
61
211
99
69
199
93
65
201
99
67
197
101
67
209
102
73
205
105
65
203
97
68
151
84
63
97
97
97
196
93
69
203
99
64
198
96
69
191
88
60
195
98
64
199
96
64
195
100
68
202
101
67
196
98
67
201
95
66
200
97
69
202
98
71
200
103
74
196
93
65
201
98
68
207
97
62
197
98
64
197
97
70
191
96
66
157
85
59
103
103
103
162
85
63
189
87
59
202
96
63
199
99
70
200
99
69
197
98
71
188
91
65
204
94
65
201
102
68
201
96
68
192
91
63
200
97
69
198
102
69
195
92
64
202
96
67
198
95
63
202
101
67
196
102
71
206
98
69
186
94
69
157
82
56
98
98
98
160
84
66
189
92
63
195
99
66
200
99
72
198
100
67
205
106
75
194
86
61
195
92
64
202
98
63
201
90
64
200
98
67
197
95
68
187
97
66
205
94
64
198
95
63
205
100
64
196
98
69
201
98
68
189
97
68
152
87
64
97
97
97
166
86
64
165
84
63
164
89
64
165
89
62
163
85
64
169
83
57
170
87
65
170
84
60
165
82
57
169
91
70
156
85
63
165
90
65
165
83
58
165
86
59
168
85
63
162
86
63
162
87
67
165
83
64
158
90
63
140
72
56
97
97
97
138
76
58
160
82
65
166
88
64
166
88
64
172
86
64
159
83
62
165
84
63
164
85
60
167
86
64
163
89
63
165
87
64
160
81
57
156
80
56
167
88
67
162
87
61
166
86
58
165
90
64
162
88
65
167
87
59
164
85
64
142
77
57
97
97
97
140
78
59
159
84
60
168
93
67
163
86
60
160
81
60
157
85
66
167
86
65
162
89
60
170
89
60
165
87
64
170
81
61
162
86
62
162
91
63
159
84
64
164
87
64
173
89
64
165
79
57
165
84
59
158
83
66
131
72
54
96
96
96
108
108
108
105
105
105
109
109
109
99
99
99
104
104
104
103
103
103
97
97
97
92
92
92
97
97
97
102
102
102
97
97
97
97
97
97
99
99
99
98
98
98
98
98
98
103
103
103
98
98
98
92
92
92
108
108
108
103
103
103
100
100
100
109
109
109
98
98
98
99
99
99
106
106
106
101
101
101
98
98
98
105
105
105
102
102
102
98
98
98
99
99
99
109
109
109
92
92
92
95
95
95
102
102
102
99
99
99
102
102
102
100
100
100
109
109
109
107
107
107
104
104
104
101
101
101
93
93
93
97
97
97
100
100
100
96
96
96
104
104
104
102
102
102
97
97
97
99
99
99
101
101
101
97
97
97
102
102
102
102
102
102
99
99
99
100
100
100
94
94
94
98
98
98
101
101
101
97
97
97
93
93
93
94
94
94
108
108
108
99
99
99
158
85
59
165
87
66
168
85
62
163
86
61
165
89
66
168
87
62
167
88
64
159
82
61
160
77
55
138
75
55
101
101
101
135
77
59
159
89
64
167
87
62
163
89
66
165
84
62
167
88
64
169
82
58
168
87
62
159
82
62
164
82
61
165
86
59
169
95
66
172
92
68
168
86
58
172
86
64
170
86
67
158
89
62
161
88
59
165
84
59
164
87
60
142
75
57
105
105
105
136
75
60
164
82
61
168
81
61
167
88
60
171
89
60
169
83
63
165
86
58
160
85
58
167
90
63
161
85
65
162
86
62
156
83
64
169
83
63
168
88
64
164
85
60
164
87
60
162
85
64
164
79
56
165
82
60
135
75
53
100
100
100
139
78
59
159
82
58
160
80
58
165
83
58
168
88
60
165
91
65
171
89
63
167
92
67
172
85
58
161
82
58
202
95
67
198
96
69
201
91
66
196
96
65
200
102
69
194
101
72
201
100
66
203
97
68
193
94
64
164
86
63
99
99
99
163
79
59
194
95
65
195
92
60
203
95
66
194
101
65
203
101
66
195
95
64
197
101
71
192
102
67
200
94
69
194
96
65
200
95
67
193
96
66
189
98
70
200
94
69
195
99
66
190
98
69
200
99
65
200
95
67
194
99
69
159
80
59
103
103
103
166
84
62
189
92
59
205
97
64
196
98
65
193
93
62
197
94
66
200
99
69
197
95
68
202
104
74
199
103
70
196
97
71
196
101
69
207
109
75
201
95
66
199
100
70
194
91
59
197
87
62
199
97
70
194
97
67
163
89
66
104
104
104
159
86
60
196
99
64
200
98
67
193
88
60
193
100
68
201
95
62
201
94
66
195
90
62
200
98
71
197
89
61
194
96
66
204
97
64
198
93
60
206
96
62
206
100
68
205
98
69
203
99
63
202
90
60
199
98
70
163
84
57
108
108
108
162
81
59
207
103
68
199
103
69
199
93
65
199
100
65
211
104
67
194
102
70
208
96
62
207
103
67
210
103
66
207
100
67
202
96
68
201
101
71
205
96
63
212
97
62
202
95
62
198
99
68
203
94
69
209
103
71
194
97
71
163
86
61
99
99
99
164
83
57
205
100
68
200
91
62
209
102
65
210
108
72
201
99
67
205
99
67
199
90
65
204
101
70
207
100
67
199
103
73
198
105
72
205
98
69
205
105
71
203
105
71
205
104
69
205
105
71
196
94
62
192
102
71
168
86
61
108
108
108
163
77
57
203
104
70
205
105
71
210
98
64
204
108
70
200
96
64
203
101
65
197
94
67
197
101
67
204
96
58
205
105
71
201
105
71
202
100
68
202
96
72
197
99
69
205
103
67
203
97
65
202
100
68
199
98
64
165
91
65
94
94
94
169
89
64
198
96
69
200
98
66
201
89
59
197
96
65
197
96
65
194
90
66
204
99
70
202
100
68
210
108
72
200
94
62
201
100
69
203
100
69
196
100
66
210
105
68
210
95
64
205
98
69
200
91
62
204
105
70
194
99
71
169
89
64
100
100
100
166
85
63
189
95
66
203
101
65
192
94
60
205
106
71
202
93
68
212
97
62
197
98
67
212
99
72
200
96
64
202
102
72
204
102
66
212
98
62
205
104
69
194
98
64
204
103
68
201
106
73
199
95
59
193
103
71
163
83
61
96
96
96
169
81
57
198
99
65
200
100
74
209
96
65
203
99
67
205
101
73
197
92
63
204
94
64
209
103
71
203
99
71
197
99
73
207
103
71
200
96
64
193
87
59
203
94
65
205
93
67
197
102
69
209
108
73
195
97
66
167
83
57
103
103
103
165
87
67
196
103
71
207
103
75
196
92
64
199
97
69
200
96
64
194
91
64
203
100
69
202
106
68
206
94
68
203
100
69
211
98
67
196
95
60
198
102
68
200
102
68
196
100
66
199
101
71
205
100
67
211
104
67
197
99
70
164
83
65
100
100
100
163
89
67
205
98
66
210
95
64
199
104
71
196
98
68
210
96
66
204
99
62
201
97
65
211
106
65
197
90
61
201
97
69
202
98
66
212
105
68
201
101
71
203
96
63
206
102
74
212
101
62
199
90
61
198
93
65
166
89
63
92
92
92
165
87
64
195
93
66
205
104
69
206
102
66
195
102
69
202
104
70
204
97
64
200
98
66
205
105
75
206
92
62
198
100
71
201
97
64
198
98
69
194
96
69
205
95
66
198
98
71
195
93
62
195
95
68
195
102
70
167
87
59
100
100
100
164
83
61
199
96
64
195
98
71
196
93
65
196
93
65
206
90
63
206
103
72
200
102
69
196
90
65
198
100
67
199
101
68
197
101
68
203
97
64
194
98
65
195
103
71
192
92
61
197
98
68
204
108
74
200
92
63
195
100
66
162
83
59
102
102
102
159
85
59
195
90
65
194
96
69
188
97
65
194
96
65
195
95
64
197
101
71
194
92
65
201
91
66
202
98
71
200
100
71
197
95
68
205
104
73
201
93
64
197
101
71
201
98
62
197
89
60
204
101
71
189
94
64
162
84
60
109
109
109
161
90
66
196
88
63
192
97
63
202
110
74
193
88
60
197
92
60
198
99
65
192
91
63
203
98
70
192
97
67
165
89
66
165
92
66
165
90
64
162
85
60
164
83
64
168
86
58
165
88
64
165
86
61
163
85
60
143
79
57
96
96
96
138
77
61
162
84
63
165
89
63
166
89
63
162
89
64
159
79
57
168
82
59
165
84
63
163
86
62
158
88
61
162
82
58
162
86
63
164
83
60
164
86
59
168
89
62
165
89
66
160
77
58
162
85
61
160
86
63
165
88
65
138
75
55
95
95
95
137
74
55
160
79
57
165
84
63
159
86
63
167
90
64
168
89
61
173
91
62
161
83
62
163
86
65
167
87
62
168
80
60
163
82
63
171
89
61
167
90
64
163
84
63
167
86
64
164
83
60
163
84
57
157
85
65
142
80
58
108
108
108
139
81
58
156
87
63
162
82
57
165
90
64
159
84
57
167
89
62
157
78
57
159
89
61
159
85
62
165
88
61
97
97
97
109
109
109
96
96
96
92
92
92
101
101
101
101
101
101
100
100
100
109
109
109
101
101
101
102
102
102
102
102
102
102
102
102
105
105
105
103
103
103
102
102
102
97
97
97
100
100
100
93
93
93
97
97
97
105
105
105
96
96
96
103
103
103
109
109
109
109
109
109
105
105
105
103
103
103
100
100
100
93
93
93
105
105
105
98
98
98
105
105
105
109
109
109
102
102
102
103
103
103
109
109
109
95
95
95
99
99
99
96
96
96
101
101
101
96
96
96
103
103
103
110
110
110
96
96
96
108
108
108
96
96
96
101
101
101
97
97
97
99
99
99
100
100
100
102
102
102
108
108
108
103
103
103
104
104
104
106
106
106
98
98
98
102
102
102
102
102
102
101
101
101
101
101
101
103
103
103
97
97
97
100
100
100
100
100
100
111
111
111
167
86
65
162
88
65
161
88
59
167
86
64
169
83
60
165
85
57
168
86
60
168
83
57
166
86
61
163
87
61
161
82
57
164
92
66
165
89
62
161
81
59
165
91
65
168
86
64
172
87
64
162
90
62
159
84
60
136
74
55
102
102
102
133
76
56
160
84
60
164
81
62
162
83
59
164
86
62
168
90
60
168
91
64
158
86
60
167
90
64
166
85
60
166
88
67
164
85
64
168
89
62
171
89
63
162
90
65
163
84
57
168
83
60
167
82
59
165
89
63
157
82
59
140
77
58
96
96
96
138
76
59
160
88
62
170
86
60
165
88
61
164
87
60
165
92
63
167
92
62
164
84
56
166
91
64
171
89
61
160
86
60
162
86
65
167
86
65
165
88
61
165
87
63
169
87
61
162
86
65
161
83
59
165
86
62
139
73
55
99
99
99
201
96
68
207
97
68
194
91
67
194
92
65
193
101
70
204
95
65
207
99
67
196
94
67
194
96
65
193
93
62
196
100
67
198
98
71
204
95
65
197
98
68
198
105
72
197
101
68
194
86
61
196
100
67
192
99
62
156
81
61
111
111
111
165
85
64
190
98
65
193
90
62
201
91
62
193
95
64
206
105
74
198
91
63
196
98
67
195
87
62
203
102
71
198
98
69
198
102
69
198
102
69
198
95
67
196
93
65
200
98
63
200
95
67
192
92
65
194
101
69
200
98
70
159
82
59
101
101
101
164
88
64
189
92
59
199
99
70
201
98
66
201
105
68
201
95
62
200
98
71
198
97
72
200
102
69
201
98
73
201
93
60
198
103
71
203
100
70
196
104
69
195
98
70
201
95
66
189
94
68
194
94
67
198
93
64
163
88
62
102
102
102
199
87
61
199
107
71
210
97
66
205
100
67
208
96
66
205
107
73
203
92
63
207
100
67
210
102
68
208
98
72
198
102
64
202
93
68
198
94
62
196
98
64
208
99
70
198
86
60
201
104
71
203
100
73
200
104
71
162
87
61
93
93
93
168
94
68
192
99
67
201
99
67
212
107
70
199
101
67
205
101
65
207
98
69
197
98
63
210
95
64
206
99
74
197
101
71
201
106
69
203
99
63
201
94
65
205
96
67
196
97
70
204
100
68
203
92
63
197
99
65
203
100
70
165
81
59
104
104
104
164
83
59
198
102
72
207
98
65
207
103
67
198
94
62
209
102
65
205
95
61
196
92
60
196
93
66
202
100
68
206
99
74
203
102
67
202
96
68
202
106
72
203
96
71
205
92
65
208
103
66
204
100
64
200
101
71
158
88
61
99
99
99
205
96
67
199
98
63
196
100
70
203
102
71
204
97
64
212
105
72
205
98
69
210
99
64
204
103
68
200
104
74
198
102
68
202
101
66
200
99
64
202
109
72
202
95
62
200
102
72
203
96
63
198
96
68
198
98
69
162
86
60
99
99
99
165
83
64
195
92
64
202
96
68
208
94
64
205
100
71
204
96
62
205
102
75
205
104
69
205
95
65
204
98
66
212
108
76
201
98
71
195
97
67
204
94
64
195
93
61
198
102
68
205
101
69
202
87
60
205
103
67
192
92
69
167
92
65
103
103
103
165
83
61
195
97
66
198
94
66
198
94
66
199
97
73
201
91
57
200
91
66
208
96
66
208
110
72
205
103
67
202
95
66
206
99
66
202
103
68
213
98
67
204
94
64
205
98
69
197
99
69
204
105
70
190
96
71
161
81
59
97
97
97
208
98
68
203
107
73
208
98
64
199
101
71
206
96
62
205
97
71
212
100
66
206
95
66
202
93
60
205
99
71
201
95
67
205
104
69
203
101
73
198
96
64
210
97
62
205
101
69
205
101
69
209
105
73
195
98
71
164
90
65
98
98
98
164
87
60
206
100
69
203
107
73
207
93
67
205
104
69
205
104
69
208
106
70
208
98
68
202
93
64
208
99
70
204
92
66
199
93
65
199
100
69
204
94
60
206
104
68
203
100
69
201
97
65
208
100
66
200
102
72
193
100
68
166
85
63
109
109
109
171
89
63
205
92
66
210
95
64
199
101
67
204
95
70
205
101
69
204
97
64
206
98
64
205
104
69
195
90
61
203
100
69
205
99
71
197
98
67
201
102
67
202
99
72
207
106
75
203
94
65
210
103
66
198
96
69
159
80
59
107
107
107
199
90
64
205
97
68
204
98
61
198
90
61
199
98
64
198
98
71
207
102
70
196
98
65
201
98
66
192
97
71
191
86
62
194
96
72
206
92
61
201
98
66
199
96
64
200
99
69
198
98
63
198
97
72
193
101
68
166
82
59
110
110
110
161
88
66
195
102
73
198
101
63
198
96
65
198
93
61
201
98
66
206
104
69
206
99
67
206
107
72
197
99
66
200
100
71
202
101
74
200
104
71
197
101
68
201
101
71
198
95
63
188
88
65
199
96
64
198
100
71
190
95
65
165
90
65
107
107
107
163
85
62
193
94
68
194
98
69
205
103
68
196
94
63
200
102
69
200
103
71
198
98
69
193
95
64
191
99
71
198
90
65
190
96
67
203
101
66
197
97
66
192
99
67
202
101
74
199
98
64
188
91
65
196
98
68
156
82
62
101
101
101
159
83
60
161
87
61
160
82
57
164
84
59
162
82
61
156
88
64
156
85
61
157
80
57
162
82
61
161
87
61
161
80
62
160
85
59
162
83
59
160
88
63
162
83
59
157
86
61
158
84
64
158
86
64
151
82
63
132
73
60
107
107
107
133
77
59
151
86
60
159
87
61
158
85
62
162
88
66
159
79
57
155
83
61
161
85
62
159
82
61
154
82
63
157
85
60
161
85
61
162
88
62
162
86
62
161
89
64
159
78
59
158
74
55
162
87
64
165
85
58
158
79
60
131
73
56
98
98
98
131
76
57
154
79
62
159
88
64
154
77
56
164
84
59
159
85
60
159
82
58
162
82
60
162
88
61
157
82
59
161
82
61
158
82
64
163
83
61
161
85
65
156
83
64
161
83
62
164
86
59
162
82
57
157
81
61
125
75
59
98
98
98
97
97
97
98
98
98
98
98
98
97
97
97
97
97
97
102
102
102
105
105
105
105
105
105
102
102
102
97
97
97
102
102
102
100
100
100
99
99
99
107
107
107
104
104
104
106
106
106
107
107
107
91
91
91
103
103
103
99
99
99
102
102
102
98
98
98
109
109
109
107
107
107
100
100
100
103
103
103
97
97
97
107
107
107
109
109
109
102
102
102
97
97
97
98
98
98
102
102
102
104
104
104
97
97
97
106
106
106
111
111
111
93
93
93
104
104
104
96
96
96
97
97
97
102
102
102
94
94
94
99
99
99
107
107
107
107
107
107
104
104
104
103
103
103
93
93
93
102
102
102
108
108
108
102
102
102
103
103
103
111
111
111
107
107
107
101
101
101
96
96
96
104
104
104
103
103
103
103
103
103
101
101
101
100
100
100
99
99
99
99
99
99
