P3
64 64
255
126
126
127
132
133
133
135
135
135
127
126
126
133
133
133
125
124
124
126
125
125
127
128
128
122
123
123
126
125
126
128
129
128
135
135
134
134
134
133
133
133
133
121
121
121
122
122
122
129
130
129
124
123
123
121
121
121
136
135
136
129
129
129
127
127
127
125
125
126
131
130
130
131
130
130
128
128
128
124
125
124
128
127
127
127
127
127
134
134
135
129
129
128
119
119
119
122
122
123
128
129
129
129
128
129
130
130
130
128
129
129
119
120
119
125
126
126
131
130
131
128
128
128
130
130
130
124
123
123
135
135
136
129
128
128
126
126
126
129
129
128
127
126
127
134
134
135
126
127
126
137
138
138
128
128
129
123
123
123
128
129
129
128
128
128
122
122
122
129
129
129
121
122
121
123
122
122
125
126
125
126
125
125
130
130
130
122
123
122
120
120
121
128
129
129
133
134
133
128
128
129
129
129
129
121
120
121
120
120
121
129
129
128
133
133
133
128
129
128
124
125
124
133
134
133
131
131
132
128
127
128
125
125
125
119
120
119
127
127
126
129
129
130
133
133
133
124
125
124
126
125
126
122
123
123
118
119
119
133
132
133
126
127
126
126
127
126
136
136
137
123
123
124
120
119
120
128
128
129
135
135
134
132
132
131
128
128
128
132
132
131
127
126
127
125
125
125
120
120
120
123
123
123
133
132
133
131
131
130
129
130
130
134
134
135
134
134
134
134
134
133
135
135
135
124
124
125
128
128
129
120
121
121
130
130
130
121
120
120
129
130
129
127
127
127
125
125
125
120
121
120
136
136
137
129
129
130
136
136
137
126
126
127
120
121
120
128
128
127
127
126
127
124
124
123
128
127
128
126
127
127
133
133
134
125
126
125
133
134
133
132
133
132
128
127
127
126
125
126
130
130
129
125
126
126
134
134
134
123
124
124
130
129
130
126
127
126
126
127
127
133
133
133
120
121
120
124
124
124
134
135
134
135
136
135
126
126
125
117
117
118
128
127
127
129
130
130
121
121
120
133
132
133
128
127
127
134
133
134
120
120
120
129
130
129
121
121
120
123
123
122
134
135
134
124
124
123
123
123
124
129
129
129
136
136
135
134
133
133
128
128
127
128
128
128
132
132
131
134
133
134
124
124
124
127
127
126
131
132
131
132
132
132
124
124
124
136
135
135
130
130
129
117
117
118
124
125
125
126
126
127
135
136
135
125
125
125
124
124
124
126
127
126
135
134
134
123
122
123
118
117
118
126
126
125
133
132
133
128
127
127
127
126
126
124
123
124
131
130
131
128
128
127
131
131
131
124
124
124
129
129
128
131
131
131
131
130
130
136
135
135
133
134
133
134
134
135
128
127
127
129
130
130
126
125
125
131
131
130
130
129
129
126
127
127
126
125
126
126
127
127
126
125
126
131
131
130
124
124
123
130
129
130
123
124
123
134
135
134
129
128
129
132
132
133
125
124
124
130
129
130
134
134
134
126
125
125
123
122
123
127
127
126
126
126
127
128
128
127
134
133
134
126
125
125
127
128
127
130
129
130
128
127
128
126
125
126
121
121
122
131
131
131
128
129
128
129
129
129
127
127
126
127
127
126
120
120
121
123
123
123
127
128
127
123
122
123
137
137
136
128
128
129
121
120
121
127
127
128
127
126
127
120
121
121
127
128
128
128
129
128
129
129
129
124
124
125
124
123
123
121
121
121
126
125
126
129
129
130
128
128
128
127
127
126
127
127
127
126
126
126
132
133
132
127
127
126
130
131
131
129
130
130
129
129
129
129
129
129
129
130
130
121
121
121
126
125
125
124
124
125
126
127
126
124
124
125
123
122
123
126
127
127
125
124
124
128
129
129
127
127
127
123
123
123
125
125
125
134
134
135
125
125
125
130
129
129
131
131
131
126
125
126
127
127
127
133
132
132
136
136
135
120
119
119
124
124
124
131
130
131
135
135
135
126
127
126
119
120
120
131
130
131
117
117
117
132
132
132
127
127
128
132
131
132
132
132
133
134
133
134
132
132
132
127
127
127
129
128
129
126
126
126
126
125
126
130
131
131
131
132
131
132
132
132
129
129
130
126
127
127
131
131
132
130
130
131
122
122
123
124
125
125
125
125
125
136
136
135
119
119
119
127
127
126
129
130
130
128
128
127
128
128
129
133
133
132
132
131
132
133
133
133
130
129
129
129
130
130
128
128
127
123
123
122
121
121
121
128
129
128
132
133
132
128
127
127
126
126
125
130
131
130
130
130
129
137
137
137
126
126
127
129
130
130
121
120
120
124
125
125
130
130
129
132
133
132
133
132
132
120
120
120
124
123
123
133
134
133
123
123
122
126
125
125
127
127
127
124
124
125
127
128
127
136
135
135
128
127
127
133
133
133
123
123
123
127
127
127
127
127
127
124
125
125
124
124
124
123
124
124
128
129
128
134
133
133
124
124
125
131
132
131
124
125
125
130
130
129
126
126
127
129
128
128
123
124
123
122
122
121
125
124
124
121
121
122
121
122
121
126
125
125
135
135
136
127
127
127
121
121
120
130
129
130
126
126
127
132
133
133
125
125
125
122
123
123
128
128
128
132
132
133
128
128
128
131
131
130
123
123
123
121
121
122
125
126
126
123
122
123
131
132
131
134
134
134
134
133
133
124
124
123
123
124
124
131
131
132
131
131
130
129
129
130
124
124
125
128
128
127
128
129
128
136
136
136
124
124
123
133
134
134
131
132
131
125
126
126
129
128
128
131
130
130
120
120
119
126
127
127
126
125
125
125
125
124
124
124
123
124
125
125
131
130
131
130
129
129
131
131
131
125
126
125
131
132
132
128
127
128
122
122
123
125
125
126
119
119
120
125
126
126
129
130
130
122
122
122
127
126
126
119
119
119
123
124
124
129
129
130
137
137
136
128
128
129
122
123
123
128
129
128
128
128
128
125
124
124
130
129
130
123
123
123
124
124
125
119
118
118
128
128
128
129
129
128
132
133
133
127
128
127
124
123
123
123
124
123
130
131
131
125
125
125
128
127
128
131
131
130
130
130
130
125
125
125
131
131
132
125
124
125
122
122
122
130
129
130
128
128
128
128
128
127
129
128
129
125
126
126
130
129
129
121
121
120
131
131
131
128
127
127
134
134
133
134
134
134
128
127
128
120
119
120
123
123
123
123
122
123
135
135
135
125
125
125
129
128
129
135
134
135
135
135
136
118
118
117
128
128
129
130
131
131
127
127
126
134
134
135
124
125
124
124
123
123
132
132
132
131
132
131
120
121
120
119
119
120
132
132
132
134
133
134
133
134
134
127
128
127
125
125
126
131
132
132
123
123
123
132
132
133
125
124
125
125
125
125
133
134
134
135
135
135
121
122
121
129
129
130
125
126
125
123
124
123
128
127
127
122
122
122
130
131
131
129
129
130
135
135
134
126
126
125
128
127
127
128
128
129
129
129
129
127
128
128
133
134
134
121
121
121
131
130
130
133
134
134
128
127
127
130
129
130
123
124
123
128
129
128
130
130
129
126
127
126
129
130
129
132
133
133
118
118
118
121
121
121
118
118
119
125
126
125
122
122
122
135
135
135
126
126
126
134
135
134
130
130
129
131
130
131
134
134
133
132
131
131
127
127
127
130
131
130
125
125
126
136
135
135
127
128
127
131
130
131
123
124
123
129
129
130
129
129
129
127
127
127
117
118
117
126
126
127
134
135
135
127
127
128
128
129
128
129
129
128
131
130
131
128
128
128
126
125
125
131
132
131
133
133
134
120
120
119
118
118
118
128
128
128
124
125
124
127
126
127
125
126
126
125
126
125
121
120
121
131
131
130
132
131
131
132
133
133
124
124
124
132
132
132
121
122
122
125
125
124
122
123
123
125
125
124
136
136
135
128
128
128
124
123
123
130
131
131
133
132
132
125
126
125
123
123
123
120
120
120
129
129
128
127
126
126
129
129
130
123
123
123
128
127
128
124
124
124
128
127
127
133
133
133
135
134
134
125
124
125
127
127
126
124
124
125
125
124
124
129
130
129
135
134
135
128
129
128
126
126
126
128
129
129
133
134
133
134
133
133
120
120
120
137
138
138
118
117
118
136
136
136
130
131
130
131
132
132
125
125
126
125
125
126
125
126
126
123
123
123
127
128
128
127
126
127
132
132
131
119
119
118
119
120
119
126
125
125
127
127
128
123
123
124
129
129
130
127
127
127
128
127
127
135
135
135
120
121
120
128
127
127
127
126
127
130
130
130
130
129
129
128
129
129
125
124
125
128
127
127
130
130
130
129
129
128
119
119
120
129
128
129
129
130
129
128
128
127
127
126
127
123
123
124
130
129
130
133
132
133
128
129
129
132
132
132
133
134
133
126
126
126
124
124
124
131
130
130
132
132
132
129
130
129
132
132
133
134
134
134
126
126
125
122
122
123
120
120
120
129
128
129
125
126
126
128
128
127
121
120
120
124
123
123
134
135
135
124
124
124
126
125
125
127
126
127
134
134
134
122
123
123
128
128
127
133
132
132
128
129
129
134
133
133
125
125
125
121
121
121
133
133
133
125
125
125
120
119
120
134
134
133
128
129
128
135
135
134
127
127
128
126
127
127
132
132
131
133
133
133
124
125
125
122
122
123
128
128
129
125
125
125
127
127
127
128
128
129
119
120
120
125
124
125
123
122
122
130
130
131
132
132
132
133
132
132
125
126
125
119
120
120
134
134
135
121
122
122
129
129
129
117
118
117
125
126
126
120
120
119
131
130
131
134
135
134
126
125
126
121
121
120
129
129
129
127
127
126
132
132
131
125
125
124
137
137
137
130
131
131
120
121
121
131
131
130
127
127
127
136
136
135
136
135
135
129
130
129
122
122
123
134
134
134
123
122
123
121
122
121
125
124
125
133
133
133
128
127
128
126
126
125
137
137
137
124
125
124
127
126
126
136
135
135
130
130
129
129
129
129
129
129
129
124
123
123
133
134
134
130
130
129
126
126
126
130
129
129
123
122
123
130
130
131
127
127
127
123
123
123
127
127
127
132
133
132
127
127
126
131
131
130
129
129
129
124
123
123
129
129
129
128
127
127
133
132
132
128
128
128
131
130
131
125
125
125
129
129
128
127
127
128
121
121
122
127
127
126
128
129
129
131
131
130
129
129
129
131
131
131
134
134
134
129
129
129
131
131
131
121
121
120
122
122
121
129
128
129
123
123
123
129
129
129
133
133
133
126
127
126
134
135
135
127
128
127
131
131
132
124
123
123
124
124
123
137
138
138
133
134
134
118
119
118
128
127
128
127
126
127
129
130
129
126
126
127
130
130
130
124
124
124
131
131
130
133
134
134
134
133
134
123
122
122
124
123
124
127
127
126
131
132
132
121
121
122
130
130
130
129
130
130
130
131
131
125
124
125
123
122
122
123
124
123
128
127
128
121
122
121
129
130
130
120
121
121
119
119
119
128
127
127
132
131
132
136
136
136
133
133
132
124
125
125
127
127
127
130
129
130
126
125
125
133
133
133
134
133
133
132
132
132
117
118
117
120
121
121
123
122
122
130
130
131
126
125
126
125
125
126
126
126
127
129
130
129
129
129
129
134
133
134
129
128
129
127
128
128
123
124
123
127
126
127
131
130
130
126
125
126
124
124
124
132
131
132
136
137
137
125
124
125
125
125
126
135
135
135
129
128
129
129
129
128
131
131
131
127
128
127
120
119
119
125
125
125
128
129
128
128
128
128
135
136
136
125
126
125
131
131
132
126
126
126
132
133
133
126
126
125
132
132
132
129
128
129
122
123
122
119
120
119
127
128
127
136
136
136
135
135
135
125
125
125
125
125
125
128
127
128
130
130
130
134
135
134
128
127
127
128
127
127
125
125
125
128
129
129
126
126
126
125
124
125
135
135
135
129
130
129
124
124
124
128
129
129
132
132
133
124
123
124
124
124
125
124
125
124
133
133
132
135
134
135
126
125
125
127
127
126
127
127
126
119
120
120
131
132
132
124
125
124
125
124
125
125
125
125
131
130
130
126
125
125
126
125
125
132
133
132
132
132
132
129
129
129
129
129
129
132
132
132
121
122
121
135
134
134
132
131
131
136
137
137
129
129
128
129
129
130
121
121
120
130
131
131
136
136
135
118
119
118
130
131
130
126
127
127
118
117
118
119
119
118
125
126
126
131
131
132
119
119
118
121
121
121
134
135
135
129
128
128
126
127
126
124
123
123
128
128
128
126
126
127
132
131
131
123
122
122
134
133
134
123
122
123
124
125
125
128
128
128
134
135
135
135
134
134
118
117
117
134
134
135
127
127
127
128
128
128
133
134
133
125
124
125
128
128
127
132
131
132
125
124
124
122
122
123
128
128
128
128
127
127
121
122
121
128
127
127
127
127
128
127
127
126
122
122
121
131
131
130
131
131
131
122
121
122
127
127
127
121
121
120
133
134
133
127
127
127
135
135
135
123
123
123
134
135
134
136
136
135
123
122
123
126
126
126
131
130
131
119
118
119
121
121
121
123
123
123
131
131
131
130
130
130
127
127
126
136
136
135
124
125
125
123
123
122
134
134
133
123
122
122
132
132
132
137
136
136
132
131
131
131
132
131
123
123
123
125
125
125
122
121
122
121
121
120
131
130
130
131
131
132
123
123
123
132
131
132
134
134
133
131
130
130
122
122
121
124
123
124
130
131
130
120
119
119
128
127
127
132
132
133
123
123
122
128
128
128
123
123
123
125
124
124
134
135
134
133
133
132
126
126
126
117
118
118
123
123
124
125
126
125
134
134
134
126
125
126
127
127
128
127
128
127
138
137
138
132
131
132
128
127
127
131
130
131
127
128
127
122
122
121
124
124
124
124
124
125
122
123
123
133
133
132
128
127
128
121
122
121
119
118
119
123
123
122
128
128
128
126
127
126
127
126
126
128
128
127
128
129
129
128
129
129
124
123
124
133
134
133
130
130
129
133
133
133
126
126
127
130
130
130
121
121
120
129
129
129
134
134
134
130
130
131
128
127
127
121
122
121
122
122
122
130
130
131
129
130
130
123
124
123
126
125
126
126
127
126
133
134
133
133
134
134
130
130
130
126
126
127
130
130
130
131
131
131
131
132
131
130
131
131
136
135
136
135
134
134
125
126
125
130
130
129
128
127
127
133
133
134
128
129
129
135
136
135
124
123
123
131
130
130
122
122
122
126
126
126
127
128
127
133
133
133
130
129
129
130
130
129
134
133
134
124
124
124
119
120
119
126
126
126
123
123
123
129
129
128
123
122
122
136
135
136
131
132
131
127
127
128
133
134
134
117
118
118
124
124
123
130
130
130
125
124
124
134
133
133
130
131
131
136
135
136
123
123
123
125
125
124
129
130
129
119
119
118
122
122
123
126
126
126
128
129
128
127
128
127
131
131
130
131
131
132
127
127
127
127
126
127
134
134
135
127
126
126
130
130
130
127
128
127
134
134
134
122
122
122
128
127
128
123
122
123
131
130
130
133
133
134
129
129
130
123
124
124
123
123
123
120
121
120
121
120
121
131
130
131
124
124
124
127
126
127
123
123
123
122
122
121
128
129
129
126
126
126
120
121
121
126
127
126
122
122
122
132
133
132
125
125
126
127
128
128
129
129
128
121
121
122
130
130
129
130
130
129
127
126
126
127
126
126
130
131
130
136
136
137
137
136
137
121
121
121
123
124
123
125
125
126
131
131
130
131
131
130
128
127
128
127
126
127
132
132
133
127
126
127
129
129
130
132
133
133
135
135
136
128
128
127
132
132
132
127
127
126
129
129
128
126
126
126
129
129
129
131
131
131
126
126
126
135
135
135
132
133
132
124
124
125
123
122
123
118
118
118
124
125
124
122
122
122
131
131
131
123
122
122
126
127
126
131
132
132
130
129
130
126
126
126
122
122
121
126
125
125
138
138
138
130
130
129
129
129
128
133
134
133
128
129
129
123
122
123
126
127
127
128
128
128
130
129
129
129
130
130
128
128
129
128
129
128
130
130
131
135
136
135
124
123
123
123
124
123
129
129
130
127
126
126
125
125
126
117
117
118
125
125
124
131
132
132
136
136
136
122
122
121
122
123
123
126
127
126
127
127
127
126
127
127
121
121
121
128
127
127
135
134
135
124
124
124
127
128
128
133
133
132
121
122
121
131
132
131
126
125
125
133
133
133
126
126
127
137
137
137
129
129
130
119
119
119
126
126
126
127
128
127
131
131
132
121
122
121
125
125
126
132
131
131
127
127
127
134
134
134
125
126
126
118
119
118
131
131
131
126
127
127
128
128
128
130
130
130
125
125
125
126
127
127
128
127
128
127
126
127
128
128
128
125
125
124
131
130
130
128
129
129
131
130
131
131
131
130
133
133
132
119
119
118
121
121
121
139
139
138
130
130
130
127
128
128
125
125
125
125
125
125
127
126
126
118
117
118
132
131
131
127
127
127
133
134
133
128
128
127
119
118
118
124
123
123
129
129
130
124
123
124
128
128
127
127
127
126
129
129
128
125
126
125
128
127
128
124
125
124
133
134
133
129
129
130
137
136
137
132
133
132
127
128
127
126
126
126
132
131
132
134
133
134
134
135
134
120
120
120
118
119
119
127
126
127
131
132
132
118
118
118
130
131
131
118
118
117
128
128
128
134
133
134
129
130
130
122
122
122
132
132
132
128
127
127
130
131
131
127
128
127
125
125
124
129
129
128
131
131
132
131
131
132
128
129
129
134
134
134
130
130
130
126
125
125
127
127
127
124
124
125
128
128
128
126
125
125
131
130
130
125
125
125
127
126
127
127
127
127
126
127
127
119
120
119
124
125
124
123
123
124
126
127
127
126
127
126
129
129
128
128
128
128
126
125
125
138
137
137
131
131
131
137
137
137
123
122
123
135
135
135
125
126
125
127
126
127
130
129
130
129
129
130
127
127
126
126
127
127
127
127
127
120
120
121
129
130
130
131
132
131
129
128
129
121
121
122
136
137
136
128
127
128
132
132
132
122
123
122
128
127
127
127
127
126
132
132
132
120
121
120
131
132
132
122
121
122
128
127
128
124
124
125
125
124
125
130
129
129
123
123
123
126
126
126
124
125
125
125
125
125
127
126
126
120
121
120
127
127
127
128
127
127
123
123
123
132
133
133
134
133
133
131
132
132
129
128
129
136
136
137
122
122
122
128
129
129
126
126
126
130
130
130
121
121
120
120
120
120
130
130
130
133
134
134
121
121
120
123
124
123
132
131
132
130
130
130
127
126
127
125
124
124
132
133
133
118
118
119
134
134
133
127
127
128
127
128
128
126
126
127
137
136
137
123
123
124
128
127
127
132
133
133
134
133
133
135
135
136
129
129
128
121
121
120
122
122
123
137
137
137
128
127
127
126
125
125
127
128
127
130
129
130
132
132
132
123
123
122
130
129
129
131
130
131
136
137
137
135
135
134
128
129
128
132
131
131
124
125
124
128
128
127
133
134
134
123
124
124
127
127
126
120
119
120
121
122
121
136
137
137
126
126
125
126
125
126
128
127
127
124
124
124
135
135
136
123
124
124
124
124
124
128
128
127
129
128
129
133
132
133
137
136
136
120
120
120
127
127
128
130
131
130
125
125
125
129
130
129
132
133
132
135
135
135
124
124
123
119
120
119
127
128
127
131
130
130
119
120
119
124
123
123
121
122
122
129
128
128
129
130
129
128
128
129
126
125
125
121
122
121
132
131
131
124
124
123
133
132
132
133
134
134
121
121
122
127
128
128
124
125
125
122
122
122
135
135
135
129
129
129
134
133
133
130
130
130
128
128
128
119
119
118
126
126
126
132
132
132
120
119
120
128
128
128
127
127
127
125
126
126
125
125
125
127
127
127
129
129
130
123
124
124
138
137
137
134
133
133
132
132
131
129
128
128
127
128
128
120
120
120
131
130
130
121
121
121
126
127
126
127
128
127
133
134
133
126
126
127
130
130
130
133
132
132
124
124
123
121
120
121
119
119
119
136
135
136
131
130
131
123
123
123
126
127
126
126
126
126
129
128
129
126
126
125
128
128
129
132
132
133
124
124
125
125
125
125
133
133
133
135
135
134
128
127
128
126
127
127
128
129
128
118
118
119
130
129
129
120
120
121
130
129
130
129
129
130
122
122
122
127
127
128
133
134
134
129
129
129
127
127
127
131
131
132
129
130
129
119
119
120
121
120
120
135
134
135
123
123
122
125
124
124
118
119
119
129
128
128
124
124
124
132
132
131
132
132
132
126
127
127
120
119
120
131
131
131
128
128
128
118
118
118
125
125
124
125
126
125
128
127
127
124
124
124
134
134
135
117
118
117
127
128
127
129
130
129
130
130
131
128
128
129
127
127
126
125
126
126
124
125
124
127
126
127
131
130
130
123
122
123
118
118
119
127
126
127
130
130
130
130
129
129
128
128
128
127
126
127
121
121
121
132
132
132
135
136
136
123
123
123
134
134
135
130
129
129
124
124
124
129
129
129
121
120
121
136
137
136
129
130
130
130
130
130
124
125
125
128
129
129
129
129
129
129
129
128
128
128
128
135
135
136
136
136
136
125
125
124
133
133
134
125
126
125
135
135
135
123
123
124
127
126
127
132
132
132
125
124
125
129
130
129
122
123
123
120
119
119
131
131
130
130
130
130
129
130
129
128
127
127
128
127
128
121
120
120
127
127
127
129
128
128
121
122
121
120
121
121
133
133
133
135
135
134
132
131
132
134
133
133
126
125
126
134
134
134
124
124
123
129
128
129
123
124
123
134
134
135
124
123
124
128
127
127
134
133
134
125
124
125
127
127
127
132
132
131
127
127
127
123
122
123
127
128
128
130
130
130
132
132
132
122
121
122
119
118
118
119
120
119
122
123
122
129
130
129
128
127
127
126
126
126
136
136
137
126
126
126
132
132
132
135
135
134
127
127
127
124
124
124
134
134
135
125
124
124
121
121
121
132
132
132
120
120
121
125
124
125
120
120
121
122
122
123
130
129
129
126
126
126
138
138
138
122
122
122
129
128
129
126
126
126
122
122
122
135
135
136
136
135
135
129
128
129
122
122
123
121
122
121
131
132
132
133
133
133
121
121
121
123
122
122
119
119
120
134
134
134
127
128
127
130
130
129
134
134
134
127
127
128
129
128
129
123
124
123
133
134
134
124
124
124
126
126
125
122
123
123
127
128
127
119
120
120
123
124
123
126
126
126
132
131
131
130
129
129
131
131
131
124
123
124
127
127
128
123
123
122
122
122
122
124
124
124
132
132
132
129
130
129
136
136
137
130
131
131
131
130
130
127
126
127
129
128
129
121
122
121
131
132
131
132
132
132
128
127
128
128
127
128
126
127
127
125
126
126
129
129
128
131
131
131
127
128
127
133
134
133
120
119
119
133
132
132
133
132
132
123
122
122
123
123
123
125
124
124
125
126
126
120
119
120
136
136
136
124
124
124
129
129
129
124
124
124
123
123
123
129
130
129
129
128
128
130
131
130
125
126
125
127
128
128
121
120
120
122
123
123
124
124
124
135
136
135
129
128
129
131
131
131
129
128
129
124
124
123
131
130
131
129
130
130
126
126
126
133
133
133
124
124
125
128
129
129
135
136
136
130
131
130
127
126
126
134
134
134
128
127
127
130
129
130
121
122
122
132
132
132
130
129
130
129
129
129
132
131
132
128
127
127
130
131
130
124
124
124
135
135
135
130
130
130
132
132
131
133
132
133
128
128
129
133
132
133
125
126
126
129
129
128
128
129
128
126
126
126
120
120
120
120
119
120
129
129
129
134
134
134
128
127
128
125
126
126
118
119
118
130
129
129
132
132
131
119
119
119
127
126
127
121
122
121
127
126
126
126
127
126
131
131
131
128
128
129
134
134
133
128
128
128
128
128
128
131
131
132
127
127
126
131
131
132
126
125
125
127
127
127
131
130
131
123
124
124
129
129
129
117
117
118
125
124
124
130
130
131
136
135
135
134
135
134
125
124
125
128
127
127
137
136
136
131
131
132
128
129
128
121
122
122
128
127
127
126
127
126
125
126
126
123
122
122
129
128
129
129
128
129
127
127
127
126
125
126
131
131
131
128
127
128
121
121
121
131
131
131
132
133
133
129
130
129
126
126
127
125
125
125
129
128
129
131
130
131
131
130
130
134
135
135
132
132
132
132
132
132
127
126
127
130
130
131
126
126
126
124
124
125
131
132
131
134
134
134
122
121
121
126
125
126
128
128
129
123
124
123
132
132
131
133
133
133
135
136
136
117
117
117
119
119
119
129
128
129
123
124
124
124
125
125
123
122
123
129
130
130
124
125
124
128
127
127
126
126
126
128
129
129
128
128
128
136
137
136
131
131
131
125
125
126
118
118
119
130
129
129
126
126
127
121
121
122
120
119
119
124
125
124
125
125
125
118
119
118
133
133
133
126
125
125
128
128
128
126
127
126
125
125
125
132
132
132
121
121
120
124
123
124
125
124
124
129
129
129
133
134
133
128
128
128
122
121
121
131
131
131
125
125
125
125
125
125
132
133
133
125
124
124
126
126
127
131
130
131
118
119
119
137
136
137
134
135
134
123
123
123
134
134
133
121
120
120
128
128
129
124
124
124
123
123
123
130
130
130
131
131
132
125
124
124
124
124
123
134
134
133
122
123
122
127
127
128
132
131
132
131
131
131
122
122
122
126
127
126
130
129
129
121
121
120
131
130
130
120
120
120
128
128
128
136
137
136
125
126
125
126
127
127
131
131
130
137
137
137
131
131
130
122
121
121
132
131
132
128
127
128
131
131
132
136
136
135
128
128
129
130
129
130
128
128
127
132
133
132
137
137
137
129
130
129
128
127
127
131
131
132
132
132
131
127
128
128
121
121
120
132
131
131
128
128
128
127
127
128
121
121
121
126
126
126
134
134
133
128
129
128
127
127
126
125
126
126
136
136
137
130
130
129
124
125
125
130
129
130
133
133
132
127
127
127
130
130
131
118
118
117
134
134
134
131
131
130
123
124
123
130
129
129
127
127
126
126
126
127
127
127
127
124
124
125
126
126
125
134
135
134
119
120
120
129
129
130
131
132
131
127
127
126
132
131
132
129
128
129
124
123
123
120
121
120
128
128
127
128
128
127
131
130
131
119
119
119
122
123
123
121
121
122
137
137
137
125
125
125
128
127
128
132
133
132
125
126
125
125
125
125
127
127
127
125
126
125
122
122
123
134
133
133
129
129
130
126
126
126
124
124
124
134
134
134
137
138
138
127
128
127
128
128
127
127
127
127
135
135
134
133
132
133
122
121
121
125
125
125
130
130
130
128
127
127
120
120
120
123
123
123
132
132
133
133
134
134
127
128
128
129
128
128
124
124
123
129
129
129
135
136
135
121
122
121
124
123
124
128
127
127
119
119
120
123
122
122
125
124
125
125
126
126
127
128
127
133
134
134
128
128
128
129
129
128
129
129
129
119
120
119
134
134
134
121
120
121
130
130
130
137
138
138
130
130
131
125
124
124
128
129
128
119
119
119
127
128
128
126
125
126
135
135
134
134
135
134
136
135
136
131
131
130
128
128
128
130
131
131
126
126
127
118
118
119
128
127
127
128
128
128
134
135
134
123
123
123
130
131
131
133
133
133
128
129
129
129
128
128
132
131
131
130
130
130
128
128
129
124
123
124
134
134
133
131
131
132
129
130
130
135
134
134
120
121
120
128
127
128
127
128
127
120
120
121
119
119
119
132
133
133
125
125
125
135
135
136
122
123
122
126
126
126
134
134
133
128
127
128
123
123
124
128
127
127
132
132
132
131
131
131
131
131
131
125
125
125
124
123
124
122
123
122
126
126
126
124
124
125
133
132
133
121
121
122
135
135
135
120
119
119
127
127
126
126
127
127
124
124
123
129
128
129
126
125
126
126
127
126
128
127
128
124
123
124
123
122
122
128
128
129
126
127
126
119
120
119
136
135
136
130
130
130
126
127
127
135
134
135
131
130
131
126
126
126
127
126
127
134
134
133
135
135
135
129
128
128
126
127
127
127
126
126
129
128
128
126
126
125
129
129
129
122
121
121
123
123
123
133
133
134
128
129
128
123
122
123
132
132
132
137
137
137
124
124
124
125
125
124
123
124
124
129
130
130
126
126
127
131
130
131
125
125
126
131
131
130
130
130
130
132
132
132
129
128
129
119
118
119
128
128
129
130
129
129
130
130
130
125
126
125
128
127
128
132
132
133
129
129
129
124
124
124
130
131
130
127
127
127
123
123
122
126
127
127
126
125
125
122
122
122
126
127
126
124
124
123
128
127
127
129
129
129
126
126
126
128
128
128
128
128
128
131
130
131
133
133
134
125
126
125
132
132
132
131
131
130
132
132
131
121
121
121
130
131
130
129
128
129
123
124
123
123
123
122
121
121
121
127
127
128
119
120
119
122
122
122
131
130
131
130
130
129
129
129
130
130
130
129
121
120
120
120
121
120
128
127
127
126
126
125
135
136
135
128
128
129
128
127
127
131
131
131
128
128
127
127
127
127
127
127
126
130
129
130
120
120
120
128
127
128
121
121
121
130
130
131
132
132
131
131
131
132
127
128
127
135
134
134
122
121
122
128
128
128
119
118
118
126
127
127
133
134
134
134
133
134
135
136
136
126
125
125
127
127
127
127
127
127
129
129
129
137
136
137
130
129
130
134
133
133
134
134
134
130
130
131
135
135
135
131
131
131
127
128
128
135
135
135
124
123
124
129
129
128
123
122
122
132
132
132
124
124
123
137
138
137
124
124
124
124
125
124
120
120
119
131
131
131
125
124
124
121
120
120
134
134
134
124
123
123
128
128
128
127
128
128
128
127
127
122
121
122
126
127
127
134
134
134
129
129
129
134
135
135
130
129
129
126
127
126
119
120
119
133
133
132
123
123
123
124
124
125
121
121
122
122
121
121
125
124
125
135
134
135
130
130
130
125
125
126
129
128
129
130
129
129
130
130
129
135
135
134
130
130
129
126
126
127
133
133
132
126
127
127
131
131
130
129
128
128
127
127
127
127
126
126
126
126
127
136
136
136
121
122
121
120
121
121
130
129
130
135
136
135
123
124
124
131
130
130
136
136
135
124
124
123
127
126
127
129
130
130
122
121
122
135
136
136
128
128
129
136
136
136
126
126
125
119
119
120
126
127
127
120
120
120
131
131
130
128
127
127
134
135
135
134
133
133
127
128
128
123
123
124
131
130
131
121
122
122
132
133
132
135
135
134
131
130
130
129
129
129
126
126
127
137
137
136
124
125
125
125
126
125
128
127
127
120
119
119
126
126
127
129
129
130
134
135
135
134
134
133
135
134
134
120
119
120
129
130
129
128
127
127
123
123
123
124
124
123
127
127
127
126
127
127
125
126
125
137
137
136
129
130
130
128
127
128
128
127
128
130
131
131
130
129
130
130
129
130
123
122
122
128
128
128
124
124
124
121
120
121
133
132
133
130
130
130
121
122
121
126
126
126
120
119
120
130
130
130
130
130
130
120
120
120
125
125
125
131
131
130
125
126
125
124
125
124
126
127
126
124
124
125
125
126
126
124
124
123
119
119
120
132
132
133
122
123
123
119
119
119
128
127
127
133
134
134
122
122
121
120
120
120
123
124
124
125
125
125
128
128
127
122
122
121
122
122
121
138
138
138
128
128
127
126
127
126
124
124
124
122
121
122
120
121
121
120
120
121
125
126
125
124
124
124
134
134
133
121
121
120
133
132
132
129
130
129
132
132
131
138
139
138
119
118
118
128
128
128
128
127
127
124
125
125
122
123
122
136
136
137
128
128
127
120
120
119
126
126
125
129
129
128
133
134
133
132
131
132
123
123
122
128
128
129
129
130
130
134
133
133
128
128
127
128
129
129
119
118
119
127
127
126
123
122
123
125
125
125
124
124
123
138
138
137
122
122
123
127
127
127
129
130
130
127
127
126
124
125
124
133
134
134
128
127
127
131
132
132
121
120
120
122
122
122
122
122
121
131
132
131
137
137
136
124
125
125
121
122
121
132
132
131
135
134
135
132
132
132
125
126
125
123
123
122
129
128
128
128
127
128
133
134
134
131
130
131
134
135
135
122
122
122
126
125
125
131
131
130
127
127
126
122
121
122
123
123
123
127
128
128
129
129
130
128
129
129
132
133
132
118
118
117
126
127
127
119
118
119
125
125
126
127
126
127
120
120
120
129
128
128
133
133
134
120
121
120
124
123
124
124
124
124
136
137
136
130
130
130
135
136
135
129
129
128
135
135
134
131
132
132
126
126
125
125
124
125
122
123
123
128
128
128
128
129
128
137
136
136
129
129
129
119
119
120
132
132
132
125
125
125
130
130
130
124
124
124
129
128
128
121
122
122
120
121
120
131
131
131
129
130
129
125
124
124
129
128
128
120
121
121
130
130
130
120
120
119
125
124
124
126
127
127
123
124
123
127
126
126
130
130
130
123
123
123
134
134
134
131
130
131
124
123
123
125
124
124
129
130
130
119
119
118
125
125
124
136
136
137
127
127
127
127
127
127
119
118
119
126
126
127
123
124
124
128
127
127
131
131
130
122
122
123
120
121
120
131
131
132
136
136
135
128
127
128
133
133
132
130
130
129
135
135
135
134
135
135
129
128
128
132
132
132
126
127
126
130
131
131
130
131
131
126
126
125
125
126
125
130
130
130
125
124
125
122
123
122
127
128
127
126
126
125
134
135
135
136
136
136
129
129
129
122
122
122
122
121
122
132
132
131
128
128
129
133
133
132
120
121
121
120
119
120
125
126
126
124
125
125
137
137
136
129
129
129
127
127
127
120
119
120
135
135
135
125
124
124
133
133
134
131
132
131
127
126
127
133
133
132
120
119
119
127
127
128
124
124
124
134
134
133
122
122
123
132
132
133
135
136
136
125
124
124
135
134
135
122
122
122
122
121
121
122
123
123
133
133
134
126
127
126
131
132
132
121
121
122
133
133
133
128
128
128
119
119
119
121
122
121
122
121
122
126
126
126
134
134
133
133
133
132
123
124
124
127
127
126
118
119
118
130
131
131
120
120
121
131
130
131
129
128
129
125
125
126
129
129
130
135
135
134
138
139
139
129
129
128
132
133
133
135
135
136
127
126
126
132
132
133
127
127
128
128
127
127
137
138
138
130
130
130
121
122
122
123
124
124
132
133
132
125
125
126
129
130
129
127
126
127
131
131
130
127
127
127
126
126
126
124
124
125
137
137
137
133
134
133
130
130
130
125
125
124
132
132
132
131
131
130
130
129
130
136
137
137
130
130
130
128
128
129
126
127
126
124
123
124
128
128
128
130
130
130
120
119
119
124
124
124
125
125
124
127
126
127
136
136
135
127
128
128
121
121
122
127
126
127
129
130
130
132
132
132
125
125
125
123
123
122
133
134
133
130
131
130
124
124
125
128
128
128
133
133
133
122
123
123
131
131
130
124
124
123
133
133
132
128
127
127
129
129
130
127
127
128
120
121
121
134
135
135
131
130
130
125
125
126
124
123
124
132
132
132
134
134
134
126
126
125
124
124
123
130
130
130
136
135
135
135
136
136
134
134
134
130
130
130
128
129
128
128
127
127
125
125
125
127
128
128
127
128
127
125
124
125
129
129
129
126
126
126
124
124
124
124
124
123
123
123
122
134
134
135
129
128
129
134
134
135
125
126
125
129
129
128
127
126
127
133
133
134
124
125
124
130
130
130
121
120
121
130
130
130
133
134
134
127
127
127
128
127
127
134
134
134
121
120
121
126
126
126
129
129
130
130
129
130
126
125
126
131
131
131
118
119
119
131
130
131
122
122
123
122
123
123
130
130
129
122
122
122
124
124
125
134
134
134
135
135
134
128
127
128
119
118
119
130
131
130
127
128
128
128
129
129
135
135
136
131
130
131
129
129
129
128
127
127
122
121
122
130
131
130
129
128
128
125
125
126
124
124
124
122
121
121
134
133
133
124
124
124
136
136
135
130
130
131
119
118
118
119
119
119
129
129
129
123
122
123
126
127
126
135
135
135
119
120
119
126
127
126
133
134
133
119
120
119
122
122
122
126
126
127
127
128
128
120
120
120
125
125
126
128
128
127
129
130
129
130
130
129
126
125
126
129
129
129
132
132
132
132
131
131
132
133
133
134
135
134
128
127
127
122
121
121
133
133
133
128
128
128
127
126
127
130
130
131
122
121
121
129
128
128
132
132
133
124
125
125
130
131
130
120
120
121
122
122
123
128
127
127
126
126
126
126
126
126
134
133
134
127
127
127
133
133
133
126
126
126
124
125
125
123
123
123
134
134
134
133
134
133
128
127
127
128
129
129
128
127
127
124
125
124
127
126
127
131
132
132
126
126
126
118
118
118
133
133
133
133
134
133
134
134
135
126
126
125
131
131
132
132
131
132
126
127
127
135
135
135
121
122
122
128
127
127
135
135
135
134
135
134
135
134
135
124
125
124
127
127
127
127
128
128
134
133
134
128
129
129
124
124
124
132
132
131
127
127
126
132
131
131
122
122
122
133
133
134
122
123
122
136
136
135
133
134
133
127
128
128
128
129
128
136
135
135
123
123
124
123
123
123
126
125
126
131
132
131
122
122
121
127
126
127
119
119
120
130
130
131
123
123
123
136
135
136
132
132
131
121
122
121
129
129
129
125
125
125
132
132
131
121
122
122
123
123
123
127
128
127
133
134
134
126
127
126
125
124
125
129
128
128
132
133
132
125
125
124
134
134
133
123
123
124
135
135
134
126
125
126
123
123
124
129
128
128
126
126
127
137
137
136
127
127
128
123
123
123
127
127
126
122
121
121
128
127
127
132
132
133
121
122
121
123
122
123
131
131
130
123
124
124
134
134
133
131
131
131
122
123
122
125
125
126
125
125
124
124
123
124
129
129
128
122
122
121
134
133
134
123
124
124
129
129
130
128
128
129
135
135
135
124
124
123
130
129
129
120
119
119
135
135
136
128
128
128
121
121
120
130
130
130
134
133
133
132
131
131
129
129
129
124
123
123
122
123
122
118
118
117
132
133
133
133
133
132
133
132
133
124
124
125
123
123
122
131
131
130
131
131
130
121
122
121
126
127
127
134
133
133
125
125
126
120
119
120
126
126
125
123
124
123
127
127
126
127
128
128
135
136
135
134
135
135
134
135
134
122
122
122
131
132
131
126
127
126
133
134
133
128
128
127
130
131
130
128
127
127
129
128
129
133
133
133
126
127
127
129
128
129
129
129
128
128
129
129
131
130
131
126
126
125
131
131
130
134
133
133
128
128
129
124
124
124
125
125
126
132
131
132
129
129
128
128
128
128
128
129
128
118
118
118
131
130
131
122
121
122
130
129
130
121
122
121
135
135
136
129
130
129
118
119
118
130
130
131
125
125
125
136
135
135
129
129
128
133
132
132
132
132
131
131
132
131
125
125
125
122
122
122
129
129
130
131
131
131
119
120
120
129
129
130
137
137
136
126
126
127
121
121
121
131
132
131
130
129
130
133
132
132
128
129
129
127
128
127
130
130
129
118
118
118
123
122
123
132
133
132
126
125
126
131
131
132
139
139
139
131
131
131
129
128
129
121
121
122
126
127
126
126
125
126
129
129
129
127
128
128
135
135
135
123
123
123
138
137
138
125
126
126
126
126
127
130
131
130
128
127
128
130
129
129
123
123
123
135
134
135
128
127
127
124
125
124
123
123
124
126
125
125
122
122
121
129
129
129
128
129
129
123
122
123
129
130
130
120
120
120
133
134
134
132
131
132
133
133
133
123
123
123
128
128
128
129
129
130
119
119
120
135
134
134
125
126
125
118
119
118
128
129
129
128
127
128
122
122
123
119
119
119
134
135
134
130
129
130
131
131
132
119
119
118
128
128
127
136
135
135
133
133
133
131
132
131
127
127
127
131
132
131
131
131
130
126
127
126
119
119
119
129
129
130
135
135
134
130
129
129
134
134
135
121
121
120
133
134
133
126
127
127
136
136
136
125
124
125
129
128
129
131
130
130
134
135
135
128
128
128
127
127
127
125
125
124
117
117
118
133
134
133
134
135
135
131
130
130
127
127
127
131
132
131
128
127
128
130
130
131
121
121
121
131
130
130
123
123
123
120
121
120
129
129
129
125
124
125
124
124
124
120
120
120
123
124
124
128
128
129
124
123
123
120
120
120
127
127
128
127
126
126
126
126
126
125
126
125
130
130
129
120
120
119
119
119
120
129
129
130
120
120
121
135
136
135
122
122
123
122
121
121
126
125
126
124
125
125
134
135
135
131
132
132
122
121
122
128
128
127
122
122
123
122
123
122
128
127
127
127
128
127
127
128
128
127
126
127
131
132
131
133
133
133
131
132
131
126
126
126
135
134
135
132
131
131
133
132
133
128
129
128
125
125
125
133
134
134
122
121
122
130
130
130
123
123
122
128
128
128
133
133
133
135
134
135
131
131
132
123
122
122
117
118
118
124
125
124
128
127
127
133
133
134
120
121
121
132
132
132
128
128
127
136
135
135
124
124
123
122
122
122
122
123
123
134
134
135
126
125
125
122
122
121
136
135
135
126
126
126
132
133
132
129
129
129
129
129
128
127
126
126
131
130
131
123
123
123
123
123
123
132
132
131
130
130
131
130
129
129
127
127
127
124
125
124
126
127
127
133
133
134
133
133
132
120
121
120
120
121
121
121
120
120
122
123
122
127
127
127
132
132
132
119
120
120
119
120
120
120
120
121
123
124
123
120
121
121
120
120
120
125
126
125
133
134
134
133
133
132
135
136
135
127
126
127
129
128
129
131
131
130
132
132
132
127
126
126
127
127
127
118
119
118
134
133
133
129
128
129
121
121
121
119
119
119
129
130
130
132
131
131
127
126
126
126
127
126
134
133
133
135
136
136
122
123
123
137
136
136
126
125
125
132
132
133
121
120
120
122
122
122
124
125
124
134
133
134
120
121
120
131
132
131
130
129
130
136
136
135
130
129
130
132
131
131
127
126
127
120
121
120
135
134
134
129
130
129
125
124
125
123
123
124
120
120
120
129
129
129
127
126
126
121
121
121
128
128
128
124
123
124
120
120
121
122
122
122
121
121
121
124
123
123
119
119
119
130
131
130
125
125
125
133
133
134
132
131
131
125
125
126
125
125
125
134
134
134
131
132
132
124
125
125
126
126
126
125
125
124
128
127
128
128
128
128
127
127
126
121
122
122
128
128
129
129
129
129
120
119
119
127
128
127
132
132
132
136
136
135
131
131
132
126
125
126
130
130
130
122
121
121
118
118
119
128
129
128
128
129
129
135
135
135
124
124
125
125
125
125
125
124
125
129
128
128
130
130
131
128
129
128
131
131
130
126
126
126
132
132
132
128
127
127
136
135
135
125
125
125
126
127
126
123
123
123
125
126
125
118
119
119
124
125
124
127
128
128
120
120
120
125
126
125
121
120
121
128
128
128
124
124
125
129
129
129
128
127
128
127
128
127
131
131
131
126
127
127
125
125
125
134
133
133
126
125
126
126
126
125
123
124
123
120
121
121
132
132
133
120
120
120
128
129
128
135
134
134
119
119
118
134
135
134
116
116
117
132
132
132
118
118
117
121
121
120
135
135
134
121
121
122
134
134
134
130
130
130
126
125
125
130
129
130
133
133
133
127
127
127
131
132
131
123
122
123
123
123
123
125
125
126
126
126
125
130
130
129
128
129
128
134
134
134
123
123
124
133
133
133
122
123
122
132
132
132
135
135
135
126
126
126
129
128
129
126
125
125
123
123
122
131
131
130
128
127
128
127
127
127
133
134
133
134
133
133
131
132
132
134
134
134
125
126
125
122
122
122
123
123
122
133
133
133
126
126
127
124
124
124
123
122
123
131
131
130
124
125
124
125
125
125
130
130
131
131
130
131
125
125
124
128
128
128
119
120
120
121
121
121
130
129
129
128
129
129
130
130
131
123
122
123
131
131
132
131
131
130
120
121
121
132
132
133
122
122
122
126
125
125
123
123
123
132
132
131
132
132
131
118
119
119
127
127
128
133
133
133
124
124
124
133
134
134
124
124
124
126
126
126
134
133
133
126
126
126
131
130
130
127
126
126
130
130
131
125
126
125
127
127
127
131
131
131
130
131
130
136
136
135
128
127
127
127
126
127
130
130
130
121
121
122
131
131
132
124
124
123
132
132
133
128
127
127
132
133
132
131
131
131
129
129
130
132
131
131
126
126
125
126
126
126
126
126
126
125
126
125
129
128
129
130
130
131
130
130
131
131
131
130
130
130
130
126
125
126
133
134
134
134
133
134
120
120
120
125
126
126
126
126
126
129
128
129
131
132
131
126
126
125
135
135
135
124
123
124
129
128
129
130
131
130
126
126
127
123
124
124
132
132
132
129
128
128
132
132
132
130
129
129
116
116
116
125
125
124
129
130
130
124
123
124
132
133
132
124
124
124
124
125
124
127
127
126
126
126
126
127
127
126
131
131
130
131
130
131
128
127
128
127
128
128
125
126
126
124
124
124
126
127
127
133
133
133
127
127
127
132
133
133
127
127
126
128
128
128
131
131
130
118
118
118
129
129
129
128
127
128
126
126
126
131
131
132
131
131
131
128
127
128
123
123
122
124
123
123
125
125
125
131
130
130
136
136
135
122
123
122
130
129
130
128
128
128
123
124
123
127
126
127
126
125
125
135
136
135
120
120
120
124
125
124
123
122
123
131
131
130
130
129
129
128
129
128
133
133
133
122
123
123
126
126
126
128
128
128
121
121
121
129
128
128
120
121
120
134
134
134
134
134
134
139
138
138
135
134
135
124
124
125
131
132
132
125
125
124
123
123
122
128
129
129
129
129
128
120
120
120
126
125
126
129
130
129
126
126
126
133
132
133
123
122
123
128
128
127
119
119
119
125
125
125
129
128
128
130
129
130
127
128
128
130
129
129
127
126
127
123
123
123
123
123
123
117
118
117
127
126
127
127
127
127
134
134
134
124
124
124
128
127
127
124
124
124
128
127
128
130
131
131
124
123
123
136
136
137
130
131
131
132
133
132
122
122
121
131
131
131
129
130
129
130
130
129
127
128
127
125
125
125
129
129
130
131
130
130
124
124
125
131
131
132
127
127
126
133
134
133
131
131
131
133
134
134
125
125
125
128
128
128
124
123
124
127
127
126
128
129
129
119
118
118
124
124
124
126
126
126
124
123
124
126
126
126
122
121
121
127
128
127
122
122
123
126
126
127
126
126
125
127
126
127
129
129
129
131
132
132
128
128
127
133
133
133
119
120
119
123
122
122
130
130
130
129
128
129
131
131
131
130
131
131
124
125
125
120
121
121
132
131
132
118
118
118
133
133
133
125
125
126
129
129
128
130
130
131
135
135
135
128
127
127
136
135
136
137
137
136
126
125
126
135
136
135
128
128
127
121
120
121
133
133
134
131
131
131
128
127
127
133
132
132
125
126
125
125
125
124
126
125
126
127
128
127
136
136
137
134
134
133
131
130
130
131
132
132
136
136
135
124
124
124
122
122
121
131
132
132
134
134
134
122
123
122
123
124
124
126
127
127
124
124
123
131
131
131
133
132
132
118
118
119
136
137
137
127
127
128
123
124
124
134
135
135
130
130
129
132
132
133
125
124
124
129
129
129
135
135
134
126
127
126
129
129
129
128
127
127
123
122
122
134
135
135
129
130
130
132
133
132
136
135
135
130
130
130
129
128
128
131
132
131
128
127
127
125
125
124
129
129
130
133
132
133
135
135
135
132
132
133
138
137
138
138
138
138
127
127
127
127
128
127
122
121
122
138
138
139
131
130
131
128
127
128
133
132
133
125
125
125
124
125
124
124
124
123
118
118
118
135
136
135
124
124
125
128
128
129
134
134
134
123
123
123
126
126
125
133
133
132
126
126
126
128
127
127
132
133
132
133
133
133
129
129
129
132
132
133
128
129
129
123
122
123
122
122
123
136
135
135
137
138
138
133
133
134
128
128
127
123
123
124
128
128
128
122
122
122
126
126
126
134
133
133
131
131
132
132
133
133
123
122
122
131
130
130
133
132
132
130
130
129
127
126
127
130
130
130
125
126
125
130
130
130
128
127
128
136
136
137
130
130
129
121
121
121
131
132
131
126
126
125
128
128
128
133
132
132
128
128
128
125
124
125
125
125
125
123
122
122
130
130
130
136
135
135
132
131
132
121
122
121
127
127
127
117
118
118
130
129
129
130
130
131
124
125
124
128
129
128
134
133
133
123
122
122
131
131
131
133
134
134
123
123
123
136
135
135
121
120
120
131
131
132
126
126
127
127
127
126
124
125
124
128
128
128
126
125
126
133
133
134
135
135
135
125
125
125
131
132
132
128
129
128
133
133
132
123
123
123
135
135
135
122
122
122
127
128
127
133
133
133
131
131
130
128
128
128
126
126
127
129
129
129
120
121
120
135
135
136
133
132
133
129
128
128
129
128
128
123
124
124
129
129
130
130
131
130
128
128
128
127
127
127
129
129
129
137
136
137
129
129
129
138
138
138
129
129
129
132
132
133
129
130
130
126
127
126
132
132
131
129
128
128
127
127
127
127
128
127
130
129
130
133
132
132
125
126
125
130
130
131
127
127
127
128
127
127
131
131
131
126
125
126
127
126
127
133
133
133
127
126
127
124
125
125
126
125
125
131
132
131
133
133
133
130
129
130
131
131
131
134
134
133
127
126
127
134
135
135
127
126
126
124
124
124
128
128
129
124
125
125
124
124
123
126
126
126
128
128
129
127
128
127
134
133
134
127
127
128
118
119
119
125
125
126
129
130
129
132
131
131
128
127
127
129
129
130
124
124
123
126
127
126
125
125
126
128
128
128
122
121
121
125
124
124
134
134
134
117
117
118
128
127
127
120
121
121
133
132
133
122
121
122
126
127
127
127
128
127
121
121
120
129
129
129
127
127
127
131
132
132
128
128
127
129
130
130
130
130
130
122
122
122
129
130
129
130
130
130
127
127
128
132
132
132
127
127
128
134
133
134
124
124
125
135
135
135
123
123
123
134
133
134
128
128
128
132
132
131
128
128
128
126
127
126
134
133
134
121
121
121
126
125
125
123
122
123
121
120
121
129
129
128
128
127
128
136
135
136
132
132
131
126
126
126
133
132
132
127
126
126
132
132
131
136
136
135
123
122
122
122
123
122
132
131
132
129
130
129
126
125
126
136
135
135
131
130
130
128
129
128
131
131
131
129
128
129
128
128
127
124
125
124
119
119
120
117
118
118
125
124
124
130
129
129
131
131
130
124
124
123
128
129
129
131
132
131
130
130
130
128
129
128
128
127
127
127
128
127
121
121
122
126
125
125
127
127
126
134
134
135
125
124
124
120
120
119
124
123
124
124
125
125
134
134
135
130
130
130
124
123
123
131
131
130
122
122
122
127
127
127
127
127
127
134
133
133
130
130
130
128
128
129
131
130
130
134
135
134
130
130
131
139
139
139
129
129
128
132
132
132
126
126
127
124
124
124
124
125
125
129
128
129
131
132
131
128
128
128
121
122
121
128
127
127
131
131
132
123
123
123
122
122
123
133
133
133
124
124
124
125
126
126
127
126
126
122
122
122
128
127
127
127
128
128
133
133
134
120
119
120
121
121
121
123
122
123
125
126
125
120
121
121
124
124
123
128
129
128
129
129
128
125
126
125
135
134
135
123
123
123
119
120
120
127
127
126
127
128
127
133
133
133
126
127
126
133
132
132
119
119
120
123
123
124
127
126
126
137
136
136
132
131
132
126
125
126
137
137
137
121
121
122
128
128
127
127
127
127
129
129
128
118
117
117
130
129
129
125
124
124
119
119
119
130
129
129
125
125
126
126
127
127
121
122
121
126
126
126
125
124
124
129
129
129
126
126
127
131
132
131
132
132
133
125
125
124
134
134
133
129
129
128
133
134
134
124
124
125
125
126
125
128
128
128
132
131
131
130
129
130
129
128
128
128
128
128
126
125
126
127
127
128
120
120
119
132
132
132
124
125
124
126
127
127
122
123
123
130
130
130
124
124
124
123
123
123
123
122
123
127
127
127
125
126
126
128
128
128
132
133
132
117
117
118
126
126
126
129
129
130
123
124
123
128
129
129
128
127
128
132
132
132
128
128
127
128
128
128
123
123
123
127
127
127
122
123
123
135
134
135
120
120
120
129
130
129
127
127
127
136
137
137
134
134
134
127
128
128
128
129
129
122
123
123
120
120
120
128
127
127
130
130
130
122
122
123
128
128
127
126
125
125
125
125
126
129
129
128
132
133
133
126
126
125
121
121
122
134
134
133
128
127
127
125
125
126
126
127
126
121
121
121
125
124
125
130
129
130
132
133
133
126
125
126
132
131
132
123
123
123
126
125
126
128
127
127
123
122
123
125
126
126
135
135
135
128
129
128
126
125
125
135
135
134
127
127
128
130
129
129
130
131
130
129
129
129
120
119
120
125
124
124
124
123
124
133
133
133
131
131
131
128
127
127
132
131
132
128
127
127
128
128
127
130
130
129
126
127
127
135
135
135
128
127
128
125
126
126
134
134
134
132
133
132
137
137
138
125
125
125
126
126
125
127
127
127
124
123
124
125
124
125
136
136
135
134
133
134
128
128
128
127
127
127
129
129
129
135
134
134
134
135
135
136
137
137
125
124
125
133
133
134
126
125
125
132
133
132
123
124
123
131
132
132
123
124
123
120
121
121
122
123
123
126
127
127
119
119
119
126
126
125
121
120
121
122
121
121
133
133
133
124
125
124
127
127
126
128
127
127
128
128
128
128
127
128
125
125
126
130
130
130
132
132
131
130
130
131
124
124
124
121
121
122
127
127
128
130
130
130
119
120
120
129
129
129
133
133
134
130
129
129
128
127
127
123
123
124
134
134
133
118
118
119
134
133
134
126
127
127
122
122
122
125
126
126
124
123
123
130
130
130
129
129
129
135
135
136
130
131
131
127
127
127
130
130
130
128
127
127
134
133
134
137
137
136
122
122
122
118
119
118
123
122
122
126
126
126
129
129
128
133
132
133
131
130
130
128
128
128
133
133
132
135
135
136
124
124
123
134
133
134
128
128
128
133
133
132
129
129
129
131
132
131
132
132
132
128
129
128
126
126
126
124
123
123
123
123
123
133
132
133
130
130
129
127
128
128
123
123
123
130
130
130
133
133
133
131
130
130
121
122
121
131
130
130
124
125
124
128
128
128
120
121
120
131
131
132
119
118
118
122
122
121
128
127
127
133
132
133
126
125
126
123
123
123
135
136
136
132
133
132
131
131
131
128
128
128
128
128
128
123
123
124
133
133
133
125
124
125
127
127
126
131
131
130
133
133
132
127
127
128
121
121
120
130
130
129
129
128
129
123
123
123
128
127
128
131
131
131
129
129
129
126
126
127
126
126
126
123
123
124
127
128
127
133
133
133
123
123
123
122
123
123
126
126
126
126
126
126
126
127
127
121
120
120
127
128
128
129
130
129
136
136
136
131
131
131
121
121
121
137
136
137
133
133
132
123
123
122
131
132
131
128
129
128
125
125
124
126
127
126
120
121
121
129
130
130
128
128
129
122
122
121
123
123
122
128
127
127
129
129
129
124
125
124
118
117
118
129
129
129
121
122
121
130
130
130
132
132
131
121
121
121
124
125
124
129
128
129
127
127
127
126
125
125
131
132
132
128
128
128
134
133
133
124
123
123
128
127
127
120
121
120
131
130
131
127
126
126
128
129
128
131
132
132
132
132
131
131
131
131
128
128
128
119
119
120
127
128
128
128
127
128
130
131
131
132
132
133
134
135
134
124
123
123
124
124
123
122
121
122
127
128
127
