P3
64 64
255
221
221
221
221
221
221
221
221
221
221
221
221
221
221
221
221
221
221
220
222
223
221
221
221
221
221
221
211
211
213
222
225
221
221
221
221
219
215
219
221
221
221
221
221
221
220
218
217
217
217
218
221
221
221
221
221
221
224
224
224
221
221
221
221
221
221
221
221
221
230
227
225
221
221
221
221
221
221
221
221
221
221
221
221
221
221
221
221
221
221
221
221
221
221
221
221
221
221
221
221
221
221
218
218
222
214
213
216
221
221
221
225
224
222
221
221
221
221
221
221
221
221
221
218
215
215
221
221
221
221
221
221
221
221
221
221
221
221
221
221
221
221
221
221
221
221
221
212
209
208
221
221
221
221
221
221
221
221
221
221
221
221
221
221
221
221
221
221
221
221
221
221
221
221
220
221
220
221
221
221
221
221
221
221
221
221
221
221
221
221
221
221
221
221
221
221
221
221
221
221
221
221
221
221
221
221
221
221
221
221
221
221
221
221
221
221
221
221
221
221
221
221
221
221
221
221
221
221
221
221
221
221
221
221
221
221
221
221
221
221
221
221
221
221
221
221
221
221
221
221
221
221
221
221
221
221
221
221
221
221
221
229
229
228
221
221
221
221
221
221
221
221
221
221
221
221
221
221
221
221
221
221
221
221
221
221
221
221
221
221
221
221
221
221
221
221
221
221
221
221
217
213
214
221
221
221
221
221
221
221
221
221
221
221
221
221
221
221
221
221
221
221
221
221
221
221
221
221
221
221
221
221
221
224
226
227
221
221
221
221
221
221
221
221
221
221
221
221
218
216
219
221
221
221
220
220
222
221
221
221
221
221
221
221
221
221
221
221
221
221
221
221
221
220
222
221
221
221
221
221
221
221
221
221
223
220
222
221
221
221
221
221
221
221
221
221
221
221
221
221
221
221
221
221
221
221
221
221
221
221
221
221
221
221
221
221
221
220
218
222
218
219
222
221
221
221
221
221
221
221
221
221
221
221
221
221
221
221
221
221
221
221
221
221
221
221
221
228
225
229
221
221
221
221
221
221
221
221
221
221
221
221
221
221
221
221
221
221
221
221
221
221
221
221
221
221
221
221
221
221
221
221
221
215
213
216
221
221
221
221
221
221
221
221
221
221
221
221
221
221
221
221
221
221
218
218
215
221
221
221
221
221
221
221
221
221
221
221
221
221
221
221
221
221
221
221
221
221
221
221
221
221
221
221
226
225
223
221
221
221
221
221
221
221
221
221
221
221
221
221
221
221
221
221
221
217
217
218
221
221
221
224
221
225
221
221
221
221
221
221
221
221
221
221
221
221
221
221
221
222
225
225
221
221
221
221
221
221
221
221
221
221
221
221
221
221
221
221
221
221
221
221
221
221
221
221
221
221
221
221
221
221
221
219
218
221
221
221
221
221
221
221
221
221
221
221
221
223
226
222
221
221
221
221
221
221
221
223
222
215
216
213
221
221
221
221
221
221
225
223
224
221
221
221
221
221
221
221
221
221
221
221
221
221
221
221
221
221
221
221
221
221
221
221
221
221
221
221
225
221
224
220
220
223
221
221
221
221
221
221
221
221
221
221
221
221
221
221
221
221
221
221
216
213
216
221
221
221
221
221
221
221
221
221
221
221
221
221
221
221
221
221
221
221
221
221
221
221
221
221
220
219
222
226
225
221
221
221
221
221
221
221
221
221
221
221
221
221
221
221
221
221
221
221
221
221
221
221
221
225
227
223
221
221
221
221
221
221
221
221
221
221
221
221
221
221
221
224
224
224
221
221
221
221
221
221
221
221
221
221
221
221
221
221
221
221
221
221
221
221
221
221
221
221
221
221
221
221
221
221
221
221
221
221
221
221
221
221
221
211
213
215
221
221
221
221
221
221
221
221
221
221
221
221
221
221
221
221
221
221
221
221
221
221
221
221
221
221
221
221
221
221
221
221
221
221
221
221
221
221
221
221
221
221
221
221
221
221
221
221
221
221
221
221
221
221
221
221
221
221
221
221
221
221
221
221
221
221
221
221
221
221
221
221
221
221
221
221
221
221
221
221
221
221
221
221
221
221
221
221
221
221
221
221
221
221
221
221
221
221
221
227
229
228
221
221
221
221
221
221
221
221
221
221
221
221
221
221
221
221
221
221
221
221
221
221
221
221
221
221
221
221
221
221
221
221
221
221
221
221
221
221
221
221
221
221
228
228
230
221
221
221
221
221
221
221
221
221
221
221
221
221
221
221
221
221
221
221
221
221
221
221
221
221
221
221
221
221
221
221
221
221
221
221
221
221
221
221
221
221
221
221
221
221
221
221
221
225
225
224
221
221
221
221
221
221
221
221
221
221
221
221
221
221
221
221
221
221
221
221
221
221
221
221
221
221
221
221
221
221
221
221
221
221
221
221
221
221
221
224
225
223
221
221
221
214
213
211
221
221
221
221
221
221
225
221
224
221
221
221
221
221
221
221
221
221
221
221
221
221
221
221
221
221
221
221
221
221
221
221
221
221
221
221
221
221
221
221
221
221
221
221
221
221
221
221
217
218
218
221
221
221
221
221
221
221
221
221
221
221
221
221
221
221
221
221
221
221
221
221
221
221
221
221
221
221
221
221
221
221
221
221
221
221
221
221
221
221
226
226
224
221
221
221
221
221
221
221
221
221
221
221
221
221
221
221
221
221
221
221
221
221
221
221
221
221
221
221
221
221
221
221
221
221
221
221
221
224
221
225
221
221
221
221
221
221
221
221
221
221
221
221
221
221
221
221
221
221
221
221
221
221
221
221
221
221
221
221
221
221
221
221
221
221
221
221
216
216
216
221
221
221
221
221
221
221
221
221
221
221
221
221
221
221
221
221
221
221
221
221
221
221
221
221
221
221
221
221
221
221
221
221
221
221
221
221
221
221
213
212
210
221
221
221
224
224
220
221
221
221
221
221
221
221
221
221
221
221
221
221
221
221
221
221
221
221
221
221
221
221
221
221
221
221
221
221
221
221
221
221
222
224
220
221
221
221
221
221
221
221
221
221
221
221
221
221
221
221
221
221
221
221
221
221
221
221
221
221
221
221
221
221
221
221
221
221
221
221
221
221
221
221
221
221
221
209
213
213
221
221
221
221
221
221
225
226
228
221
221
221
221
221
221
221
221
221
221
221
221
221
221
221
221
221
221
221
221
221
221
221
221
221
221
221
224
220
221
221
221
221
221
221
221
220
221
217
221
221
221
221
221
221
221
221
221
221
221
221
221
221
221
221
221
221
221
221
221
221
221
221
221
221
221
224
224
224
221
221
221
222
223
224
221
221
221
221
221
221
221
221
221
221
221
221
221
221
221
221
221
221
221
221
221
221
221
221
221
221
221
221
221
221
221
221
221
221
221
221
221
221
221
221
221
221
221
221
221
221
221
221
221
221
221
221
221
221
221
221
221
221
221
221
221
221
221
221
221
221
221
221
221
221
221
221
221
221
221
221
220
219
221
221
221
221
221
221
221
221
221
221
221
221
208
211
212
221
221
221
221
221
221
221
221
221
221
221
221
221
221
221
221
221
221
228
224
227
221
221
221
221
221
221
221
221
221
221
221
221
221
221
221
215
218
217
221
221
221
221
221
221
221
221
221
221
221
221
213
211
210
221
221
221
221
221
221
221
221
221
221
221
221
221
221
221
221
221
221
216
217
218
221
221
221
221
221
221
221
221
221
221
221
221
221
221
221
221
221
221
221
221
221
221
221
221
217
218
220
221
221
221
212
215
212
221
221
221
212
211
212
221
221
221
212
212
214
214
216
214
221
221
221
221
221
221
221
221
221
221
221
221
221
221
221
221
221
221
221
221
221
221
221
221
216
219
216
221
221
221
226
230
227
212
214
210
221
221
221
221
221
221
221
221
221
221
221
221
214
212
211
227
226
230
221
221
221
221
221
221
221
221
221
219
219
216
221
221
221
221
221
221
221
221
221
221
221
221
221
221
221
221
221
221
221
221
221
221
221
221
212
211
214
221
221
221
220
224
223
221
218
220
221
221
221
220
221
222
221
221
221
215
213
213
221
221
221
221
221
221
221
221
221
221
221
221
221
221
221
228
229
226
221
221
221
221
221
221
221
221
221
221
221
221
221
221
221
221
221
221
221
221
221
216
212
214
221
221
221
221
221
221
221
221
221
211
213
214
223
226
223
221
221
221
221
221
221
226
223
225
221
221
221
223
220
222
221
221
221
221
221
221
221
221
221
221
221
221
221
221
221
221
221
221
221
221
221
221
221
221
221
221
221
225
226
227
221
221
221
221
221
221
221
221
221
221
221
221
221
221
221
221
221
221
221
221
221
221
221
221
221
221
221
221
221
221
221
221
221
221
220
223
221
221
221
221
221
221
224
224
223
219
216
219
221
221
221
221
221
221
221
221
221
221
221
221
221
221
221
221
221
221
221
221
221
221
221
221
221
221
221
221
221
221
221
221
221
221
221
221
221
221
221
221
221
221
221
221
221
221
221
221
228
228
225
228
227
224
221
221
221
221
221
221
221
221
221
221
221
221
221
221
221
221
221
221
221
221
221
221
221
221
221
221
221
221
221
221
221
221
221
221
221
221
221
221
221
225
227
223
221
221
221
221
221
221
221
221
221
221
221
221
221
221
221
221
221
221
221
221
221
221
221
221
221
221
221
221
221
221
221
221
221
221
221
221
221
221
221
221
221
221
221
221
221
221
221
221
221
221
221
221
221
221
221
221
221
221
221
221
221
221
221
221
221
221
221
221
221
221
221
221
221
221
221
221
221
221
221
221
221
221
221
221
215
215
214
221
221
221
221
221
221
221
221
221
221
221
221
221
221
221
221
221
221
221
221
221
221
221
221
221
221
221
221
221
221
221
221
221
221
221
221
216
213
214
221
221
221
227
226
227
221
221
221
221
221
221
221
221
221
221
221
221
221
221
221
221
221
221
221
221
221
221
221
221
221
221
221
221
221
221
221
221
221
224
224
224
221
221
221
221
221
221
221
221
221
221
221
221
221
221
221
224
223
220
216
217
214
221
221
221
221
221
221
221
221
221
221
221
221
221
221
221
221
221
221
221
221
221
221
221
221
221
221
221
221
221
221
221
221
221
221
221
221
221
221
221
221
221
221
221
221
221
221
221
221
225
229
227
221
221
221
221
221
221
221
221
221
221
221
221
221
221
221
221
221
221
221
221
221
221
221
221
221
221
221
221
221
221
221
221
221
221
221
221
221
221
221
221
221
221
221
221
221
221
221
221
221
221
221
221
221
221
221
221
221
221
221
221
221
221
221
221
221
221
221
221
221
221
221
221
221
221
221
221
221
221
221
221
221
221
221
221
221
221
221
221
221
221
221
221
221
221
221
221
221
221
221
221
221
221
221
221
221
221
221
221
221
221
221
221
221
221
221
221
221
221
221
221
221
221
221
221
221
221
221
221
221
221
221
221
221
221
221
221
221
221
221
221
221
221
221
221
228
227
230
221
221
221
221
221
221
221
221
221
221
221
221
221
221
221
221
221
221
221
221
221
221
221
221
221
221
221
221
221
221
214
215
212
221
221
221
221
221
221
221
221
221
221
221
221
221
221
221
221
221
221
221
221
221
221
221
221
221
221
221
221
221
221
221
221
221
221
221
221
221
221
221
221
221
221
221
221
221
221
221
221
221
221
221
221
221
221
221
221
221
221
221
221
221
221
221
221
221
221
218
217
216
221
221
221
221
221
221
221
221
221
221
221
221
221
221
221
221
221
221
220
217
220
221
221
221
221
221
221
221
221
221
221
221
221
221
221
221
221
221
221
215
217
218
220
218
220
221
221
221
221
221
221
221
221
221
221
221
221
221
221
221
221
221
221
221
221
221
221
221
221
221
221
221
221
221
221
221
221
221
221
221
221
221
221
221
221
221
221
221
221
221
221
221
221
221
221
221
221
221
221
218
215
217
221
221
221
221
221
221
216
218
217
221
221
221
221
221
221
221
221
221
221
221
221
221
221
221
221
221
221
221
221
221
221
221
221
221
221
221
221
221
221
221
221
221
221
221
221
221
221
221
221
221
221
221
221
221
221
221
221
221
221
221
221
221
221
221
221
221
221
221
221
221
221
221
221
221
221
221
221
221
221
221
221
221
221
221
221
221
221
221
221
221
221
221
221
221
221
221
221
221
221
221
221
221
211
211
214
221
221
221
221
221
221
221
221
221
221
221
221
221
221
221
227
223
224
221
221
221
221
221
221
221
221
221
221
221
221
221
221
221
216
217
216
221
221
221
221
221
221
221
221
221
221
221
221
221
221
221
221
221
221
221
221
221
221
221
221
221
221
221
221
221
221
221
221
221
221
221
221
221
221
221
221
221
221
221
221
221
221
221
221
221
221
221
221
221
221
221
221
221
221
221
221
221
221
221
221
221
221
221
221
221
221
221
221
221
221
221
221
221
221
221
221
221
221
221
221
221
221
221
221
221
221
225
222
221
221
221
221
221
221
221
221
221
221
221
221
221
221
221
221
221
221
221
221
221
221
221
221
221
221
221
221
221
221
221
221
221
221
221
221
221
221
221
221
225
226
222
221
221
221
223
224
227
221
221
221
221
221
221
221
221
221
221
221
221
221
221
221
221
221
221
221
221
221
221
221
221
222
226
226
221
221
221
221
221
221
221
221
221
221
221
221
221
221
221
221
221
221
226
226
228
221
221
221
212
216
214
221
221
221
221
221
221
225
221
225
226
227
226
221
221
221
222
223
220
221
221
221
221
221
221
221
221
221
225
229
227
221
221
221
221
221
221
215
214
211
221
221
221
221
221
221
229
229
228
221
221
221
221
221
221
221
221
221
221
221
221
221
221
221
221
221
221
221
221
221
221
221
221
221
221
221
221
221
221
212
214
215
221
221
221
221
221
221
221
221
221
221
221
221
221
221
221
214
214
211
223
222
220
221
221
221
221
221
221
221
221
221
221
221
221
221
221
221
221
221
221
229
225
227
212
214
210
221
221
221
221
221
221
221
221
221
221
221
221
221
221
221
221
221
221
221
221
221
220
218
221
216
217
214
217
221
221
221
221
221
229
225
228
221
221
221
216
218
219
221
221
221
221
221
221
221
221
221
221
221
221
221
221
221
221
221
221
221
221
221
221
221
221
221
221
221
221
221
221
221
221
221
221
218
220
221
221
221
221
221
221
221
221
221
221
221
221
221
221
221
221
221
221
221
221
221
221
221
221
226
227
230
221
221
221
221
221
221
228
230
229
221
221
221
221
221
221
221
221
221
221
221
221
221
221
221
221
221
221
221
221
221
221
221
221
221
221
221
212
212
213
221
221
221
226
228
226
221
221
221
221
221
221
221
221
221
221
221
221
221
221
221
221
221
221
221
219
218
221
221
221
215
217
218
221
221
221
221
221
221
215
215
217
221
221
221
221
221
221
221
221
221
221
221
221
221
221
221
221
221
221
221
221
221
221
221
221
221
221
221
221
221
221
221
221
221
221
223
224
216
213
215
221
221
221
221
221
221
221
221
221
221
221
221
221
221
221
221
221
221
221
221
221
221
221
221
221
221
221
221
221
221
221
221
221
221
221
221
221
221
221
221
221
221
221
221
221
223
224
221
221
221
221
221
221
221
221
221
221
221
221
221
213
213
217
221
221
221
221
221
221
221
221
221
221
221
221
221
221
221
221
221
221
216
218
214
221
221
221
221
221
221
221
221
221
221
223
220
221
221
221
221
221
221
221
221
221
221
221
221
221
221
221
221
221
221
211
213
210
221
221
221
221
221
221
221
221
221
221
221
221
221
221
221
220
218
217
217
217
220
221
221
221
221
221
221
221
221
221
221
221
221
221
221
221
221
221
221
221
221
221
221
221
221
221
221
221
221
221
221
221
221
221
221
221
221
221
221
221
216
219
218
221
221
221
221
221
221
221
221
221
221
221
221
221
221
221
221
221
221
221
221
221
221
221
221
221
221
221
221
221
221
221
221
221
221
221
221
221
221
221
221
221
221
221
221
221
221
221
221
221
221
221
221
221
221
221
221
221
221
221
221
221
221
221
221
221
221
221
221
221
221
221
221
221
221
221
214
211
212
221
221
221
221
221
221
221
221
221
221
221
221
215
215
215
221
221
221
221
221
221
221
221
221
221
221
221
221
221
221
221
221
221
221
221
221
221
221
221
212
213
214
221
221
221
221
221
221
221
221
221
221
221
221
221
221
221
221
221
221
221
221
221
221
221
221
221
221
221
221
221
221
221
221
221
225
229
229
221
221
221
221
221
221
212
213
210
221
221
221
217
218
217
221
221
221
221
221
221
221
221
221
221
221
221
221
221
221
221
221
221
221
221
221
221
221
221
221
221
221
221
221
221
226
223
223
221
221
221
219
217
220
221
221
221
221
221
221
221
221
221
221
221
221
221
221
221
221
221
221
221
221
221
222
224
224
221
221
221
229
225
227
221
221
221
221
221
221
221
221
221
221
221
221
221
221
221
221
221
221
221
221
221
221
221
221
217
220
220
221
221
221
210
211
214
221
221
221
221
221
221
221
221
221
221
221
221
221
221
221
221
221
221
221
221
221
227
227
225
221
221
221
221
221
221
221
221
221
221
221
221
221
221
221
221
221
221
221
221
221
217
214
214
221
221
221
221
221
221
221
221
221
217
220
216
221
221
221
221
221
221
221
221
221
221
221
221
221
221
221
221
221
221
221
221
221
221
221
221
221
221
221
217
220
220
221
221
221
221
221
221
221
221
221
221
221
221
221
221
221
221
221
221
221
221
221
221
221
221
221
221
221
221
221
221
221
221
221
221
221
221
214
213
216
221
221
221
215
216
218
211
214
211
221
221
221
221
221
221
221
221
221
227
227
223
221
221
221
221
221
221
221
221
221
221
221
221
221
221
221
221
221
221
221
221
221
221
221
221
221
221
221
221
221
221
221
221
221
221
221
221
221
221
221
217
218
220
222
224
221
221
221
221
221
221
221
221
221
221
221
221
221
221
221
221
221
221
221
221
221
221
221
221
221
221
221
221
221
221
221
221
221
221
221
221
221
223
225
221
221
221
221
221
221
221
221
221
221
221
221
221
221
221
221
224
222
226
221
221
221
216
216
216
221
221
221
218
220
217
221
221
221
225
225
228
221
221
221
221
221
221
221
221
221
221
221
221
221
221
221
221
221
221
221
221
221
221
221
221
221
221
221
217
217
217
221
221
221
221
221
221
221
221
221
221
221
221
221
221
221
221
221
221
221
221
221
221
221
221
221
221
221
221
221
221
221
221
221
221
221
221
221
221
221
221
221
221
221
221
221
221
221
221
225
228
228
221
221
221
221
221
221
221
221
221
221
221
221
221
221
221
221
221
221
221
221
221
221
221
221
221
221
221
221
221
221
221
221
221
221
221
221
221
221
221
221
221
221
221
221
221
221
221
221
221
221
221
221
221
221
221
220
223
221
221
221
221
221
221
221
221
221
221
221
221
226
227
224
221
221
221
221
221
221
221
221
221
226
227
229
221
221
221
221
221
221
221
221
221
221
221
221
221
221
221
221
221
221
221
221
221
221
221
221
221
221
221
221
221
221
225
225
229
221
221
221
221
221
221
221
221
221
221
221
221
213
210
214
221
221
221
221
221
221
221
221
221
221
221
221
221
221
221
221
221
221
221
221
221
221
221
221
221
221
221
221
221
221
221
221
221
221
221
221
221
221
221
221
221
221
221
221
221
221
221
221
211
214
213
221
221
221
221
221
221
221
221
221
221
221
221
221
221
221
221
221
221
221
221
221
221
221
221
221
221
221
221
221
221
221
221
221
221
221
221
221
221
221
221
221
221
221
221
221
221
221
221
221
221
221
221
221
221
221
221
221
221
221
221
221
221
221
221
221
221
221
221
221
221
221
221
221
221
221
221
221
221
221
221
221
221
221
221
221
221
221
221
221
221
221
221
221
221
221
221
221
221
221
221
221
221
221
221
221
221
221
221
221
221
221
221
221
221
221
221
221
221
221
221
221
221
221
221
221
221
221
221
221
221
221
221
221
221
221
221
221
221
215
214
214
221
221
221
221
221
221
222
226
224
211
211
213
213
212
214
221
221
221
221
221
221
221
221
221
221
221
221
221
221
221
221
221
221
221
221
221
221
221
221
221
221
221
221
221
221
224
224
228
221
221
221
221
221
221
221
221
221
215
212
214
213
210
212
221
221
221
221
221
221
221
221
221
221
221
221
221
221
221
221
221
221
221
221
221
221
221
221
225
227
229
221
221
221
221
221
221
221
221
221
221
221
221
221
221
221
221
221
221
221
221
221
221
221
221
221
221
221
221
221
221
224
221
222
221
221
221
221
221
221
221
221
221
221
221
221
221
221
221
213
216
213
221
221
221
221
221
221
221
221
221
221
221
221
221
221
221
221
221
221
221
221
221
221
221
221
221
221
221
221
221
221
221
221
221
221
221
221
221
221
221
221
221
221
221
221
221
229
228
227
221
221
221
221
221
221
221
221
221
221
221
221
221
221
221
221
221
221
221
221
221
221
221
221
221
221
221
221
221
221
221
221
221
221
221
221
221
221
221
221
221
221
221
221
221
221
221
221
221
221
221
221
221
221
213
215
213
221
221
221
221
221
221
221
221
221
221
221
221
221
221
221
221
221
221
221
221
221
221
221
221
221
221
221
221
221
221
228
224
226
221
221
221
221
221
221
221
221
221
221
221
221
221
221
221
221
221
221
221
221
221
221
221
221
221
221
221
221
221
221
221
221
221
216
214
213
221
221
221
221
221
221
221
221
221
221
221
221
221
221
221
221
221
221
221
221
221
221
221
221
221
221
221
221
221
221
221
221
221
221
221
221
221
221
221
224
220
222
221
221
221
221
221
221
221
221
221
221
221
221
221
221
221
221
221
221
221
221
221
221
221
221
221
221
221
221
221
221
221
221
221
221
221
221
221
221
221
221
221
221
221
221
221
221
221
221
221
221
221
221
221
221
221
221
221
228
224
227
221
221
221
221
221
221
220
222
218
221
221
221
221
221
221
227
224
228
221
221
221
221
221
221
221
221
221
221
221
221
221
221
221
221
221
221
221
221
221
229
225
227
221
221
221
221
221
221
221
221
221
225
225
225
221
221
221
221
221
221
221
221
221
221
221
221
221
221
221
221
221
221
221
221
221
221
221
221
221
221
221
221
221
221
221
221
221
221
221
221
221
221
221
221
221
221
221
221
221
226
224
225
221
221
221
221
221
221
210
213
212
221
221
221
215
212
212
221
221
221
221
221
221
221
221
221
221
221
221
221
221
221
221
221
221
221
221
221
221
221
221
221
221
221
221
221
221
221
221
221
221
221
221
221
221
221
221
221
221
221
221
221
213
216
215
221
221
221
218
217
221
221
221
221
221
221
221
221
221
221
221
221
221
221
221
221
224
223
220
221
221
221
213
210
212
221
221
221
221
221
221
222
222
226
221
221
221
221
221
221
221
221
221
221
221
221
218
218
218
221
221
221
221
221
221
221
221
221
221
221
221
221
221
221
221
221
221
221
221
221
221
221
221
221
221
221
221
221
221
221
221
221
221
221
221
229
229
229
221
221
221
221
221
221
221
221
221
221
221
221
212
211
214
221
221
221
221
221
221
226
223
227
221
221
221
212
214
214
221
221
221
221
221
221
221
221
221
221
221
221
221
221
221
221
221
221
221
221
221
221
221
221
221
221
221
221
221
221
221
221
221
221
221
221
227
223
224
221
221
221
213
213
211
215
215
215
221
221
221
221
221
221
219
217
217
221
221
221
221
221
221
221
221
221
221
221
221
221
221
221
217
216
215
221
221
221
218
221
221
221
221
221
221
221
221
221
221
221
221
221
221
221
221
221
221
221
221
221
221
221
221
221
221
221
221
221
221
221
221
221
221
221
221
221
221
216
216
217
221
221
221
221
221
221
221
221
221
221
221
221
221
221
221
221
221
221
217
215
215
221
221
221
228
224
224
221
221
221
221
221
221
221
221
221
221
221
221
224
225
227
221
221
221
225
230
227
228
224
224
221
221
221
221
221
221
221
221
221
221
221
221
221
221
221
221
221
221
221
221
221
221
221
221
221
221
221
221
221
221
221
221
221
221
221
221
221
221
221
221
221
221
221
221
221
221
221
221
221
221
221
221
221
221
221
221
221
221
221
221
221
221
221
221
221
221
221
221
221
221
221
221
221
221
221
221
221
221
221
221
221
221
221
221
221
221
221
221
221
221
221
221
221
221
221
221
221
221
221
216
214
215
221
221
221
221
221
221
221
221
221
221
221
221
221
221
221
221
221
221
225
229
226
221
221
221
220
219
217
221
221
221
221
221
221
221
221
221
221
221
221
221
221
221
227
223
224
221
221
221
221
221
221
221
221
221
221
221
221
221
221
221
221
221
221
218
221
218
221
221
221
221
221
221
221
221
221
221
221
221
221
221
221
227
225
224
220
224
221
221
221
221
216
214
213
221
221
221
221
221
221
227
229
226
221
221
221
221
221
221
221
221
221
221
221
221
221
221
221
221
221
221
221
221
221
221
221
221
221
221
221
226
230
228
221
221
221
221
221
221
221
221
221
221
221
221
221
221
221
221
221
221
221
221
221
221
221
221
221
221
221
221
221
221
221
221
221
221
221
221
224
226
222
221
221
221
221
221
221
221
221
221
221
221
221
211
214
213
221
221
221
221
221
221
221
221
221
221
221
221
221
221
221
221
221
221
221
221
221
221
221
221
221
221
221
221
221
221
221
221
221
221
221
221
221
221
221
221
221
221
221
221
221
221
221
221
221
221
221
221
221
221
221
221
221
222
224
222
221
221
221
221
221
221
221
221
221
221
221
221
221
221
221
221
221
221
221
221
221
221
221
219
221
221
221
221
221
221
221
221
221
221
221
221
220
223
224
221
221
221
221
221
221
221
221
221
221
221
221
221
221
221
221
221
221
221
221
221
221
221
221
221
221
221
221
221
221
221
221
221
218
222
220
221
221
221
221
221
221
221
221
221
221
221
221
221
221
221
221
221
221
221
221
221
221
221
221
221
221
221
221
221
221
221
221
221
221
221
221
221
221
221
220
222
221
219
220
220
221
221
221
221
221
221
221
221
221
221
221
221
221
221
221
221
221
221
221
221
221
213
214
215
221
221
221
221
221
221
221
221
221
221
221
221
221
221
221
221
221
221
221
221
221
221
221
221
221
221
221
221
221
221
221
221
221
221
221
221
216
218
215
221
221
221
222
223
223
217
218
215
215
215
215
221
221
221
211
215
214
221
221
221
221
221
221
221
221
221
213
210
213
211
213
210
221
221
221
221
221
221
221
221
221
221
221
221
221
221
221
212
209
211
221
221
221
221
221
221
221
221
221
222
224
224
226
225
230
221
221
221
221
221
221
221
221
221
221
221
221
221
221
221
221
221
221
221
221
221
221
221
221
221
221
221
221
221
221
215
212
211
221
221
221
221
221
221
221
221
221
221
221
221
221
221
221
221
221
221
221
221
221
221
221
221
221
221
221
221
221
221
221
221
221
221
221
221
221
221
221
221
221
221
221
221
221
221
221
221
221
221
221
221
221
221
221
221
221
229
228
227
221
221
221
221
221
221
221
221
221
221
221
221
221
221
221
221
221
221
222
223
226
221
221
221
221
221
221
221
221
221
221
221
221
221
222
219
221
221
221
221
221
221
221
221
221
221
221
221
221
221
221
221
221
221
221
221
221
221
221
221
221
221
221
221
221
221
221
221
221
221
221
221
228
230
230
221
221
221
221
221
221
221
221
221
221
221
221
221
221
221
221
221
221
221
221
221
221
221
221
218
216
220
221
222
220
224
224
224
221
221
221
221
221
221
221
221
221
221
221
221
221
221
221
221
221
221
221
221
221
221
221
221
221
221
221
221
221
221
220
220
220
221
221
221
221
221
221
221
221
221
221
221
221
221
221
221
221
221
221
220
221
219
219
222
220
221
221
221
221
221
221
221
221
221
221
221
221
221
221
221
221
221
221
221
221
221
221
221
221
221
221
221
221
221
221
221
221
221
216
214
213
221
221
221
221
221
221
227
224
227
221
221
221
221
221
221
221
221
221
221
221
221
221
221
221
221
221
221
221
221
221
221
221
221
221
221
221
221
221
221
221
221
221
221
221
221
221
221
221
221
221
221
221
221
221
221
221
221
221
221
221
221
221
221
221
221
221
221
221
221
221
221
221
219
219
218
221
221
221
221
221
221
221
221
221
226
228
229
221
221
221
221
221
221
214
217
216
221
221
221
221
221
221
221
221
221
221
221
221
221
221
221
221
221
221
210
211
213
221
221
221
221
221
221
221
221
221
221
221
221
221
221
221
221
221
221
221
221
221
221
221
221
221
221
221
221
221
221
221
221
221
221
221
221
221
221
221
221
221
221
221
221
221
221
221
221
221
221
221
221
221
221
221
221
221
221
221
221
221
221
221
221
221
221
221
221
221
221
221
221
221
221
221
221
221
221
221
221
221
227
227
228
221
221
221
221
221
221
221
221
221
221
221
221
221
221
221
221
221
221
221
221
221
221
221
221
221
221
221
221
221
221
221
221
221
209
213
211
221
221
221
221
221
221
221
221
221
221
221
221
221
221
221
221
221
221
221
221
221
221
221
221
221
221
221
221
221
221
221
221
221
221
221
221
221
221
221
221
221
221
221
221
221
221
221
221
221
221
221
221
221
221
221
221
221
221
221
221
221
221
221
221
221
221
221
221
221
221
221
221
221
221
221
221
221
221
221
221
221
221
221
221
221
221
221
221
221
221
221
221
221
221
221
221
221
221
221
221
221
221
221
221
221
221
221
221
211
213
214
216
220
219
221
221
221
221
221
221
221
221
221
221
221
221
221
221
221
223
220
223
221
221
221
221
221
221
221
221
221
221
221
221
221
221
221
221
221
221
221
221
221
221
221
221
221
221
221
221
221
221
221
221
221
221
221
221
221
221
221
221
221
221
221
221
221
220
218
217
221
221
221
221
221
221
221
221
221
221
221
221
221
221
221
221
221
221
221
221
221
214
218
216
221
221
221
221
221
221
221
221
221
221
221
221
221
221
221
216
216
217
222
221
220
221
221
221
221
221
221
221
221
221
221
221
221
221
221
221
221
221
221
221
221
221
221
221
221
221
221
221
221
221
221
224
224
220
221
221
221
221
221
221
221
221
221
221
221
221
221
221
221
221
221
221
214
211
213
221
221
221
221
221
221
221
221
221
221
221
221
224
228
228
221
221
221
221
221
221
221
221
221
221
221
221
221
221
221
221
221
221
221
221
221
221
221
221
221
221
221
221
221
221
221
221
221
221
221
221
221
221
221
221
221
221
222
222
226
221
221
221
221
221
221
221
221
221
221
221
221
221
221
221
221
221
221
221
221
221
221
221
221
221
221
221
221
221
221
221
221
221
221
221
221
221
221
221
221
221
221
221
221
221
221
221
221
221
221
221
221
221
221
221
221
221
221
221
221
221
221
221
221
221
221
221
221
221
221
221
221
221
221
221
221
221
220
221
221
221
221
221
221
221
221
221
221
221
221
221
221
221
221
221
221
221
221
221
221
221
221
221
221
221
221
221
221
221
221
221
221
221
221
221
221
221
221
221
221
221
221
221
221
221
221
221
221
221
221
221
221
221
221
221
221
221
221
221
221
221
224
222
221
221
221
221
221
221
221
221
221
221
221
221
221
218
220
221
221
221
221
221
221
221
221
221
221
221
221
221
221
221
221
221
221
221
221
221
221
222
220
224
221
221
221
221
221
221
221
221
221
221
221
221
221
221
221
221
221
221
221
221
221
225
224
222
214
214
215
221
221
221
221
221
221
221
221
221
221
221
221
221
221
221
221
221
221
221
221
221
221
221
221
221
221
221
221
221
221
217
220
219
221
221
221
221
221
221
221
221
221
221
221
221
221
221
221
221
221
221
221
221
221
221
221
221
221
221
221
225
228
229
221
221
221
221
221
221
221
221
221
221
221
221
221
221
221
221
221
221
221
221
221
221
221
221
221
221
221
221
221
221
221
221
221
221
221
221
221
221
221
221
221
221
221
221
221
221
221
221
226
227
224
221
221
221
221
221
221
222
223
225
211
214
214
221
221
221
221
221
221
221
221
221
221
221
221
221
221
221
226
226
224
221
221
221
221
221
221
221
221
221
221
221
221
221
221
221
221
221
221
221
221
221
221
221
221
221
221
221
218
219
219
221
221
221
221
221
221
224
225
228
221
221
221
221
221
221
221
221
221
221
221
221
221
221
221
221
221
221
221
221
221
221
221
221
210
212
211
221
221
221
221
221
221
221
221
221
226
225
229
221
221
221
221
221
221
221
221
221
221
221
221
221
221
221
217
217
220
221
221
221
221
221
221
221
221
221
221
221
221
221
221
221
221
221
221
221
221
221
221
221
221
221
221
221
221
221
221
221
221
221
221
221
221
221
221
221
221
221
221
221
221
221
221
221
221
221
221
221
221
221
221
221
221
221
221
221
221
221
221
221
216
219
215
230
229
228
221
221
221
221
221
221
221
221
221
221
221
221
221
221
221
221
221
221
221
221
221
221
221
221
210
211
213
216
214
213
221
221
221
221
221
221
221
221
221
221
221
221
225
226
225
212
210
213
221
221
221
221
221
221
221
221
221
221
221
221
220
216
220
221
221
221
221
221
221
221
221
221
221
221
221
213
216
214
221
221
221
221
221
221
220
218
217
220
217
220
221
221
221
221
221
221
221
221
221
221
221
221
221
221
221
221
221
221
221
221
221
221
221
221
225
221
224
221
221
221
221
221
221
221
221
221
221
221
221
221
221
221
221
221
221
221
221
221
221
221
221
221
221
221
221
221
221
221
221
221
221
221
221
221
221
221
221
221
221
221
221
221
221
221
221
221
221
221
221
221
221
215
218
214
221
221
221
222
223
221
216
215
212
220
218
221
214
214
214
221
221
221
221
221
221
221
221
221
221
221
221
221
221
221
221
221
221
221
221
221
221
221
221
221
221
221
221
221
221
221
221
221
216
219
218
221
221
221
221
221
221
221
221
221
221
221
221
214
218
218
221
221
221
221
221
221
221
221
221
221
221
221
221
221
221
221
221
221
221
221
218
221
221
221
221
221
221
221
221
221
221
221
221
221
221
221
221
221
221
221
221
221
221
221
221
221
221
221
221
221
221
221
221
221
221
221
221
221
221
221
220
222
224
221
221
221
217
215
216
221
221
221
221
221
221
221
221
221
221
221
221
221
221
221
221
221
221
221
221
221
221
221
221
220
223
223
220
217
219
221
221
221
221
221
221
221
221
221
221
221
221
221
221
221
221
221
221
221
221
221
221
221
221
221
221
221
221
221
221
221
221
221
221
221
221
221
221
221
221
221
221
221
221
221
221
221
221
221
221
221
221
221
221
221
221
221
221
221
221
221
221
221
221
221
221
221
221
221
221
221
221
221
221
221
221
221
221
221
221
221
221
221
221
221
221
221
221
221
221
221
221
221
215
215
213
221
221
221
221
221
221
221
221
221
215
217
216
221
221
221
221
221
221
221
221
221
221
221
221
221
221
221
221
221
221
221
221
221
221
221
221
221
221
221
221
221
221
221
221
221
218
215
217
221
221
221
221
221
221
221
221
221
221
221
221
221
221
221
221
221
221
221
221
221
221
221
221
221
221
221
221
221
221
221
221
221
221
221
221
218
220
221
221
221
221
221
221
221
225
229
226
221
221
221
221
221
221
221
221
221
221
221
221
213
213
212
221
221
221
221
221
221
221
221
221
221
221
221
226
227
224
213
217
216
221
221
221
221
221
221
221
221
221
222
225
223
221
221
221
221
221
221
221
221
221
221
221
221
221
221
221
221
221
221
221
221
221
221
221
221
215
215
215
221
221
221
221
221
221
213
215
213
221
221
221
221
221
221
221
221
221
221
221
221
221
221
221
221
221
221
221
221
221
221
221
221
221
221
221
221
221
221
221
221
221
221
221
221
221
221
221
221
221
221
228
228
225
221
221
221
221
221
221
221
221
221
221
221
221
221
221
221
221
221
221
221
221
221
221
221
221
221
221
221
221
221
221
221
221
221
221
221
221
221
221
221
221
221
221
221
221
221
221
221
221
221
221
221
221
221
221
221
221
221
221
221
221
221
221
221
221
221
221
221
221
221
221
221
221
221
221
221
221
221
221
227
225
223
221
221
221
221
221
221
221
221
221
221
221
221
221
221
221
221
221
221
221
221
221
221
221
221
221
221
221
221
221
221
221
221
221
221
221
221
221
221
221
221
221
221
221
221
221
221
221
221
221
221
221
221
221
221
221
221
221
214
212
210
221
221
221
221
221
221
221
221
221
222
222
218
221
221
221
221
221
221
221
221
221
221
221
221
221
221
221
221
221
221
221
221
221
221
221
221
221
221
221
221
221
221
211
213
214
221
221
221
221
221
221
221
221
221
221
221
221
221
221
221
221
221
221
221
221
221
221
221
221
221
221
221
221
221
221
221
221
221
213
217
217
221
221
221
221
221
221
226
224
225
221
221
221
221
221
221
221
221
221
221
221
221
221
221
221
221
221
221
221
221
221
221
221
221
221
221
221
225
223
225
221
221
221
221
221
221
221
221
221
221
221
221
221
221
221
220
224
224
221
221
221
221
221
221
221
221
221
226
226
226
221
221
221
221
221
221
221
221
221
221
221
221
221
221
221
221
221
221
216
218
219
221
221
221
221
221
221
221
221
221
221
221
221
221
221
221
221
221
221
221
221
221
221
221
221
221
221
221
221
221
221
221
221
221
221
221
221
221
221
221
221
221
221
221
221
221
221
221
221
221
221
221
221
221
221
221
221
221
221
221
221
221
221
221
221
221
221
221
221
221
221
221
221
221
221
221
224
220
223
222
221
219
221
221
221
212
212
209
221
221
221
221
221
221
221
221
221
221
221
221
221
221
221
221
221
221
225
228
228
221
221
221
225
224
228
221
221
221
221
221
221
221
221
221
221
221
221
221
221
221
221
221
221
221
221
221
221
221
221
221
221
221
228
225
230
221
221
221
221
221
221
217
218
220
221
221
221
221
221
221
223
221
219
221
221
221
221
221
221
221
221
221
221
221
221
221
221
221
220
222
220
221
221
221
221
221
221
224
226
228
221
221
221
221
221
221
221
221
221
215
215
216
221
221
221
221
221
221
221
221
221
221
221
221
221
221
221
221
221
221
221
221
221
221
221
221
221
221
221
221
221
221
221
221
221
221
221
221
221
221
221
221
221
221
221
221
221
221
221
221
212
210
214
221
221
221
221
221
221
221
221
221
221
221
221
221
221
221
221
221
221
221
221
221
221
221
221
221
221
221
221
221
221
221
221
221
221
221
221
221
221
221
221
221
221
221
221
221
213
210
213
221
221
221
221
221
221
221
221
221
221
221
221
221
221
221
221
221
221
221
221
221
221
221
221
221
222
225
221
221
221
221
221
221
221
221
221
221
221
221
221
221
221
221
221
221
221
221
221
221
221
221
221
221
221
221
221
221
230
226
229
214
218
216
221
221
221
221
221
221
221
221
221
221
221
221
221
221
221
221
221
221
221
221
221
221
221
221
221
221
221
221
221
221
221
221
221
221
221
221
221
221
221
223
226
225
221
221
221
219
219
217
221
221
221
221
221
221
221
221
221
220
218
220
221
221
221
221
221
221
221
221
221
221
221
221
221
221
221
221
221
221
221
221
221
221
221
221
221
221
221
221
221
221
221
221
221
221
221
221
221
221
221
221
221
221
221
221
221
213
213
216
221
221
221
219
219
219
221
221
221
221
221
221
221
221
221
221
221
221
221
221
221
221
221
221
221
221
221
221
221
221
221
221
221
221
221
221
221
221
221
221
221
221
221
221
221
221
221
221
221
221
221
221
221
221
221
221
221
221
221
221
221
221
221
221
221
221
221
221
221
221
221
221
221
221
221
221
221
221
221
221
221
223
219
223
221
221
221
221
221
221
221
221
221
221
221
221
221
221
221
221
221
221
213
213
216
221
221
221
221
221
221
221
221
221
221
221
221
221
221
221
221
221
221
221
221
221
221
221
221
223
220
220
221
221
221
221
221
221
221
221
221
221
221
221
221
221
221
221
221
221
221
221
221
221
221
221
221
221
221
224
226
227
221
221
221
221
221
221
221
221
221
221
221
221
221
221
221
221
221
221
221
221
221
221
221
221
221
221
221
221
221
221
221
221
221
221
221
221
221
221
221
221
221
221
221
221
221
221
221
221
215
214
216
221
221
221
221
221
221
227
226
227
221
221
221
221
221
221
224
221
224
222
221
224
219
218
216
221
221
221
221
221
221
221
221
221
221
221
221
212
210
211
221
221
221
221
221
221
218
217
215
221
221
221
221
221
221
221
221
221
221
221
221
221
221
221
221
221
221
221
221
221
221
221
221
221
221
221
221
221
221
221
221
221
221
221
221
216
216
216
221
221
221
221
221
221
221
221
221
209
213
211
221
221
221
221
221
221
221
221
221
221
221
221
221
221
221
222
223
221
221
221
221
221
221
221
221
221
221
221
221
221
221
221
221
221
221
221
221
221
221
221
221
221
221
221
221
221
221
221
221
221
221
221
221
221
221
221
221
221
221
221
226
223
226
214
213
212
221
221
221
221
221
221
221
221
221
225
226
225
221
221
221
221
221
221
223
220
220
221
221
221
221
221
221
215
216
215
221
221
221
221
221
221
221
221
221
221
221
221
221
221
221
221
221
221
221
221
221
221
221
221
221
221
221
221
221
221
221
221
221
221
221
221
221
221
221
221
221
221
221
221
221
221
221
221
221
221
221
221
221
221
221
221
221
221
221
221
221
221
221
221
221
221
221
221
221
221
221
221
218
218
215
221
221
221
221
221
221
221
221
221
221
221
221
221
221
221
221
221
221
221
221
221
221
221
221
221
221
221
211
212
210
221
221
221
221
221
221
221
221
221
221
221
221
221
221
221
221
221
221
216
213
212
221
221
221
223
220
219
221
221
221
221
221
221
221
221
221
221
221
221
221
221
221
221
221
221
221
221
221
220
223
223
221
221
221
221
221
221
221
221
221
221
221
221
221
221
221
221
221
221
221
221
221
221
221
221
221
221
221
221
221
221
221
221
221
221
221
221
221
221
221
216
216
212
221
221
221
221
221
221
221
221
221
221
221
221
221
221
221
221
221
221
221
221
221
221
221
221
221
221
221
221
221
221
221
221
221
221
221
221
221
221
221
213
216
214
221
221
221
221
221
221
221
221
221
221
221
221
221
221
221
221
221
221
221
221
221
221
221
221
221
221
221
221
221
221
221
221
221
221
221
221
227
229
226
221
221
221
221
221
221
221
221
221
221
221
221
221
221
221
221
221
221
221
221
221
221
221
221
221
221
221
221
221
221
222
220
223
221
221
221
221
221
221
221
221
221
221
221
221
221
221
221
228
224
226
221
221
221
221
221
221
216
218
217
221
221
221
221
221
221
221
221
221
221
221
221
221
221
221
212
214
211
221
221
221
221
221
221
221
221
221
221
221
221
223
226
227
221
221
221
221
221
221
221
221
221
221
221
221
221
221
221
221
221
221
221
221
221
221
221
221
221
221
221
221
221
221
221
221
221
221
221
221
221
221
221
221
221
221
221
221
221
221
221
221
221
221
221
221
221
221
220
221
222
221
221
221
221
221
221
221
221
221
221
221
221
215
215
212
214
211
213
221
221
221
221
221
221
221
221
221
221
221
221
221
221
221
221
221
221
221
221
221
221
221
221
221
221
221
221
221
221
221
221
221
221
221
221
221
221
221
221
221
221
221
221
221
221
221
221
221
221
221
221
221
221
221
221
221
221
221
221
221
221
221
221
221
221
221
221
221
223
226
227
221
221
221
221
221
221
221
221
221
221
221
221
221
221
221
221
221
221
221
221
221
221
221
221
221
221
221
225
229
226
221
221
221
221
221
221
221
221
221
221
221
221
221
221
221
221
221
221
221
221
221
221
221
221
221
221
221
221
221
221
218
217
220
221
221
221
221
221
221
221
221
221
215
213
216
221
221
221
221
221
221
221
221
221
221
221
221
221
221
221
221
221
221
221
221
221
221
221
221
221
221
221
221
221
221
221
221
221
221
221
221
221
221
221
221
221
221
228
228
224
221
221
221
215
214
217
214
211
215
221
221
221
221
221
221
221
221
221
221
221
221
221
221
221
221
221
221
221
221
221
221
221
221
221
221
221
221
221
221
221
221
221
221
221
221
221
221
221
220
221
218
217
219
219
221
221
221
221
221
221
221
221
221
221
221
221
221
221
221
221
221
221
221
221
221
221
221
221
221
221
221
221
223
224
226
225
223
215
218
217
221
221
221
221
221
221
221
221
221
221
221
221
221
221
221
221
221
221
221
221
221
221
221
221
221
221
221
221
221
221
221
221
221
221
221
221
221
221
221
215
217
218
221
221
221
221
221
221
221
221
221
221
221
221
221
221
221
221
221
221
221
221
221
221
221
221
221
221
221
221
221
221
221
221
221
221
221
221
221
221
221
221
221
221
221
221
221
221
221
221
210
213
213
221
221
221
216
220
217
221
221
221
221
221
221
221
221
221
221
221
221
221
221
221
221
221
221
225
225
224
221
221
221
221
221
221
221
221
221
221
221
221
221
221
221
221
221
221
221
221
221
221
221
221
221
221
221
221
221
221
221
221
221
221
221
221
218
221
219
221
221
221
214
216
214
221
221
221
210
212
214
221
221
221
221
221
221
221
221
221
221
221
221
221
221
221
210
213
211
221
221
221
221
221
221
221
221
221
221
221
221
221
221
221
221
221
221
221
221
221
221
221
221
221
221
221
216
217
216
221
221
221
221
221
221
221
221
221
221
221
221
227
228
227
221
221
221
221
221
221
226
227
223
221
221
221
221
221
221
221
221
221
221
221
221
221
221
221
221
221
221
221
221
221
221
221
221
218
218
214
229
225
225
221
221
221
221
221
221
221
221
221
221
221
221
216
212
216
221
221
221
221
221
221
221
221
221
224
225
224
221
221
221
221
221
221
221
221
221
221
221
221
211
210
213
221
221
221
221
221
221
221
221
221
221
221
221
221
221
221
221
221
221
221
221
221
221
221
221
221
221
221
221
221
221
221
221
221
221
221
221
221
221
221
219
216
217
218
217
221
226
227
224
221
221
221
221
221
221
221
221
221
221
221
221
221
221
221
221
221
221
221
221
221
221
221
221
221
221
221
221
221
221
221
221
221
221
221
221
221
221
221
221
221
221
221
221
221
221
221
221
221
221
221
211
214
212
218
215
216
221
221
221
221
221
221
221
221
221
221
221
221
221
221
221
221
221
221
221
221
221
219
221
218
221
221
221
221
221
221
221
221
221
221
221
221
221
221
221
224
225
226
221
221
221
221
221
221
221
221
221
221
221
221
221
221
221
213
213
212
221
221
221
221
221
221
221
221
221
228
227
224
221
221
221
221
221
221
221
221
221
221
221
221
225
225
225
221
221
221
221
221
221
221
221
221
221
221
221
221
221
221
223
222
222
221
221
221
221
221
221
221
221
221
221
221
221
221
221
221
221
221
221
221
221
221
221
221
221
221
221
221
221
221
221
221
221
221
221
221
221
221
221
221
221
221
221
221
221
221
221
221
221
221
221
221
221
221
221
221
221
221
213
210
209
221
221
221
221
221
221
221
221
221
221
221
221
221
221
221
226
225
222
221
221
221
221
221
221
223
220
223
221
221
221
213
212
211
221
221
221
221
221
221
221
221
221
221
221
221
221
221
221
221
221
221
221
221
221
213
217
217
221
221
221
221
221
221
221
221
221
221
221
221
221
221
221
221
221
221
221
221
221
221
221
221
221
221
221
221
221
221
221
221
221
221
221
221
221
221
221
221
221
221
221
221
221
221
221
221
221
221
221
221
221
221
221
221
221
221
221
221
221
221
221
221
221
221
221
221
221
221
221
221
221
221
221
221
221
221
221
221
221
221
221
221
221
221
221
221
221
221
221
221
221
221
221
221
221
221
221
221
221
221
214
217
216
210
213
214
213
211
210
221
221
221
221
221
221
221
221
221
221
221
221
221
221
221
221
221
221
221
221
221
221
221
221
230
226
225
221
221
221
221
221
221
221
221
221
221
221
221
213
211
212
221
221
221
221
221
221
221
221
221
221
221
221
221
221
221
221
221
221
221
221
221
223
224
225
221
221
221
221
221
221
221
221
221
221
221
221
221
221
221
221
221
221
220
224
224
221
221
221
221
221
221
221
221
221
221
221
221
221
221
221
221
221
221
221
221
221
221
221
221
228
228
227
221
221
221
221
221
221
221
221
221
215
215
212
221
221
221
230
229
227
221
221
221
221
221
221
228
227
229
221
221
221
221
221
221
221
221
221
221
221
221
221
221
221
221
221
221
221
221
221
221
221
221
221
221
221
221
221
221
221
221
221
218
220
217
221
221
221
221
221
221
221
221
221
221
221
221
221
221
221
221
221
221
221
221
221
221
221
221
221
221
221
221
221
221
228
229
227
221
221
221
221
221
221
221
221
221
221
221
221
221
221
221
221
221
221
221
221
221
221
221
221
221
221
221
221
221
221
221
221
221
221
221
221
221
221
221
221
221
221
225
225
229
221
221
221
221
221
221
221
221
221
221
221
221
226
226
227
221
221
221
221
221
221
220
223
223
221
221
221
221
221
221
221
221
221
221
221
221
221
221
221
221
221
221
221
221
221
221
221
221
221
221
221
221
221
221
222
225
225
221
221
221
221
221
221
221
221
221
221
221
221
221
221
221
221
221
221
221
221
221
221
221
221
215
213
216
221
221
221
221
221
221
215
214
215
221
221
221
218
220
221
221
221
221
221
221
221
221
221
221
221
221
221
221
221
221
221
221
221
221
221
221
222
222
220
221
221
221
221
221
221
221
221
221
221
221
221
221
221
221
221
221
221
221
221
221
221
221
221
221
221
221
221
219
223
226
227
230
221
221
221
221
221
221
221
221
221
221
221
221
221
221
221
221
221
221
221
221
221
221
221
221
216
215
212
221
221
221
221
221
221
221
221
221
221
221
221
221
221
221
221
219
220
221
221
221
221
218
218
221
221
221
221
221
221
221
221
221
221
221
221
221
221
221
221
221
221
221
221
221
221
221
221
221
221
221
221
221
221
221
221
221
221
221
221
221
221
221
227
228
228
227
229
227
221
221
221
221
221
221
221
221
221
221
221
221
221
221
221
221
221
221
221
221
221
221
221
221
221
221
221
209
213
211
221
221
221
221
221
221
221
221
221
221
221
221
221
221
221
221
221
221
221
221
221
221
221
221
221
221
221
221
221
221
221
221
221
221
221
221
221
221
221
221
221
221
221
221
221
221
224
221
221
221
221
221
221
221
221
221
221
221
221
221
221
221
221
221
221
221
221
221
221
221
221
221
221
221
221
222
219
219
221
221
221
221
221
221
222
221
218
221
221
221
221
221
221
221
221
221
221
221
221
221
221
221
221
221
221
221
221
221
221
221
221
221
221
221
221
221
221
221
221
221
221
221
221
221
221
221
221
221
221
221
221
221
221
221
221
221
221
221
221
221
221
213
214
216
221
221
221
221
221
221
221
221
221
227
230
229
221
221
221
221
221
221
221
221
221
221
221
221
220
221
220
221
221
221
222
222
219
221
221
221
221
221
221
221
221
221
221
221
221
221
221
221
222
224
220
221
221
221
221
221
221
225
228
229
221
221
221
221
221
221
221
221
221
221
221
221
221
221
221
221
221
221
221
221
221
215
216
217
221
221
221
221
221
221
226
226
222
223
224
220
221
221
221
221
221
221
221
221
221
221
221
221
221
221
221
221
221
221
221
221
221
221
221
221
221
221
221
220
222
223
221
221
221
221
221
221
213
215
216
221
221
221
221
221
221
221
221
221
221
221
221
221
221
221
221
221
221
221
221
221
221
221
221
221
221
221
221
221
221
221
221
221
221
221
221
221
221
221
221
221
221
221
221
221
221
221
221
221
221
221
221
221
221
221
221
221
221
221
221
221
221
221
221
221
221
221
221
221
221
221
221
221
221
221
221
221
221
221
221
221
221
221
221
221
221
221
221
221
221
221
221
221
221
221
221
221
221
221
221
221
221
221
221
221
221
221
221
221
221
221
221
221
221
221
221
221
221
221
221
221
221
221
221
221
221
221
221
221
221
221
221
221
221
221
221
221
221
221
221
221
221
221
221
221
221
221
221
221
221
221
221
221
224
220
224
221
221
221
221
221
221
221
221
221
221
221
221
221
221
221
221
221
221
221
221
221
221
221
221
221
221
221
221
221
221
221
221
221
226
226
228
221
221
221
221
221
221
221
221
221
221
221
221
220
223
221
221
221
221
221
221
221
227
223
227
221
221
221
221
221
221
221
221
221
221
221
221
221
221
221
221
221
221
221
221
221
221
221
221
221
221
221
221
221
221
221
221
221
221
221
221
221
221
221
213
210
213
213
214
211
221
221
221
221
221
221
221
221
221
221
221
221
221
221
221
221
221
221
221
221
221
211
208
212
221
221
221
221
221
221
221
221
221
221
221
221
224
225
223
221
221
221
221
221
221
221
221
221
221
221
221
221
221
221
221
221
221
221
221
221
221
221
221
225
228
227
221
221
221
221
221
221
221
221
221
220
223
222
221
221
221
221
221
221
221
221
221
221
221
221
221
221
221
221
221
221
221
221
221
225
224
224
221
221
221
221
221
221
221
221
221
221
221
221
221
221
221
221
221
221
221
221
221
221
221
221
221
221
221
221
221
221
221
221
221
221
221
221
221
221
221
221
221
221
214
210
214
221
221
221
221
221
221
221
221
221
221
221
221
221
221
221
221
221
221
221
221
221
221
221
221
221
221
221
221
221
221
211
212
209
221
221
221
221
221
221
221
221
221
221
221
221
221
221
221
221
221
221
221
221
221
221
221
221
221
221
221
221
221
221
221
221
221
221
221
221
221
221
221
221
219
218
221
221
221
229
228
228
221
221
221
221
221
221
221
221
221
226
227
223
221
221
221
212
210
210
221
221
221
221
221
221
221
221
221
221
221
221
221
221
221
221
221
221
221
221
221
221
221
221
221
221
221
221
221
221
221
221
221
221
221
221
221
221
221
219
216
218
226
226
225
221
221
221
221
221
221
214
212
214
221
221
221
221
221
221
221
221
221
221
221
221
221
221
221
221
221
221
221
221
221
221
221
221
221
221
221
221
221
221
221
221
221
221
221
221
221
221
221
221
221
221
221
221
221
221
221
221
221
221
221
221
221
221
221
221
221
221
221
221
221
221
221
216
216
216
221
221
221
221
221
221
221
221
221
221
221
221
221
221
221
221
221
221
221
221
221
221
221
221
221
221
221
228
224
225
221
221
221
221
221
221
221
221
221
221
221
221
221
221
221
216
218
219
221
221
221
221
221
221
221
221
221
221
221
221
221
221
221
221
221
221
221
221
221
221
221
221
221
221
221
221
221
221
221
221
221
221
221
221
221
221
221
221
221
221
226
229
230
221
221
221
221
221
221
221
221
221
221
221
221
221
221
221
221
221
221
221
221
221
221
221
221
221
221
221
221
221
221
221
221
221
221
221
221
221
221
221
221
221
221
220
223
220
221
221
221
221
221
221
221
221
221
221
221
221
221
221
221
221
221
221
221
221
221
221
221
221
221
221
221
221
221
221
221
221
221
221
221
221
221
221
221
221
221
221
221
221
221
221
221
221
221
221
221
221
221
221
221
221
221
219
220
221
221
221
221
221
221
221
221
221
221
221
221
221
221
221
221
221
221
221
221
221
221
