P3
64 64
255
20
20
20
76
48
21
103
61
26
111
67
27
108
66
28
101
61
29
105
64
26
83
51
22
18
18
18
81
52
23
103
66
28
102
65
32
109
70
29
99
65
31
105
64
26
74
49
24
18
18
18
81
50
22
101
61
28
109
64
27
106
69
30
113
72
27
101
66
28
83
54
21
14
14
14
84
52
20
107
68
24
105
68
29
107
66
29
105
63
29
103
65
26
82
51
23
22
22
22
84
52
21
102
67
29
105
68
29
109
68
27
105
68
29
106
67
25
78
48
21
18
18
18
84
53
21
102
64
29
108
67
26
99
65
29
105
68
29
104
68
27
81
49
20
17
17
17
74
49
22
106
64
25
105
66
27
113
68
25
107
65
27
103
65
26
84
53
21
13
13
13
80
53
22
103
66
28
108
68
28
108
68
28
113
72
27
105
63
29
102
63
28
20
20
20
78
50
20
108
63
25
108
70
30
101
66
29
103
70
31
111
65
24
78
51
24
19
19
19
81
52
23
103
65
26
110
69
28
106
69
30
107
67
27
103
64
28
81
50
23
21
21
21
80
49
22
106
67
25
101
66
31
111
70
25
99
61
31
97
63
28
79
50
21
22
22
22
88
56
20
103
66
26
108
68
28
113
69
27
99
65
29
100
65
29
74
47
24
17
17
17
78
49
23
101
66
28
105
67
29
106
66
30
101
66
29
102
66
27
80
49
21
18
18
18
84
53
21
102
67
29
107
68
29
106
68
28
107
68
29
103
63
26
82
50
21
19
19
19
77
50
24
104
67
29
99
62
29
102
69
30
116
70
26
105
66
24
84
50
20
14
14
14
75
50
24
98
62
29
108
65
30
108
68
28
104
65
30
111
70
27
109
68
27
15
15
15
76
48
19
105
65
24
110
68
26
101
66
31
112
66
26
98
60
29
76
52
23
16
16
16
81
52
22
103
66
28
103
66
29
105
67
29
100
64
28
105
62
26
83
50
21
18
18
18
80
52
22
103
64
28
111
68
29
98
62
30
103
67
29
110
67
25
78
52
24
21
21
21
82
50
21
106
62
25
110
66
26
104
64
28
114
73
28
109
66
24
75
47
23
17
17
17
80
51
22
101
67
30
109
68
27
101
66
29
108
69
28
108
68
25
81
52
22
16
16
16
78
48
21
99
68
30
102
66
28
101
63
29
103
68
31
101
65
26
80
52
24
22
22
22
79
50
21
105
68
28
107
69
29
108
68
28
99
65
31
96
64
31
83
54
21
17
17
17
86
54
19
107
68
24
101
66
31
98
66
28
111
65
25
114
67
26
109
71
27
19
19
19
80
48
18
101
61
26
103
67
31
107
68
29
108
68
28
98
62
29
82
50
21
19
19
19
78
50
23
100
63
29
97
61
29
106
64
30
108
67
26
100
64
27
78
50
22
16
16
16
81
52
21
96
60
28
105
63
29
108
68
28
106
68
28
105
66
26
81
52
22
20
20
20
78
51
22
99
63
30
99
65
29
104
68
30
104
66
28
97
65
30
84
52
20
19
19
19
82
52
20
104
67
27
105
63
29
106
65
28
109
69
27
107
68
28
77
50
24
18
18
18
79
49
23
103
64
28
112
73
26
109
68
27
114
69
26
101
61
28
76
49
21
20
20
20
81
52
23
107
68
28
100
65
30
105
65
29
105
63
29
102
62
25
78
49
24
23
23
23
87
49
20
111
69
24
106
66
30
102
67
30
106
67
28
107
66
29
102
69
30
13
13
13
79
48
19
103
65
26
108
67
26
107
67
27
110
66
26
99
66
30
84
50
20
18
18
18
80
48
22
108
64
25
106
65
28
101
66
31
109
68
27
104
67
27
81
52
23
23
23
23
79
49
23
99
65
28
109
69
29
103
66
27
109
64
27
101
65
28
82
49
21
17
17
17
85
52
21
106
66
25
99
62
29
105
68
29
100
63
30
96
63
29
83
49
19
21
21
21
77
49
22
97
62
30
111
70
29
108
69
28
101
67
31
100
65
29
87
51
19
19
19
19
87
55
20
96
61
29
112
68
26
104
66
28
105
67
29
108
66
25
77
50
24
19
19
19
81
51
21
98
65
29
106
66
30
105
69
31
114
69
26
103
63
30
78
50
23
14
14
14
82
52
23
104
64
27
111
70
29
105
67
27
111
69
27
108
69
28
101
66
31
17
17
17
74
49
22
103
63
28
109
65
29
116
70
26
109
70
29
106
64
25
78
50
21
23
23
23
82
52
20
103
64
28
108
64
28
108
69
28
108
66
28
101
66
30
83
52
21
20
20
20
83
51
19
103
65
26
103
69
29
102
65
32
107
68
27
102
66
27
78
49
23
15
15
15
78
50
22
102
66
27
108
66
28
111
69
27
105
64
27
105
67
28
81
50
22
17
17
17
81
49
21
103
66
26
109
63
25
105
67
27
106
68
28
97
61
28
83
53
22
23
23
23
81
52
21
100
65
27
107
68
29
115
68
27
97
63
29
96
63
29
82
52
21
19
19
19
78
47
23
107
67
26
110
69
26
111
67
27
109
68
27
104
66
27
85
56
20
21
21
21
76
47
21
107
67
26
108
69
28
107
66
29
107
69
29
101
66
31
101
63
29
20
20
20
74
48
22
110
66
25
113
68
25
108
66
28
105
64
27
111
67
24
84
52
20
17
17
17
81
52
23
98
63
27
101
67
31
106
67
28
105
67
27
105
67
26
82
52
21
17
17
17
86
51
21
100
66
29
107
64
29
111
69
27
103
68
31
99
64
28
83
52
21
17
17
17
84
48
19
107
67
26
107
65
27
113
68
25
107
64
29
101
66
28
85
50
20
16
16
16
83
52
22
102
67
29
105
68
29
100
65
30
107
69
29
101
66
28
81
49
20
21
21
21
84
52
21
105
63
28
106
68
28
107
68
29
103
67
29
104
64
27
78
50
22
18
18
18
78
49
24
95
63
29
109
68
27
107
65
27
99
66
31
103
65
26
78
51
24
18
18
18
79
49
21
105
66
24
104
67
30
111
67
27
105
65
29
106
68
28
102
67
30
21
21
21
74
47
20
100
64
27
109
66
27
111
67
25
109
68
27
101
63
28
81
50
20
18
18
18
80
51
22
100
63
29
113
72
27
105
67
29
103
63
27
107
65
26
75
48
24
17
17
17
84
50
20
105
67
26
102
63
28
105
66
27
107
69
29
105
68
26
82
50
21
19
19
19
81
52
23
97
64
30
109
71
27
112
65
24
107
70
27
99
63
30
82
52
21
16
16
16
81
49
22
96
63
29
107
69
29
105
67
29
110
66
26
103
66
28
77
49
22
22
22
22
78
48
24
108
64
25
105
68
31
105
65
29
107
65
27
102
61
27
81
52
21
19
19
19
81
52
23
107
68
26
117
66
25
104
64
28
111
65
25
108
64
25
81
52
22
17
17
17
80
48
22
106
64
29
108
68
28
112
68
26
97
63
29
107
64
29
113
68
25
21
21
21
79
48
19
105
65
26
103
65
27
107
69
29
112
68
26
98
64
29
81
51
21
18
18
18
83
52
21
105
68
28
103
66
29
107
68
27
107
66
29
102
65
27
78
48
21
22
22
22
78
49
21
101
65
28
99
64
29
110
68
26
107
68
27
107
63
24
81
50
22
14
14
14
83
54
21
113
67
26
109
69
27
113
69
27
106
65
28
96
63
30
83
52
21
18
18
18
83
52
21
96
60
28
108
66
28
110
69
26
109
67
29
108
68
25
83
52
21
17
17
17
82
52
21
102
65
27
107
63
27
111
67
27
105
66
27
108
63
23
84
53
21
17
17
17
84
52
20
104
66
27
104
67
30
102
66
30
108
65
26
101
68
28
81
52
21
16
16
16
80
49
22
98
65
29
103
66
29
109
66
27
111
67
25
107
68
27
110
69
26
13
13
13
78
50
20
98
62
31
109
67
29
105
68
31
112
66
28
97
63
28
80
52
22
19
19
19
86
54
19
110
68
23
106
66
26
107
69
29
102
66
28
107
67
26
80
50
21
19
19
19
88
52
21
105
64
26
109
64
27
108
67
26
108
66
28
98
62
29
81
50
23
22
22
22
77
50
24
109
68
24
109
69
29
108
70
30
110
68
26
109
67
26
84
53
21
16
16
16
84
52
20
104
64
27
107
65
27
97
63
29
99
65
31
106
67
25
74
49
22
22
22
22
83
53
22
99
65
30
102
62
30
108
68
28
102
66
30
99
63
30
85
52
20
21
21
21
85
54
21
98
63
31
100
66
30
110
66
26
111
63
25
105
62
26
79
51
21
18
18
18
82
50
21
99
62
28
104
64
28
108
66
28
106
64
30
104
65
30
106
64
30
21
21
21
78
46
20
95
58
28
105
65
29
102
67
30
101
68
29
101
66
28
79
50
21
14
14
14
79
50
21
105
68
28
101
66
31
108
68
28
108
68
28
109
66
24
82
53
23
15
15
15
76
50
24
104
64
27
103
66
29
108
69
30
106
69
30
98
65
29
78
49
21
17
17
17
81
50
23
105
68
26
97
61
29
109
69
27
104
65
30
106
67
25
80
50
21
20
20
20
80
51
22
96
63
28
102
67
30
109
70
29
97
65
31
109
65
26
79
51
21
23
23
23
86
54
19
107
68
26
101
66
29
105
66
27
99
65
29
103
63
26
78
49
22
21
21
21
78
49
22
104
66
27
105
67
29
108
69
30
104
64
28
98
62
29
79
50
21
16
16
16
79
49
21
103
67
28
101
66
31
107
68
27
106
67
28
100
67
32
103
66
29
20
20
20
77
49
19
101
61
30
108
69
28
105
68
29
105
63
29
103
64
28
82
53
23
19
19
19
82
51
23
105
64
26
108
67
30
111
69
27
101
63
29
103
61
26
79
51
23
19
19
19
83
53
22
106
65
27
107
66
29
103
62
29
103
66
29
104
64
27
81
52
23
15
15
15
84
51
19
105
67
26
99
66
33
104
64
28
108
68
28
108
68
25
83
52
21
17
17
17
79
51
21
98
64
27
112
71
26
114
72
26
108
68
28
96
61
30
81
50
23
19
19
19
77
50
24
96
62
28
100
63
30
108
65
26
110
69
28
103
64
28
79
51
23
19
19
19
81
50
22
99
65
28
106
64
26
105
67
29
107
64
29
104
64
27
82
50
21
13
13
13
88
52
20
99
65
28
113
66
25
104
66
28
105
67
29
110
66
26
102
66
30
19
19
19
77
48
19
108
62
23
108
67
30
103
67
29
101
65
29
106
64
25
81
52
21
21
21
21
82
50
21
107
65
24
106
69
30
107
66
29
115
72
25
102
65
27
81
52
23
18
18
18
79
50
21
106
68
29
109
71
27
108
69
28
108
69
28
102
64
29
81
50
22
23
23
23
78
51
23
104
66
27
104
64
28
103
66
29
101
65
29
99
63
30
81
52
22
20
20
20
85
50
20
104
67
29
100
66
32
103
67
31
105
65
29
105
67
26
77
50
24
16
16
16
81
52
22
103
67
28
104
66
28
106
66
30
105
64
27
99
65
28
80
52
21
14
14
14
77
49
24
98
62
29
105
64
31
103
64
29
101
66
31
104
65
25
84
52
20
20
20
20
78
50
21
106
62
25
103
67
31
104
68
30
108
67
26
101
66
31
111
70
25
17
17
17
77
50
21
105
65
26
101
65
29
106
71
30
100
66
30
101
65
28
76
48
23
18
18
18
80
52
22
101
64
30
111
68
29
103
66
29
104
68
30
98
63
27
82
52
21
14
14
14
80
51
21
100
62
27
115
72
25
107
64
29
111
70
27
107
65
24
79
49
21
14
14
14
83
51
22
98
64
29
109
69
27
101
66
31
109
66
27
109
68
24
76
49
24
18
18
18
77
48
22
99
66
32
109
68
27
108
71
28
104
64
28
110
69
25
87
49
20
14
14
14
81
49
21
104
67
29
103
66
29
102
66
30
103
67
31
109
68
24
81
49
23
14
14
14
83
52
22
102
65
27
105
68
29
111
69
27
111
63
25
102
67
29
78
50
22
23
23
23
76
49
21
108
64
25
105
69
31
106
65
28
111
70
25
112
71
26
105
67
29
20
20
20
79
49
19
103
64
26
111
67
25
104
66
28
111
67
27
104
68
29
81
52
22
19
19
19
81
52
22
100
62
27
100
63
30
102
63
28
102
64
30
106
64
25
80
52
24
18
18
18
83
50
21
105
66
26
109
71
27
112
71
26
107
68
27
103
64
28
78
50
22
22
22
22
84
51
21
94
62
30
109
67
25
111
70
27
107
69
29
97
63
28
81
51
21
19
19
19
82
50
21
101
68
28
99
62
29
103
64
29
109
67
29
104
64
27
78
50
22
21
21
21
78
49
23
102
61
27
101
69
31
109
68
27
101
66
31
104
65
25
78
52
24
18
18
18
83
52
22
108
64
25
106
68
28
101
67
31
112
68
26
102
64
29
82
52
21
17
17
17
79
49
23
100
65
29
108
65
26
113
67
27
105
67
29
110
69
26
108
66
28
17
17
17
75
49
22
104
65
27
108
68
28
105
68
31
100
60
28
101
66
28
84
51
21
14
14
14
79
52
23
100
62
27
104
65
30
100
65
30
102
67
30
98
67
29
81
49
21
19
19
19
78
50
23
108
65
23
109
68
27
103
67
31
104
64
28
106
67
25
81
52
21
18
18
18
84
52
20
104
63
25
106
68
30
106
68
28
104
66
28
96
63
29
83
51
19
17
17
17
82
50
21
105
66
26
115
67
25
102
66
30
109
69
27
109
66
24
84
54
22
22
22
22
81
52
21
103
65
26
102
65
28
105
65
29
112
71
28
104
67
27
78
50
21
19
19
19
80
51
22
102
66
27
105
65
29
104
66
28
109
68
27
101
68
28
81
50
23
13
13
13
82
52
21
102
66
27
110
69
26
110
70
28
105
65
29
112
68
26
105
67
27
23
23
23
76
48
22
101
64
26
108
68
28
105
66
27
106
69
30
97
59
28
87
51
20
17
17
17
75
47
23
107
61
24
103
66
29
100
65
30
113
71
25
106
67
25
82
52
21
21
21
21
80
50
24
100
65
27
108
68
28
112
71
26
102
68
32
105
68
24
77
51
24
22
22
22
80
51
21
99
60
28
102
67
30
108
68
28
111
70
27
102
65
25
84
52
20
21
21
21
85
53
21
101
65
26
110
69
26
106
66
30
103
62
29
97
65
30
80
49
21
22
22
22
83
49
22
101
67
30
104
66
28
103
64
29
111
65
25
107
64
28
83
52
21
18
18
18
85
52
20
105
65
28
108
69
28
111
69
27
111
70
27
106
64
25
81
52
23
16
16
16
85
50
20
98
61
27
109
69
29
112
68
26
98
65
30
106
68
30
111
67
27
18
18
18
76
49
22
104
62
29
113
69
27
102
64
30
108
67
30
101
66
28
78
52
23
14
14
14
82
49
20
111
68
26
98
62
30
99
61
31
100
67
32
99
64
28
83
49
19
15
15
15
81
49
23
102
64
29
109
68
27
115
69
25
105
69
31
104
64
27
84
51
21
18
18
18
81
52
22
105
66
26
108
69
28
104
67
30
108
68
26
107
67
26
80
49
22
17
17
17
76
47
21
103
66
28
113
71
25
103
67
31
106
65
28
106
66
25
81
52
22
17
17
17
78
51
23
101
61
28
111
66
29
115
67
25
106
68
28
103
66
28
81
49
21
19
19
19
85
54
20
107
65
26
110
66
26
105
65
29
101
65
29
102
62
29
79
50
21
21
21
21
84
53
19
105
66
26
105
67
29
113
68
25
100
64
28
109
69
29
103
64
29
19
19
19
74
47
22
103
66
28
105
66
31
107
68
29
109
70
29
100
67
27
78
50
22
20
20
20
80
49
22
104
67
27
107
68
29
107
66
29
109
67
25
102
66
29
83
52
21
15
15
15
79
53
23
101
65
28
105
68
29
106
66
30
105
68
29
105
66
26
78
48
24
19
19
19
83
50
21
108
68
25
116
68
26
105
67
29
105
63
29
96
63
28
83
50
21
21
21
21
76
50
23
105
68
28
116
70
26
109
67
29
102
65
32
107
67
26
84
53
19
22
22
22
84
52
22
102
63
27
108
64
28
106
65
28
99
64
29
104
63
25
81
52
22
19
19
19
87
52
20
99
63
30
107
66
29
105
68
31
105
67
29
107
67
26
81
51
21
19
19
19
84
51
21
102
66
27
112
68
26
102
66
30
104
66
28
106
65
28
110
66
26
19
19
19
76
46
22
107
62
24
106
69
30
101
66
29
102
67
30
97
62
30
79
50
21
18
18
18
80
51
22
100
60
27
105
70
29
105
67
29
109
69
27
97
67
30
77
49
24
22
22
22
84
49
20
97
64
28
104
66
28
108
68
28
107
65
27
94
60
30
81
51
21
14
14
14
79
49
23
102
65
27
111
63
25
109
68
27
105
64
31
106
67
25
82
52
21
19
19
19
87
55
20
102
63
27
105
64
31
113
72
27
105
65
29
96
62
28
79
49
23
20
20
20
82
52
21
101
61
28
109
68
27
104
68
30
112
71
26
97
64
30
78
51
24
14
14
14
81
52
21
105
64
26
101
65
29
110
66
26
104
69
28
101
64
26
80
50
21
19
19
19
81
52
23
96
64
30
100
65
30
99
65
31
105
65
29
102
65
32
102
66
30
16
16
16
74
46
21
109
66
26
107
68
27
106
65
28
109
69
27
109
66
24
81
51
21
19
19
19
77
52
24
102
66
27
109
64
27
113
72
27
112
71
26
104
62
27
82
50
21
21
21
21
81
52
23
101
65
26
108
69
28
106
70
28
105
63
29
102
66
29
88
53
20
19
19
19
83
52
22
104
66
27
103
67
29
107
66
29
105
66
31
101
67
30
83
49
19
13
13
13
84
52
20
105
67
28
105
68
29
101
66
29
106
68
30
103
62
28
83
52
19
18
18
18
87
52
19
102
64
29
112
70
28
107
66
29
104
66
28
98
63
27
81
52
22
18
18
18
80
53
22
101
61
28
108
69
28
108
67
26
106
66
30
105
65
28
80
49
22
19
19
19
85
55
18
107
67
26
110
69
26
100
65
30
112
68
26
114
67
26
105
69
31
17
17
17
79
50
21
104
66
29
104
67
28
106
64
30
111
71
29
109
65
26
76
50
23
19
19
19
78
49
21
103
67
28
107
68
29
102
65
28
109
68
27
98
64
29
81
52
21
18
18
18
81
51
21
103
64
28
107
66
29
111
67
27
110
68
26
109
64
24
86
50
19
17
17
17
81
51
21
101
62
26
104
64
28
108
68
28
104
67
28
101
65
28
83
50
21
16
16
16
81
51
21
100
64
27
109
68
27
109
68
27
108
69
28
105
65
24
80
51
21
21
21
21
82
50
21
104
66
27
101
62
27
107
68
29
101
67
31
97
62
30
81
52
22
19
19
19
77
51
24
100
65
27
110
66
26
105
68
29
101
65
29
98
62
29
80
51
22
16
16
16
75
49
22
95
60
29
109
69
27
108
66
28
101
66
29
106
68
30
100
65
30
19
19
19
73
50
22
107
67
28
114
69
26
103
64
29
101
67
31
99
65
28
80
51
22
17
17
17
78
50
23
101
66
28
113
66
25
105
67
29
105
65
29
104
64
27
85
56
21
19
19
19
81
49
23
96
60
27
103
63
27
104
68
30
107
68
29
102
63
27
79
49
21
15
15
15
80
49
21
106
67
25
99
66
33
108
69
28
111
70
27
105
64
26
84
52
20
18
18
18
83
52
21
97
59
28
108
68
28
115
72
25
109
64
27
102
66
29
80
54
24
17
17
17
84
50
20
103
66
28
109
68
27
104
66
28
100
65
30
100
62
27
87
56
21
14
14
14
76
49
23
101
65
28
100
65
30
108
67
30
105
68
29
107
68
24
75
49
24
17
17
17
84
55
19
110
69
25
98
65
32
101
63
29
106
65
28
111
70
27
106
66
30
21
21
21
76
49
21
101
66
26
108
70
30
105
65
29
105
67
29
97
61
28
80
48
22
17
17
17
79
49
21
106
66
25
99
65
29
107
68
29
106
68
30
98
64
29
87
53
21
23
23
23
81
52
22
104
65
25
103
65
31
102
64
30
100
62
28
110
65
25
87
52
19
14
14
14
81
51
21
98
62
29
109
68
27
103
63
31
109
66
27
105
67
28
80
51
21
22
22
22
82
52
23
105
62
26
106
66
30
102
70
32
108
69
28
103
67
28
80
48
22
19
19
19
75
49
23
96
61
29
105
64
27
104
66
28
105
68
29
104
63
29
78
50
23
16
16
16
75
46
24
96
60
27
97
66
29
103
63
27
107
69
29
100
65
29
83
52
21
18
18
18
81
51
21
96
61
29
113
69
27
115
70
27
111
70
29
108
66
28
102
66
30
15
15
15
76
48
21
102
64
27
109
64
27
110
66
26
114
72
26
104
63
25
77
49
22
19
19
19
79
51
21
98
65
29
102
67
30
100
66
30
107
67
27
96
64
31
82
52
20
13
13
13
81
52
22
103
66
28
106
69
30
108
69
28
102
63
28
97
64
30
76
49
24
17
17
17
83
50
21
105
67
26
101
66
29
109
68
27
108
67
26
101
68
28
87
55
20
19
19
19
76
47
21
103
62
28
108
68
28
104
65
30
111
67
27
105
66
26
81
50
23
21
21
21
84
50
20
108
66
25
107
68
27
102
63
28
102
64
30
102
63
27
78
52
24
18
18
18
76
51
24
97
62
30
102
64
30
102
67
30
106
64
30
100
65
27
74
49
22
24
24
24
81
53
21
104
64
27
104
65
30
111
65
25
101
65
29
107
68
29
99
63
31
21
21
21
80
51
21
101
63
26
108
69
28
109
67
29
102
67
30
97
63
28
80
51
22
22
22
22
83
52
21
101
67
30
104
68
30
112
71
26
112
67
24
104
62
27
87
51
20
18
18
18
87
51
20
104
66
27
108
66
28
101
64
31
106
65
28
102
68
27
75
50
24
19
19
19
86
50
19
103
66
28
110
68
26
108
66
28
111
70
25
97
63
28
82
51
20
19
19
19
80
50
21
97
63
28
106
67
28
106
65
28
106
69
30
105
63
24
81
52
23
19
19
19
82
52
21
96
64
29
105
68
29
101
66
31
101
65
27
101
66
28
79
51
21
23
23
23
78
51
24
100
62
27
109
69
27
114
73
28
102
66
30
98
62
29
81
50
22
21
21
21
84
50
20
102
66
27
109
69
27
109
68
27
109
64
27
97
61
29
100
66
32
22
22
22
75
46
20
105
65
26
108
69
28
105
66
27
107
68
27
111
68
26
81
53
21
22
22
22
81
52
23
96
62
28
100
66
30
111
65
25
104
66
28
99
65
28
86
49
21
15
15
15
75
48
24
102
64
29
107
66
29
104
64
28
108
71
28
99
64
26
81
52
22
20
20
20
83
50
21
102
66
27
103
62
29
109
64
27
107
68
27
99
65
30
82
50
21
19
19
19
83
51
22
102
66
29
103
66
29
108
70
30
111
65
27
102
66
27
81
52
23
21
21
21
83
50
21
102
63
27
104
66
28
109
68
27
98
61
28
104
67
27
82
52
21
16
16
16
75
49
22
94
62
30
109
69
27
111
67
27
109
68
27
104
65
25
78
51
23
16
16
16
80
50
21
101
68
28
105
69
31
98
65
30
105
67
29
114
69
26
105
65
29
18
18
18
73
48
22
110
69
25
111
70
27
110
68
30
111
67
27
101
62
26
84
53
21
17
17
17
75
46
22
101
65
28
103
67
31
108
66
28
102
66
30
96
64
31
75
52
24
17
17
17
80
49
22
94
60
30
104
68
30
108
68
28
106
67
28
104
67
27
84
51
21
20
20
20
84
52
21
104
64
27
109
69
29
109
70
29
104
64
28
100
62
27
80
49
21
17
17
17
78
50
22
103
65
26
104
68
30
106
68
28
99
66
31
101
66
28
80
51
21
21
21
21
80
52
22
101
66
30
107
67
27
104
67
30
107
65
27
104
64
27
84
52
21
19
19
19
85
54
20
96
63
29
107
64
29
102
66
30
102
64
30
107
65
24
84
51
21
16
16
16
75
49
21
105
65
28
100
63
30
109
66
27
110
70
28
112
68
28
100
65
30
21
21
21
78
49
20
109
65
24
111
67
27
108
69
28
100
66
30
101
65
28
74
49
24
17
17
17
78
50
23
110
70
27
108
68
28
102
63
28
107
64
29
103
66
26
76
52
23
17
17
17
79
50
21
106
64
25
107
65
27
99
61
31
107
69
29
99
62
28
81
51
21
22
22
22
78
47
22
106
66
25
105
67
27
114
67
26
105
69
31
100
66
29
83
50
21
17
17
17
80
52
22
108
63
23
107
66
29
107
69
29
109
66
27
100
67
31
81
51
21
20
20
20
82
52
21
101
65
26
107
69
29
110
69
26
109
68
27
103
66
26
83
51
22
19
19
19
83
52
21
99
65
28
104
68
30
111
70
27
99
62
29
99
65
28
83
52
19
23
23
23
83
50
21
106
67
25
107
67
27
106
65
28
101
66
31
101
63
29
117
66
25
17
17
17
76
47
20
110
70
26
104
64
28
107
65
27
111
65
25
98
59
27
82
52
21
19
19
19
77
50
24
103
63
26
113
71
25
107
69
29
113
69
27
104
64
27
80
50
21
16
16
16
82
50
21
105
67
26
109
70
29
103
68
31
118
71
26
101
65
28
80
51
22
16
16
16
78
51
24
109
67
26
98
65
30
105
65
29
115
72
25
99
64
26
80
51
22
19
19
19
78
51
23
100
66
29
99
61
31
113
67
27
104
64
28
108
70
25
84
51
21
22
22
22
78
49
21
101
65
28
97
64
31
105
65
29
107
67
27
103
64
28
76
49
23
17
17
17
78
51
23
100
65
29
114
72
26
107
66
29
109
69
29
101
68
28
81
52
21
21
21
21
78
51
23
101
66
30
104
64
28
111
70
25
108
66
28
112
68
26
106
68
30
23
23
23
73
46
22
101
65
28
111
67
27
106
67
28
111
66
29
108
68
27
81
51
21
19
19
19
85
53
21
104
67
27
106
68
30
103
67
31
103
65
31
103
66
28
84
52
20
18
18
18
79
52
23
105
64
26
108
66
28
108
68
28
104
67
28
101
65
28
81
52
21
19
19
19
82
49
23
102
66
27
109
70
29
104
64
28
108
66
28
97
64
28
83
52
21
17
17
17
83
52
21
100
62
27
108
64
28
114
64
24
106
65
28
101
64
26
81
52
22
18
18
18
80
49
21
103
63
26
109
68
27
102
67
30
103
67
31
104
67
27
86
52
21
22
22
22
77
51
24
103
67
28
107
69
29
111
69
27
111
67
25
94
64
28
75
49
24
21
21
21
81
52
22
97
63
28
109
69
27
111
71
29
108
69
30
103
66
29
102
64
30
19
19
19
74
48
21
105
66
28
106
63
28
117
71
27
102
67
32
103
66
28
84
52
22
17
17
17
80
50
21
103
65
26
106
64
30
111
69
27
103
66
29
99
62
28
85
50
20
24
24
24
81
52
22
96
61
29
106
69
30
110
67
28
100
65
28
107
65
24
74
47
24
18
18
18
80
51
21
111
70
26
99
62
29
106
65
28
111
65
27
102
65
27
77
48
22
20
20
20
78
50
23
97
61
28
102
67
32
105
67
27
106
67
28
106
64
25
80
48
22
18
18
18
85
52
20
101
65
26
106
68
30
106
66
30
106
67
26
102
64
29
84
52
21
23
23
23
84
52
20
104
64
27
105
68
31
104
64
28
107
68
27
106
67
27
83
49
22
18
18
18
81
51
21
105
64
26
105
64
27
110
66
26
115
68
27
109
69
29
114
72
26
19
19
19
78
49
20
107
65
28
102
64
30
106
66
30
105
70
29
103
67
28
83
51
22
21
21
21
82
50
21
106
67
25
113
66
25
99
65
31
102
62
30
105
64
26
79
52
23
21
21
21
78
49
21
104
64
27
112
67
24
115
69
25
100
65
28
104
64
27
78
49
23
23
23
23
84
52
20
104
63
25
114
72
26
102
66
30
108
69
28
105
66
26
75
49
22
21
21
21
83
52
21
96
64
30
102
68
32
104
66
28
104
64
28
103
66
26
82
52
21
21
21
21
85
56
20
105
67
28
112
71
26
102
67
30
103
67
31
101
64
30
78
50
22
19
19
19
78
47
23
101
65
28
101
66
31
106
65
28
103
64
29
101
68
30
80
51
22
17
17
17
81
51
21
104
66
27
103
67
29
105
63
29
103
64
29
105
63
29
103
64
29
19
19
19
80
51
19
105
67
28
104
67
30
99
65
31
105
67
27
103
67
28
84
53
21
15
15
15
79
50
21
99
65
28
105
68
31
107
66
29
102
65
28
108
64
25
80
49
24
18
18
18
74
48
22
103
67
28
109
67
29
105
67
29
101
62
27
96
63
27
80
51
22
18
18
18
81
52
22
101
67
30
112
70
28
110
64
26
106
68
30
107
68
26
78
51
23
15
15
15
75
49
23
109
69
26
101
66
29
100
64
28
107
69
29
100
62
27
78
50
23
18
18
18
80
52
21
107
68
26
111
72
27
110
69
28
105
66
31
100
60
27
78
51
23
21
21
21
77
49
24
104
67
27
108
69
30
111
67
27
106
71
30
101
64
26
82
50
21
14
14
14
78
50
23
103
66
28
98
65
32
107
68
29
100
62
28
110
68
26
101
66
31
18
18
18
80
50
19
101
65
28
106
66
26
107
65
27
104
64
28
102
63
27
85
52
20
22
22
22
79
49
21
105
62
26
112
68
26
99
65
31
112
68
26
96
63
27
83
50
21
13
13
13
83
51
22
99
62
28
113
68
25
104
67
28
108
69
28
103
66
28
84
51
21
22
22
22
75
48
24
107
68
26
98
63
28
109
69
29
107
66
29
107
63
24
77
49
24
16
16
16
77
49
24
107
65
24
105
65
29
107
69
29
117
73
25
103
66
28
78
51
22
18
18
18
80
51
22
94
59
28
106
66
30
106
68
28
101
65
29
97
61
28
83
52
21
22
22
22
80
51
21
101
62
26
101
65
29
106
70
28
109
65
25
100
65
29
78
49
22
19
19
19
81
49
21
104
64
27
111
70
25
108
66
28
104
67
28
107
66
29
109
68
27
16
16
16
79
51
21
106
66
27
109
69
27
98
64
30
108
66
28
100
62
27
78
52
24
21
21
21
80
49
22
100
63
29
111
65
25
106
68
28
102
63
28
107
65
24
83
49
21
17
17
17
78
51
23
105
64
26
103
67
29
107
69
29
105
68
29
102
65
27
83
53
22
23
23
23
76
48
23
111
69
24
114
65
26
106
65
28
108
66
28
97
63
28
85
50
20
12
12
12
81
50
22
106
67
25
114
67
26
102
65
28
106
68
28
99
62
28
78
47
23
19
19
19
87
51
19
109
68
24
102
64
30
101
62
27
107
68
27
98
63
27
78
49
21
15
15
15
84
51
19
101
62
30
110
66
26
108
68
28
106
69
30
101
65
28
87
55
19
20
20
20
75
49
23
101
63
28
105
67
29
104
66
28
105
69
31
101
64
31
111
67
27
23
23
23
76
45
20
101
63
26
107
68
29
102
67
30
101
64
31
103
66
26
78
50
21
17
17
17
75
49
24
94
63
30
103
68
31
97
64
29
110
69
26
100
65
27
81
52
21
21
21
21
80
51
21
101
64
26
104
67
30
108
68
28
116
70
26
100
65
29
78
51
23
14
14
14
79
50
21
101
68
28
104
64
28
108
68
28
104
67
30
96
62
28
84
50
20
18
18
18
83
52
21
98
64
29
113
72
27
111
69
27
100
62
28
102
65
27
78
52
24
15
15
15
74
49
24
102
66
29
108
68
28
110
68
26
105
68
29
97
62
30
76
49
23
18
18
18
81
49
21
97
64
30
106
66
30
99
65
29
105
67
27
99
62
28
81
50
23
16
16
16
75
49
22
103
67
28
108
69
28
107
66
29
102
68
32
97
64
31
108
66
28
15
15
15
74
44
20
93
58
30
104
66
28
108
68
28
107
68
29
104
64
27
84
50
20
19
19
19
82
52
21
98
64
29
101
66
31
109
70
29
113
72
27
97
63
28
84
53
19
14
14
14
81
52
22
105
67
26
107
67
27
106
66
30
102
67
30
104
65
25
84
49
20
21
21
21
84
52
21
100
63
29
109
68
27
106
68
30
112
66
26
100
60
27
83
52
22
16
16
16
76
49
23
103
65
26
110
68
26
106
68
30
105
65
29
105
66
26
78
50
21
22
22
22
81
48
21
99
65
28
107
68
27
112
68
26
103
66
29
96
63
30
83
50
21
19
19
19
84
53
19
96
60
27
102
62
30
104
66
28
108
69
28
101
66
28
84
52
20
24
24
24
78
50
23
106
64
25
102
66
30
110
66
26
112
70
28
111
70
25
101
65
29
17
17
17
79
50
20
103
64
26
110
68
26
103
61
27
105
64
27
96
61
29
81
49
21
16
16
16
83
52
21
99
64
28
112
66
26
105
63
29
105
67
29
101
63
28
84
49
21
17
17
17
78
51
24
102
67
29
111
67
25
116
73
26
107
69
29
104
67
27
78
49
24
19
19
19
80
49
21
96
64
29
109
68
27
109
69
29
107
69
29
101
66
28
75
48
21
20
20
20
75
47
22
100
64
27
113
68
25
106
67
28
113
72
27
103
63
26
85
54
20
16
16
16
82
52
21
99
64
28
109
67
29
108
68
28
106
68
28
99
65
28
84
51
19
22
22
22
78
49
22
100
64
27
103
64
29
105
67
29
99
65
29
104
66
27
84
52
20
18
18
18
79
52
23
104
66
27
103
67
29
111
70
27
112
68
26
108
69
30
105
68
29
14
14
14
80
51
18
103
65
28
105
68
31
108
69
28
100
66
30
100
66
29
80
52
22
18
18
18
87
55
19
102
66
29
105
67
27
112
67
24
108
68
28
104
66
27
79
51
21
19
19
19
81
52
21
110
65
25
113
69
27
105
65
29
111
70
25
106
70
29
80
53
22
19
19
19
83
51
22
105
66
26
111
67
25
108
65
26
103
67
29
103
65
26
82
52
21
23
23
23
79
49
23
108
64
25
104
62
28
100
69
32
101
66
29
105
65
28
88
52
20
23
23
23
85
54
20
102
65
27
107
68
29
111
72
27
99
64
29
98
65
29
82
53
23
18
18
18
82
52
21
103
63
26
110
66
26
107
66
29
111
67
27
100
62
27
78
50
22
22
22
22
83
50
21
100
62
27
112
68
26
99
65
29
105
68
29
99
61
31
111
72
25
17
17
17
80
47
19
99
63
28
102
67
30
101
62
31
111
69
27
110
65
25
77
49
22
18
18
18
77
49
24
98
62
29
104
66
28
101
66
31
102
62
30
101
63
28
75
49
22
16
16
16
84
51
21
97
62
30
112
71
26
106
66
30
106
65
28
101
61
28
84
50
20
18
18
18
77
50
22
101
62
30
110
68
26
103
66
29
109
71
27
105
64
26
81
52
23
21
21
21
82
50
21
98
64
27
101
66
31
103
67
31
109
68
27
105
68
24
81
51
21
16
16
16
85
56
21
98
63
31
105
67
27
110
66
26
107
66
29
95
63
31
82
52
21
24
24
24
80
52
22
100
67
31
110
69
26
111
70
27
114
72
26
100
62
27
78
51
22
17
17
17
84
53
21
97
62
30
109
69
27
101
66
29
111
65
25
102
65
28
108
69
28
22
22
22
74
48
21
108
68
27
107
66
29
109
70
29
105
64
27
99
64
28
83
52
21
21
21
21
81
50
23
105
62
26
113
73
25
116
66
26
107
68
29
107
68
28
84
53
21
18
18
18
85
52
20
96
63
27
105
68
29
103
63
27
103
67
29
102
67
29
80
49
22
16
16
16
84
51
21
106
63
27
111
69
27
113
69
27
104
65
30
98
64
29
80
49
21
16
16
16
87
52
19
96
61
29
106
68
30
101
66
31
100
66
30
103
66
26
78
50
23
14
14
14
80
50
21
106
67
25
111
63
25
109
70
29
110
69
26
102
65
27
77
50
24
18
18
18
78
51
22
98
63
27
106
67
26
108
63
26
98
62
30
102
66
29
74
49
24
22
22
22
80
49
22
107
66
28
109
65
25
103
64
29
108
69
28
112
68
26
111
65
25
21
21
21
79
50
19
107
64
26
109
67
25
108
70
26
105
68
29
96
61
29
77
50
22
23
23
23
85
52
20
106
65
27
99
62
29
103
66
29
109
68
27
103
67
28
81
50
23
16
16
16
84
54
20
105
61
24
109
64
27
101
67
31
110
64
26
107
68
26
76
48
23
18
18
18
83
50
21
107
65
26
108
68
28
107
64
29
109
69
29
101
66
28
78
52
23
23
23
23
81
51
20
101
65
28
113
69
27
102
65
28
111
70
25
98
64
29
77
49
24
18
18
18
87
54
18
99
63
26
107
70
27
110
68
26
111
67
25
103
67
28
76
47
21
14
14
14
74
47
24
108
68
25
100
66
32
106
66
30
114
69
26
108
64
25
85
52
20
23
23
23
79
51
23
108
66
25
106
67
28
109
70
29
98
62
30
100
64
28
111
69
27
14
14
14
74
48
21
105
65
26
112
68
26
105
65
29
104
66
28
106
67
27
81
50
22
20
20
20
84
49
20
105
67
28
105
65
29
106
68
30
105
68
31
102
64
29
80
51
22
19
19
19
84
52
21
103
63
30
107
66
29
109
68
27
110
68
30
104
64
27
80
50
24
16
16
16
84
52
21
99
62
28
107
68
29
108
68
28
102
65
28
104
66
27
83
50
21
21
21
21
82
52
21
105
64
26
107
66
29
112
66
26
108
68
28
96
65
31
77
51
24
16
16
16
78
50
21
100
65
29
106
65
28
103
66
29
109
67
29
107
68
28
78
51
23
22
22
22
81
51
21
100
62
27
101
66
31
99
64
29
98
64
28
102
63
27
81
50
23
17
17
17
82
52
21
105
66
26
111
70
27
112
71
28
108
67
26
104
63
30
105
67
29
21
21
21
76
46
22
103
63
28
112
64
26
103
66
29
108
69
30
96
63
27
80
52
22
15
15
15
79
48
23
101
63
28
105
67
29
106
68
28
103
68
31
101
66
28
74
48
25
22
22
22
78
50
22
97
63
28
109
63
25
108
68
28
106
67
26
101
61
28
76
49
21
23
23
23
80
51
21
107
64
28
107
66
29
102
67
30
111
65
27
94
59
28
75
47
22
16
16
16
83
52
21
105
63
24
106
68
30
107
68
29
100
62
28
95
62
29
78
51
23
19
19
19
79
49
23
102
65
27
110
66
26
105
68
31
108
69
28
103
68
28
74
46
22
21
21
21
81
49
23
95
63
31
105
67
29
104
66
28
99
62
29
97
62
30
84
50
20
19
19
19
84
52
21
103
67
28
108
68
26
107
68
29
105
63
29
107
68
29
107
69
29
18
18
18
77
50
21
100
64
29
111
65
25
102
64
30
110
68
26
103
66
28
84
52
20
16
16
16
85
54
20
111
68
26
115
72
25
112
67
24
108
66
28
113
71
26
84
49
21
21
21
21
84
54
22
99
65
28
109
67
29
110
67
28
103
67
31
100
65
27
76
50
23
14
14
14
80
52
22
102
64
29
108
68
28
107
68
29
111
70
27
109
70
24
77
49
24
18
18
18
84
51
19
108
68
25
108
68
28
106
67
28
105
68
31
109
65
26
86
52
21
14
14
14
84
52
20
101
67
30
99
63
31
104
66
28
106
68
30
102
66
29
81
52
22
21
21
21
84
50
20
95
63
29
107
69
29
111
70
27
110
66
26
105
66
26
75
50
24
18
18
18
76
49
21
95
63
31
103
64
29
101
67
31
100
66
30
105
67
29
113
67
27
17
17
17
71
45
21
108
68
25
102
67
30
102
64
30
109
69
27
105
66
26
80
52
22
23
23
23
82
52
21
103
63
26
106
68
30
108
69
28
109
70
29
105
64
26
84
52
21
18
18
18
78
51
22
105
65
28
113
67
27
108
69
28
101
66
29
104
66
27
81
51
21
18
18
18
87
51
20
104
66
27
109
69
27
102
66
28
108
69
28
96
61
29
75
49
24
19
19
19
78
49
23
110
68
23
113
72
27
109
68
27
106
68
30
102
63
27
84
49
19
13
13
13
80
52
22
103
66
26
106
65
28
100
65
28
105
68
31
101
66
28
78
47
22
21
21
21
81
52
21
104
66
27
112
71
26
103
64
29
111
70
27
96
58
28
82
52
21
20
20
20
87
50
21
95
61
31
111
65
25
113
72
27
99
60
29
100
64
28
103
67
29
18
18
18
80
48
18
100
63
27
107
64
29
105
64
31
101
65
29
105
68
26
79
51
21
15
15
15
79
49
23
102
66
29
105
66
27
98
65
30
107
69
29
103
66
28
79
50
21
17
17
17
76
48
23
102
66
27
107
69
29
109
66
27
107
64
29
104
63
25
75
47
22
17
17
17
81
51
21
106
67
25
107
68
27
101
67
31
105
68
29
105
67
26
80
51
22
18
18
18
75
46
22
98
68
31
106
63
28
104
70
30
109
67
29
98
63
31
83
52
21
19
19
19
84
51
21
104
66
27
104
64
28
107
68
29
100
62
32
108
66
25
80
49
22
14
14
14
87
53
21
98
65
31
103
66
29
106
68
30
105
65
29
101
63
28
83
52
21
23
23
23
77
48
22
97
63
28
101
66
31
106
64
30
105
66
31
105
63
29
113
66
25
18
18
18
76
49
21
104
66
27
108
68
28
101
64
27
110
69
26
104
65
25
80
53
22
19
19
19
82
50
21
104
66
25
111
68
29
107
69
29
108
69
28
96
62
27
79
51
21
17
17
17
75
49
25
110
68
27
110
69
28
107
66
29
105
66
31
110
65
25
88
52
18
23
23
23
81
52
21
107
67
26
112
66
26
113
69
27
105
65
29
104
63
25
77
46
22
17
17
17
81
52
23
100
65
27
108
66
28
109
69
27
112
64
26
106
67
27
85
54
20
21
21
21
80
49
22
99
60
28
111
70
25
105
62
31
110
66
26
103
63
26
77
48
22
22
22
22
77
48
22
101
63
28
101
66
29
112
68
26
107
65
27
103
66
28
76
50
23
20
20
20
76
49
23
108
68
25
109
68
27
108
69
28
104
67
28
111
71
29
102
64
30
21
21
21
76
48
19
105
67
28
107
67
27
103
62
29
106
66
26
105
65
28
82
54
21
23
23
23
79
49
21
99
61
26
112
70
24
106
69
30
109
70
29
100
60
27
78
49
24
22
22
22
83
51
22
97
59
28
106
63
28
107
69
29
107
68
29
102
65
25
75
50
24
19
19
19
84
52
21
99
62
28
113
72
27
101
63
29
108
70
30
94
63
30
83
50
21
21
21
21
78
49
23
101
63
28
105
65
29
102
65
32
107
69
29
96
64
29
76
47
21
16
16
16
78
49
23
104
67
27
111
67
27
101
63
29
110
68
26
107
67
26
81
51
21
21
21
21
84
52
20
101
66
28
107
66
29
112
71
26
112
71
26
104
64
27
85
51
18
17
17
17
77
49
22
107
70
28
105
66
31
105
65
29
109
65
29
114
67
26
100
69
32
21
21
21
79
48
19
103
65
28
107
67
27
110
66
26
99
64
29
104
63
29
78
50
21
14
14
14
78
50
21
109
67
26
101
63
29
100
65
28
99
64
29
103
64
28
78
48
21
23
23
23
78
52
23
99
62
28
108
67
26
113
69
27
105
68
29
109
66
24
82
51
20
13
13
13
86
49
19
106
67
27
111
69
27
103
66
27
100
66
32
102
66
27
78
48
21
20
20
20
84
53
21
103
67
28
100
66
30
100
64
32
107
66
29
106
67
25
78
49
21
18
18
18
83
52
21
109
67
26
104
64
28
110
69
28
111
65
27
106
64
25
86
54
22
16
16
16
84
49
21
101
63
28
102
64
30
100
65
30
113
71
25
95
62
29
85
50
20
13
13
13
83
52
21
101
64
26
107
68
29
108
66
28
102
67
30
111
70
25
111
70
25
18
18
18
79
50
19
97
62
28
108
69
28
112
73
28
100
63
30
104
67
27
81
52
22
19
19
19
78
49
24
98
64
29
106
65
28
103
68
31
102
68
32
103
66
28
84
50
20
19
19
19
84
52
20
104
66
25
108
66
28
101
67
31
109
67
29
107
63
26
75
49
23
18
18
18
76
49
23
101
66
28
101
66
29
103
68
31
103
64
29
106
67
27
83
52
21
19
19
19
81
52
21
99
62
28
107
69
29
112
68
28
108
69
28
97
64
28
80
49
22
18
18
18
81
49
21
103
66
28
106
66
30
114
71
24
111
67
27
105
67
28
76
49
21
18
18
18
76
50
23
100
66
29
111
65
25
100
64
28
108
65
26
96
62
27
80
49
22
18
18
18
78
49
23
97
60
30
113
69
27
103
66
29
108
71
28
102
64
30
108
68
28
18
18
18
74
48
21
98
64
31
98
62
30
108
69
28
105
67
29
107
64
28
86
54
19
13
13
13
85
54
20
102
65
27
107
69
29
103
64
29
109
68
27
107
68
28
76
49
21
13
13
13
81
52
22
103
61
26
103
67
29
103
67
29
108
69
28
103
65
26
85
54
20
17
17
17
83
52
21
99
63
26
107
71
29
100
62
28
102
64
30
105
62
26
76
48
23
14
14
14
85
50
20
102
66
29
103
67
29
111
72
27
107
68
29
99
61
26
80
49
21
14
14
14
77
48
22
101
65
28
104
66
28
105
67
29
107
68
29
112
70
25
81
51
21
19
19
19
84
53
23
107
67
26
104
65
30
105
68
29
110
66
26
97
61
28
80
51
22
17
17
17
83
52
22
98
65
29
109
67
29
108
65
30
108
68
28
99
62
29
104
64
28
24
24
24
78
48
20
102
61
27
107
68
29
105
65
29
111
66
29
102
64
25
78
51
22
18
18
18
82
50
21
104
67
27
113
68
25
111
65
25
107
68
29
98
63
27
76
51
24
24
24
24
87
49
19
104
66
27
113
68
25
109
68
27
105
66
27
96
63
29
80
53
22
18
18
18
83
52
21
108
66
25
108
68
28
112
67
24
107
68
29
107
67
26
81
49
21
16
16
16
80
52
24
105
64
26
107
63
27
101
67
31
105
70
29
104
64
27
83
51
22
17
17
17
79
49
23
100
60
27
108
65
26
112
68
26
105
67
29
108
65
23
84
49
20
18
18
18
78
49
21
104
68
29
105
63
29
101
67
31
109
70
29
94
60
30
84
51
21
16
16
16
81
49
21
101
66
28
105
70
29
109
69
27
106
66
26
110
69
26
105
65
29
21
21
21
76
46
22
95
62
30
109
67
29
109
68
27
106
68
28
103
67
28
81
50
23
23
23
23
83
54
21
104
68
29
107
68
29
109
65
25
102
61
28
99
65
28
82
52
21
14
14
14
80
51
22
101
63
28
98
65
30
100
64
28
115
67
25
99
65
28
83
52
19
17
17
17
76
50
24
102
66
27
105
64
27
104
64
28
102
66
30
101
65
28
76
49
23
22
22
22
80
51
22
105
65
24
109
64
27
111
70
25
100
64
32
104
67
27
78
50
22
22
22
22
87
54
18
101
64
26
109
66
27
101
61
29
111
70
27
97
65
30
76
46
23
22
22
22
80
50
21
98
60
29
107
66
29
100
67
32
103
65
31
95
61
31
80
52
21
17
17
17
78
49
22
99
61
26
106
66
30
101
63
29
113
69
27
114
69
26
107
66
29
18
18
18
80
48
19
106
66
25
101
66
31
105
68
29
105
65
29
107
67
26
83
51
22
21
21
21
77
51
24
104
61
25
103
64
29
106
68
28
111
70
27
106
67
25
79
50
21
18
18
18
78
52
23
94
63
30
114
67
26
106
65
28
108
68
28
104
67
27
82
52
21
22
22
22
78
52
22
100
63
29
113
66
25
109
69
29
98
60
30
107
64
28
81
52
22
17
17
17
85
56
21
107
65
24
108
67
26
108
68
26
100
67
32
102
64
29
83
52
19
18
18
18
84
51
21
97
62
30
102
65
28
109
68
27
107
65
27
106
64
25
81
49
23
21
21
21
81
51
21
103
64
28
110
70
28
97
63
29
107
69
29
105
67
26
82
50
21
18
18
18
82
52
21
102
66
27
102
68
32
106
68
28
106
68
30
102
64
30
109
69
29
19
19
19
79
48
21
101
64
28
105
68
29
115
67
25
106
69
30
101
68
28
80
52
22
18
18
18
77
49
22
96
64
29
108
69
28
105
66
31
109
70
29
104
66
27
75
47
22
17
17
17
76
49
24
107
63
24
102
64
30
107
68
29
101
67
31
101
66
28
80
52
22
24
24
24
79
51
21
97
64
30
107
69
29
106
67
28
97
60
31
106
64
25
84
53
21
18
18
18
81
52
22
104
66
27
108
68
28
98
61
32
106
68
28
98
63
27
80
49
22
16
16
16
84
52
20
96
61
29
107
68
27
114
67
26
106
68
28
100
62
27
88
52
20
19
19
19
81
52
21
101
66
28
107
68
29
108
68
28
107
66
29
98
62
29
83
52
21
18
18
18
82
52
21
104
67
27
106
66
30
105
64
27
112
71
26
105
63
29
102
64
30
14
14
14
74
47
22
97
64
30
106
66
30
107
65
27
107
64
29
100
65
29
80
51
22
19
19
19
81
52
23
107
70
28
109
69
27
110
66
26
111
67
25
96
60
27
79
50
21
19
19
19
80
51
22
101
64
26
105
67
29
105
67
29
109
66
27
110
67
25
75
49
23
21
21
21
77
50
24
102
64
29
109
70
29
107
68
29
101
63
29
102
65
27
87
52
21
18
18
18
80
51
21
101
65
28
105
69
31
109
70
29
106
68
28
103
61
26
78
51
24
19
19
19
80
50
21
107
63
26
100
66
30
107
68
29
107
65
27
98
61
27
79
50
21
23
23
23
82
50
21
103
64
28
109
72
29
109
72
29
102
66
30
110
63
25
81
50
22
19
19
19
80
52
22
102
66
27
100
69
32
101
65
29
111
65
25
99
65
31
107
67
27
20
20
20
78
48
20
107
65
28
111
70
29
108
66
28
107
63
27
105
64
26
84
52
20
20
20
20
75
49
23
96
60
27
100
67
32
106
67
28
107
71
29
98
65
29
81
52
21
21
21
21
87
52
19
107
68
24
101
67
31
103
64
29
103
65
27
101
66
28
78
52
24
17
17
17
79
52
23
99
62
28
106
65
28
110
69
26
106
68
30
99
62
28
80
52
22
19
19
19
78
50
23
101
66
28
111
70
27
109
65
29
102
66
30
99
66
30
78
48
21
16
16
16
78
50
21
106
66
25
105
68
29
113
71
25
102
65
28
98
63
27
80
51
22
21
21
21
84
51
21
101
63
28
112
70
24
110
69
26
107
69
29
96
63
30
78
51
22
21
21
21
80
49
22
99
60
28
100
65
28
113
72
27
109
68
27
109
68
25
113
72
27
23
23
23
80
51
18
103
65
26
106
65
28
101
66
31
110
69
26
96
61
30
78
49
24
21
21
21
82
52
21
99
63
26
106
69
30
109
67
29
103
66
29
104
65
25
81
52
22
19
19
19
78
48
21
101
65
28
113
67
27
111
67
25
110
69
26
105
68
26
84
52
20
18
18
18
86
51
18
99
64
28
112
71
26
109
65
25
107
68
29
98
62
29
81
49
21
21
21
21
83
53
22
106
66
25
99
66
31
103
64
29
112
66
26
109
67
26
81
52
22
22
22
22
86
52
21
103
61
26
105
68
29
111
65
25
109
70
29
96
64
29
84
53
21
18
18
18
81
52
21
107
68
28
104
64
28
100
64
28
106
67
28
101
64
30
83
52
21
18
18
18
86
52
21
99
63
30
110
70
30
107
65
27
105
68
29
108
66
28
104
68
30
18
18
18
78
48
19
93
60
30
112
71
26
107
69
29
107
68
27
98
62
29
76
49
23
16
16
16
74
46
22
102
66
27
107
67
27
100
63
30
106
68
28
105
64
26
85
52
20
22
22
22
80
50
21
105
66
26
107
70
27
100
66
30
100
66
30
108
64
25
87
52
20
20
20
20
78
50
21
102
63
27
106
69
30
107
68
29
106
69
30
100
66
29
82
50
21
19
19
19
80
51
22
108
64
25
107
69
29
103
66
29
108
69
28
103
63
26
80
53
22
17
17
17
84
49
20
101
66
28
102
62
30
105
68
29
101
62
31
99
66
30
81
50
22
22
22
22
83
53
22
96
62
27
109
66
27
102
64
30
108
69
28
102
67
29
84
53
21
21
21
21
80
51
22
103
66
28
112
70
28
109
69
27
108
66
28
113
66
25
107
67
27
18
18
18
80
48
19
107
66
26
107
66
29
100
64
32
109
69
29
106
64
25
84
52
21
19
19
19
75
52
24
96
61
29
103
66
29
107
65
27
101
64
31
98
61
27
83
53
22
18
18
18
80
49
24
100
65
29
111
67
27
105
64
27
108
66
28
108
64
25
84
52
22
17
17
17
82
52
21
99
66
30
105
67
29
105
67
29
99
62
29
103
66
28
87
56
21
14
14
14
76
50
23
109
69
26
107
64
29
100
64
32
111
67
27
100
65
27
79
49
21
22
22
22
84
53
21
111
68
26
111
70
25
111
71
29
110
69
28
107
67
26
78
51
22
17
17
17
80
51
22
95
62
29
109
71
27
105
65
29
103
65
27
104
66
25
75
49
22
21
21
21
86
52
19
98
64
29
100
65
30
107
64
29
105
66
27
106
68
30
103
67
29
22
22
22
76
49
22
103
63
28
104
64
28
107
65
27
105
70
29
111
69
24
85
49
18
14
14
14
77
50
24
107
65
26
110
70
30
113
69
27
101
67
31
105
65
28
87
52
18
14
14
14
75
49
22
99
66
30
98
65
32
103
67
31
110
66
26
102
61
27
76
50
23
17
17
17
84
50
20
100
63
29
109
69
27
114
67
26
108
66
28
101
63
28
76
49
21
17
17
17
82
52
21
101
65
28
112
68
26
112
68
26
106
63
28
95
61
27
84
52
20
18
18
18
78
50
23
102
65
27
106
65
28
109
69
29
107
69
29
99
65
30
76
49
23
16
16
16
84
52
21
107
67
26
102
66
30
106
67
28
106
67
28
103
63
26
84
53
21
22
22
22
79
51
21
108
66
25
106
66
30
105
65
29
106
68
30
99
63
31
107
68
29
17
17
17
74
48
19
98
61
29
105
67
27
102
64
30
108
66
28
105
67
26
76
50
24
18
18
18
83
52
21
97
64
30
108
65
26
107
66
29
104
66
26
101
62
26
80
50
21
18
18
18
82
50
21
101
66
28
106
65
28
112
66
26
105
67
29
103
63
26
81
52
21
14
14
14
81
54
22
105
66
26
106
66
30
106
66
30
109
64
27
107
68
26
85
52
20
19
19
19
86
55
21
101
67
30
105
68
29
110
68
26
109
66
27
109
67
26
80
51
21
17
17
17
87
52
19
109
66
24
98
67
30
107
65
27
107
69
29
99
65
28
84
52
21
14
14
14
79
51
21
97
61
28
110
66
26
104
67
28
105
64
31
99
62
28
78
50
22
17
17
17
89
50
19
99
64
26
109
66
27
103
67
29
105
65
29
108
66
28
101
66
31
